<?xml version="1.0" encoding="UTF-8" standalone="no"?>
<svg
   xmlns:dc="http://purl.org/dc/elements/1.1/"
   xmlns:cc="http://creativecommons.org/ns#"
   xmlns:rdf="http://www.w3.org/1999/02/22-rdf-syntax-ns#"
   xmlns:svg="http://www.w3.org/2000/svg"
   xmlns="http://www.w3.org/2000/svg"
   xmlns:sodipodi="http://sodipodi.sourceforge.net/DTD/sodipodi-0.dtd"
   xmlns:inkscape="http://www.inkscape.org/namespaces/inkscape"
   height="100%"
   version="1.1"
   viewBox="-500 -350 1500 1300"
   width="100%"
   id="svg2"
   inkscape:version="0.91 r13725"
   sodipodi:docname="03.svg">
  <metadata
     id="metadata319">
    <rdf:RDF>
      <cc:Work
         rdf:about="">
        <dc:format>image/svg+xml</dc:format>
        <dc:type
           rdf:resource="http://purl.org/dc/dcmitype/StillImage" />
      </cc:Work>
    </rdf:RDF>
  </metadata>
  <sodipodi:namedview
     pagecolor="#ffffff"
     bordercolor="#666666"
     borderopacity="1"
     objecttolerance="10"
     gridtolerance="10"
     guidetolerance="10"
     inkscape:pageopacity="0"
     inkscape:pageshadow="2"
     inkscape:window-width="1920"
     inkscape:window-height="1017"
     id="namedview317"
     showgrid="false"
     inkscape:zoom="0.51346831"
     inkscape:cx="972.63868"
     inkscape:cy="700.81041"
     inkscape:window-x="-8"
     inkscape:window-y="-8"
     inkscape:window-maximized="1"
     inkscape:current-layer="svg2" />
  <defs
     id="defs4">
    <marker
       id="id139"
       markerHeight="10"
       markerWidth="10"
       orient="auto"
       refX="0"
       refY="5">
      <path
         d="M 0 0 L 10 5 L 0 10 z"
         fill="blue"
         stroke="black"
         id="path7" />
    </marker>
    <marker
       id="id140"
       markerHeight="10"
       markerWidth="10"
       orient="auto"
       refX="0"
       refY="5">
      <path
         d="M 0 0 L 10 5 L 0 10 z"
         fill="blue"
         stroke="black"
         id="path10" />
    </marker>
    <marker
       id="id141"
       markerHeight="30"
       markerWidth="30"
       orient="auto"
       refX="8"
       refY="3">
      <path
         d=" M0,0 L3,3 L0,6 L8,3 L0,0"
         fill="black"
         id="path13" />
    </marker>
    <marker
       id="id142"
       markerHeight="20"
       markerWidth="30"
       orient="auto"
       refX="0"
       refY="3">
      <path
         d=" M0,3 L8,6 L5,3 L8,0 L0,3"
         fill="black"
         id="path16" />
    </marker>
    <marker
       id="id143"
       markerHeight="30"
       markerWidth="30"
       orient="auto"
       refX="8"
       refY="3">
      <path
         d=" M0,0 L3,3 L0,6 L8,3 L0,0"
         fill="black"
         id="path19" />
    </marker>
    <marker
       id="id144"
       markerHeight="20"
       markerWidth="30"
       orient="auto"
       refX="0"
       refY="3">
      <path
         d=" M0,3 L8,6 L5,3 L8,0 L0,3"
         fill="black"
         id="path22" />
    </marker>
    <marker
       id="id145"
       markerHeight="30"
       markerWidth="30"
       orient="auto"
       refX="8"
       refY="3">
      <path
         d=" M0,0 L3,3 L0,6 L8,3 L0,0"
         fill="black"
         id="path25" />
    </marker>
    <marker
       id="id146"
       markerHeight="20"
       markerWidth="30"
       orient="auto"
       refX="0"
       refY="3">
      <path
         d=" M0,3 L8,6 L5,3 L8,0 L0,3"
         fill="black"
         id="path28" />
    </marker>
    <marker
       id="id147"
       markerHeight="30"
       markerWidth="30"
       orient="auto"
       refX="8"
       refY="3">
      <path
         d=" M0,0 L3,3 L0,6 L8,3 L0,0"
         fill="black"
         id="path31" />
    </marker>
    <marker
       id="id148"
       markerHeight="20"
       markerWidth="30"
       orient="auto"
       refX="0"
       refY="3">
      <path
         d=" M0,3 L8,6 L5,3 L8,0 L0,3"
         fill="black"
         id="path34" />
    </marker>
    <marker
       id="id149"
       markerHeight="30"
       markerWidth="30"
       orient="auto"
       refX="8"
       refY="3">
      <path
         d=" M0,0 L3,3 L0,6 L8,3 L0,0"
         fill="black"
         id="path37" />
    </marker>
    <marker
       id="id150"
       markerHeight="20"
       markerWidth="30"
       orient="auto"
       refX="0"
       refY="3">
      <path
         d=" M0,3 L8,6 L5,3 L8,0 L0,3"
         fill="black"
         id="path40" />
    </marker>
    <marker
       id="id151"
       markerHeight="30"
       markerWidth="30"
       orient="auto"
       refX="8"
       refY="3">
      <path
         d=" M0,0 L3,3 L0,6 L8,3 L0,0"
         fill="black"
         id="path43" />
    </marker>
    <marker
       id="id152"
       markerHeight="20"
       markerWidth="30"
       orient="auto"
       refX="0"
       refY="3">
      <path
         d=" M0,3 L8,6 L5,3 L8,0 L0,3"
         fill="black"
         id="path46" />
    </marker>
    <marker
       id="id153"
       markerHeight="30"
       markerWidth="30"
       orient="auto"
       refX="8"
       refY="3">
      <path
         d=" M0,0 L3,3 L0,6 L8,3 L0,0"
         fill="black"
         id="path49" />
    </marker>
    <marker
       id="id154"
       markerHeight="20"
       markerWidth="30"
       orient="auto"
       refX="0"
       refY="3">
      <path
         d=" M0,3 L8,6 L5,3 L8,0 L0,3"
         fill="black"
         id="path52" />
    </marker>
    <marker
       id="id155"
       markerHeight="30"
       markerWidth="30"
       orient="auto"
       refX="8"
       refY="3">
      <path
         d=" M0,0 L3,3 L0,6 L8,3 L0,0"
         fill="black"
         id="path55" />
    </marker>
    <marker
       id="id156"
       markerHeight="20"
       markerWidth="30"
       orient="auto"
       refX="0"
       refY="3">
      <path
         d=" M0,3 L8,6 L5,3 L8,0 L0,3"
         fill="black"
         id="path58" />
    </marker>
    <marker
       id="id157"
       markerHeight="30"
       markerWidth="30"
       orient="auto"
       refX="8"
       refY="3">
      <path
         d=" M0,0 L3,3 L0,6 L8,3 L0,0"
         fill="black"
         id="path61" />
    </marker>
    <marker
       id="id158"
       markerHeight="20"
       markerWidth="30"
       orient="auto"
       refX="0"
       refY="3">
      <path
         d=" M0,3 L8,6 L5,3 L8,0 L0,3"
         fill="black"
         id="path64" />
    </marker>
    <marker
       id="id159"
       markerHeight="20"
       markerWidth="30"
       orient="auto"
       refX="0"
       refY="3">
      <path
         d=" M0,3 L8,6 L5,3 L8,0 L0,3"
         fill="black"
         id="path67" />
    </marker>
    <marker
       id="id160"
       markerHeight="20"
       markerWidth="30"
       orient="auto"
       refX="0"
       refY="3">
      <path
         d=" M0,3 L8,6 L5,3 L8,0 L0,3"
         fill="black"
         id="path70" />
    </marker>
    <marker
       id="id161"
       markerHeight="20"
       markerWidth="30"
       orient="auto"
       refX="0"
       refY="3">
      <path
         d=" M0,3 L8,6 L5,3 L8,0 L0,3"
         fill="black"
         id="path73" />
    </marker>
    <marker
       id="id162"
       markerHeight="20"
       markerWidth="30"
       orient="auto"
       refX="0"
       refY="3">
      <path
         d=" M0,3 L8,6 L5,3 L8,0 L0,3"
         fill="black"
         id="path76" />
    </marker>
    <marker
       id="id163"
       markerHeight="20"
       markerWidth="30"
       orient="auto"
       refX="0"
       refY="3">
      <path
         d=" M0,3 L8,6 L5,3 L8,0 L0,3"
         fill="black"
         id="path79" />
    </marker>
  </defs>
  <line
     marker-end="url(#id139)"
     stroke="black"
     stroke-linecap="square"
     stroke-width="2.5"
     x1="0"
     x2="0"
     y1="-320"
     y2="-270"
     id="line81" />
  <text
     fill="black"
     font-family="sans-serif"
     font-size="52"
     x="-10"
     y="-190"
     id="text83">A</text>
  <line
     marker-end="url(#id140)"
     stroke="black"
     stroke-linecap="square"
     stroke-width="2.5"
     x1="449.7"
     x2="449.7"
     y1="-320.0"
     y2="-270.0"
     id="line85" />
  <text
     fill="black"
     font-family="sans-serif"
     font-size="52"
     x="439.7"
     y="-190.0"
     id="text87">A</text>
  <line
     stroke="#666666"
     stroke-linecap="square"
     stroke-width="1.0"
     x1="0"
     x2="449.7"
     y1="-320"
     y2="-320.0"
     id="line89" />
  <polyline
     fill="none"
     points="0,0 150,0 150.0,17.4 79.7,17.4 79.7,432.6 150.0,432.6 150.0,450.0 0.0,450.0 0.0,432.6 70.3,432.6 70.3,17.4 0.0,17.4 0,0"
     stroke="blue"
     stroke-width="2.5"
     id="polyline91" />
  <polyline
     fill="none"
     points="160.0,17.4 160,0 449.7,0.0 449.7,300.0 99.7,300.0 99.7,286.9 99.7,251.4"
     stroke="blue"
     stroke-width="2.5"
     id="polyline93" />
  <line
     stroke="red"
     stroke-dasharray="5 5"
     stroke-linecap="square"
     stroke-width="2.5"
     x1="99.7"
     x2="99.7"
     y1="32.4"
     y2="251.4"
     id="line95" />
  <line
     stroke="blue"
     stroke-linecap="square"
     stroke-width="2.5"
     x1="160.0"
     x2="449.7"
     y1="13.1"
     y2="13.1"
     id="line97" />
  <line
     stroke="blue"
     stroke-linecap="square"
     stroke-width="2.5"
     x1="99.7"
     x2="449.7"
     y1="286.9"
     y2="286.9"
     id="line99" />
  <rect
     fill="none"
     height="219"
     stroke="blue"
     stroke-width="2.5"
     width="8"
     x="79.7"
     y="32.4"
     id="rect101" />
  <rect
     fill="none"
     height="219"
     stroke="blue"
     stroke-width="2.5"
     width="62"
     x="87.7"
     y="32.4"
     id="rect103" />
  <path
     d="M 160.0 17.4 A 15.0 15.0 , 0 , 0 , 1 , 145.0 32.4"
     fill="none"
     stroke="blue"
     stroke-width="2.5"
     id="path105" />
  <circle
     cx="127.7"
     cy="54.4"
     fill="none"
     r="5"
     stroke="blue"
     stroke-width="1.5"
     id="circle107" />
  <line
     stroke="red"
     stroke-linecap="square"
     stroke-width="2.0"
     x1="118.7"
     x2="136.7"
     y1="54.4"
     y2="54.4"
     id="line109" />
  <line
     stroke="red"
     stroke-linecap="square"
     stroke-width="2.0"
     x1="127.7"
     x2="127.7"
     y1="45.4"
     y2="63.4"
     id="line111" />
  <circle
     cx="127.7"
     cy="79.4"
     fill="none"
     r="5"
     stroke="blue"
     stroke-width="1.5"
     id="circle113" />
  <line
     stroke="red"
     stroke-linecap="square"
     stroke-width="2.0"
     x1="118.7"
     x2="136.7"
     y1="79.4"
     y2="79.4"
     id="line115" />
  <line
     stroke="red"
     stroke-linecap="square"
     stroke-width="2.0"
     x1="127.7"
     x2="127.7"
     y1="70.4"
     y2="88.4"
     id="line117" />
  <circle
     cx="127.7"
     cy="104.4"
     fill="none"
     r="5"
     stroke="blue"
     stroke-width="1.5"
     id="circle119" />
  <line
     stroke="red"
     stroke-linecap="square"
     stroke-width="2.0"
     x1="118.7"
     x2="136.7"
     y1="104.4"
     y2="104.4"
     id="line121" />
  <line
     stroke="red"
     stroke-linecap="square"
     stroke-width="2.0"
     x1="127.7"
     x2="127.7"
     y1="95.4"
     y2="113.4"
     id="line123" />
  <circle
     cx="127.7"
     cy="129.4"
     fill="none"
     r="5"
     stroke="blue"
     stroke-width="1.5"
     id="circle125" />
  <line
     stroke="red"
     stroke-linecap="square"
     stroke-width="2.0"
     x1="118.7"
     x2="136.7"
     y1="129.4"
     y2="129.4"
     id="line127" />
  <line
     stroke="red"
     stroke-linecap="square"
     stroke-width="2.0"
     x1="127.7"
     x2="127.7"
     y1="120.4"
     y2="138.4"
     id="line129" />
  <circle
     cx="127.7"
     cy="154.4"
     fill="none"
     r="5"
     stroke="blue"
     stroke-width="1.5"
     id="circle131" />
  <line
     stroke="red"
     stroke-linecap="square"
     stroke-width="2.0"
     x1="118.7"
     x2="136.7"
     y1="154.4"
     y2="154.4"
     id="line133" />
  <line
     stroke="red"
     stroke-linecap="square"
     stroke-width="2.0"
     x1="127.7"
     x2="127.7"
     y1="145.4"
     y2="163.4"
     id="line135" />
  <circle
     cx="127.7"
     cy="179.4"
     fill="none"
     r="5"
     stroke="blue"
     stroke-width="1.5"
     id="circle137" />
  <line
     stroke="red"
     stroke-linecap="square"
     stroke-width="2.0"
     x1="118.7"
     x2="136.7"
     y1="179.4"
     y2="179.4"
     id="line139" />
  <line
     stroke="red"
     stroke-linecap="square"
     stroke-width="2.0"
     x1="127.7"
     x2="127.7"
     y1="170.4"
     y2="188.4"
     id="line141" />
  <circle
     cx="127.7"
     cy="204.4"
     fill="none"
     r="5"
     stroke="blue"
     stroke-width="1.5"
     id="circle143" />
  <line
     stroke="red"
     stroke-linecap="square"
     stroke-width="2.0"
     x1="118.7"
     x2="136.7"
     y1="204.4"
     y2="204.4"
     id="line145" />
  <line
     stroke="red"
     stroke-linecap="square"
     stroke-width="2.0"
     x1="127.7"
     x2="127.7"
     y1="195.4"
     y2="213.4"
     id="line147" />
  <circle
     cx="127.7"
     cy="229.4"
     fill="none"
     r="5"
     stroke="blue"
     stroke-width="1.5"
     id="circle149" />
  <line
     stroke="red"
     stroke-linecap="square"
     stroke-width="2.0"
     x1="118.7"
     x2="136.7"
     y1="229.4"
     y2="229.4"
     id="line151" />
  <line
     stroke="red"
     stroke-linecap="square"
     stroke-width="2.0"
     x1="127.7"
     x2="127.7"
     y1="220.4"
     y2="238.4"
     id="line153" />
  <rect
     fill="black"
     height="10"
     stroke="black"
     stroke-width="2.0"
     width="17.4"
     x="70.3"
     y="49.4"
     id="rect155" />
  <line
     stroke="black"
     stroke-linecap="square"
     stroke-width="2.0"
     x1="60.3"
     x2="105.7"
     y1="54.4"
     y2="54.4"
     id="line157" />
  <rect
     fill="black"
     height="10"
     stroke="black"
     stroke-width="2.0"
     width="17.4"
     x="70.3"
     y="74.4"
     id="rect159" />
  <line
     stroke="black"
     stroke-linecap="square"
     stroke-width="2.0"
     x1="60.3"
     x2="105.7"
     y1="79.4"
     y2="79.4"
     id="line161" />
  <rect
     fill="black"
     height="10"
     stroke="black"
     stroke-width="2.0"
     width="17.4"
     x="70.3"
     y="99.4"
     id="rect163" />
  <line
     stroke="black"
     stroke-linecap="square"
     stroke-width="2.0"
     x1="60.3"
     x2="105.7"
     y1="104.4"
     y2="104.4"
     id="line165" />
  <rect
     fill="black"
     height="10"
     stroke="black"
     stroke-width="2.0"
     width="17.4"
     x="70.3"
     y="124.4"
     id="rect167" />
  <line
     stroke="black"
     stroke-linecap="square"
     stroke-width="2.0"
     x1="60.3"
     x2="105.7"
     y1="129.4"
     y2="129.4"
     id="line169" />
  <rect
     fill="black"
     height="10"
     stroke="black"
     stroke-width="2.0"
     width="17.4"
     x="70.3"
     y="149.4"
     id="rect171" />
  <line
     stroke="black"
     stroke-linecap="square"
     stroke-width="2.0"
     x1="60.3"
     x2="105.7"
     y1="154.4"
     y2="154.4"
     id="line173" />
  <rect
     fill="black"
     height="10"
     stroke="black"
     stroke-width="2.0"
     width="17.4"
     x="70.3"
     y="174.4"
     id="rect175" />
  <line
     stroke="black"
     stroke-linecap="square"
     stroke-width="2.0"
     x1="60.3"
     x2="105.7"
     y1="179.4"
     y2="179.4"
     id="line177" />
  <rect
     fill="black"
     height="10"
     stroke="black"
     stroke-width="2.0"
     width="17.4"
     x="70.3"
     y="199.4"
     id="rect179" />
  <line
     stroke="black"
     stroke-linecap="square"
     stroke-width="2.0"
     x1="60.3"
     x2="105.7"
     y1="204.4"
     y2="204.4"
     id="line181" />
  <rect
     fill="black"
     height="10"
     stroke="black"
     stroke-width="2.0"
     width="17.4"
     x="70.3"
     y="224.4"
     id="rect183" />
  <line
     stroke="black"
     stroke-linecap="square"
     stroke-width="2.0"
     x1="60.3"
     x2="105.7"
     y1="229.4"
     y2="229.4"
     id="line185" />
  <line
     stroke="#D8D8D8"
     stroke-linecap="square"
     stroke-opacity="0.7"
     stroke-width="2.5"
     x1="149.7"
     x2="649.7"
     y1="32.4"
     y2="32.4"
     id="line187" />
  <line
     stroke="#D8D8D8"
     stroke-linecap="square"
     stroke-opacity="0.7"
     stroke-width="2.5"
     x1="149.7"
     x2="649.7"
     y1="251.4"
     y2="251.4"
     id="line189" />
  <line
     marker-end="url(#id141)"
     marker-start="url(#id142)"
     stroke="black"
     stroke-linecap="square"
     stroke-width="2.5"
     x1="499.7"
     x2="499.7"
     y1="32.4"
     y2="251.4"
     id="line191" />
  <text
     fill="black"
     font-family="sans-serif"
     font-size="28"
     x="509.7"
     y="141.9"
     id="text193">219</text>
  <line
     stroke="black"
     stroke-linecap="square"
     stroke-opacity="1.0"
     stroke-width="2.5"
     x1="509.7"
     x2="489.7"
     y1="32.4"
     y2="32.4"
     id="line195" />
  <line
     stroke="black"
     stroke-linecap="square"
     stroke-opacity="1.0"
     stroke-width="2.5"
     x1="509.7"
     x2="489.7"
     y1="251.4"
     y2="251.4"
     id="line197" />
  <line
     stroke="#D8D8D8"
     stroke-linecap="square"
     stroke-opacity="0.7"
     stroke-width="2.5"
     x1="127.7"
     x2="627.7"
     y1="54.4"
     y2="54.4"
     id="line199" />
  <line
     stroke="#D8D8D8"
     stroke-linecap="square"
     stroke-opacity="0.7"
     stroke-width="2.5"
     x1="127.7"
     x2="627.7"
     y1="229.4"
     y2="229.4"
     id="line201" />
  <line
     marker-end="url(#id143)"
     marker-start="url(#id144)"
     stroke="black"
     stroke-linecap="square"
     stroke-width="2.5"
     x1="627.7"
     x2="627.7"
     y1="54.4"
     y2="229.4"
     id="line203" />
  <text
     fill="black"
     font-family="sans-serif"
     font-size="28"
     x="637.7"
     y="141.9"
     id="text205">7@25 c/c</text>
  <line
     stroke="black"
     stroke-linecap="square"
     stroke-opacity="1.0"
     stroke-width="2.5"
     x1="637.7"
     x2="617.7"
     y1="54.4"
     y2="54.4"
     id="line207" />
  <line
     stroke="black"
     stroke-linecap="square"
     stroke-opacity="1.0"
     stroke-width="2.5"
     x1="637.7"
     x2="617.7"
     y1="229.4"
     y2="229.4"
     id="line209" />
  <line
     marker-end="url(#id145)"
     marker-start="url(#id146)"
     stroke="black"
     stroke-linecap="square"
     stroke-width="2.5"
     x1="627.7"
     x2="627.7"
     y1="54.4"
     y2="32.4"
     id="line211" />
  <text
     fill="black"
     font-family="sans-serif"
     font-size="28"
     x="637.7"
     y="43.4"
     id="text213">22</text>
  <line
     stroke="black"
     stroke-linecap="square"
     stroke-opacity="1.0"
     stroke-width="2.5"
     x1="637.7"
     x2="617.7"
     y1="54.4"
     y2="54.4"
     id="line215" />
  <line
     stroke="black"
     stroke-linecap="square"
     stroke-opacity="1.0"
     stroke-width="2.5"
     x1="637.7"
     x2="617.7"
     y1="32.4"
     y2="32.4"
     id="line217" />
  <line
     marker-end="url(#id147)"
     marker-start="url(#id148)"
     stroke="black"
     stroke-linecap="square"
     stroke-width="2.5"
     x1="627.7"
     x2="627.7"
     y1="229.4"
     y2="251.4"
     id="line219" />
  <text
     fill="black"
     font-family="sans-serif"
     font-size="28"
     x="637.7"
     y="240.4"
     id="text221">22</text>
  <line
     stroke="black"
     stroke-linecap="square"
     stroke-opacity="1.0"
     stroke-width="2.5"
     x1="637.7"
     x2="617.7"
     y1="229.4"
     y2="229.4"
     id="line223" />
  <line
     stroke="black"
     stroke-linecap="square"
     stroke-opacity="1.0"
     stroke-width="2.5"
     x1="637.7"
     x2="617.7"
     y1="251.4"
     y2="251.4"
     id="line225" />
  <line
     stroke="#D8D8D8"
     stroke-linecap="square"
     stroke-opacity="0.7"
     stroke-width="2.5"
     x1="127.7"
     x2="127.7"
     y1="32.4"
     y2="-180.0"
     id="line227" />
  <line
     stroke="#D8D8D8"
     stroke-linecap="square"
     stroke-opacity="0.7"
     stroke-width="2.5"
     x1="149.7"
     x2="149.7"
     y1="32.4"
     y2="-180.0"
     id="line229" />
  <line
     marker-end="url(#id149)"
     marker-start="url(#id150)"
     stroke="black"
     stroke-linecap="square"
     stroke-width="2.5"
     x1="149.7"
     x2="127.7"
     y1="-180.0"
     y2="-180.0"
     id="line231" />
  <text
     fill="black"
     font-family="sans-serif"
     font-size="28"
     x="138.7"
     y="-200.0"
     id="text233">22</text>
  <line
     stroke="black"
     stroke-linecap="square"
     stroke-opacity="1.0"
     stroke-width="2.5"
     x1="149.7"
     x2="149.7"
     y1="-190.0"
     y2="-170.0"
     id="line235" />
  <line
     stroke="black"
     stroke-linecap="square"
     stroke-opacity="1.0"
     stroke-width="2.5"
     x1="127.7"
     x2="127.7"
     y1="-190.0"
     y2="-170.0"
     id="line237" />
  <line
     stroke="#D8D8D8"
     stroke-linecap="square"
     stroke-opacity="0.7"
     stroke-width="2.5"
     x1="0"
     x2="-30"
     y1="0"
     y2="0"
     id="line239" />
  <line
     stroke="#D8D8D8"
     stroke-linecap="square"
     stroke-opacity="0.7"
     stroke-width="2.5"
     x1="99.7"
     x2="-30.0"
     y1="32.4"
     y2="32.4"
     id="line241" />
  <line
     marker-end="url(#id151)"
     marker-start="url(#id152)"
     stroke="black"
     stroke-linecap="square"
     stroke-width="2.5"
     x1="-30.0"
     x2="-30.0"
     y1="0.0"
     y2="32.4"
     id="line243" />
  <text
     fill="black"
     font-family="sans-serif"
     font-size="28"
     x="-80.0"
     y="16.2"
     id="text245">32</text>
  <line
     stroke="black"
     stroke-linecap="square"
     stroke-opacity="1.0"
     stroke-width="2.5"
     x1="-40.0"
     x2="-20.0"
     y1="0.0"
     y2="0.0"
     id="line247" />
  <line
     stroke="black"
     stroke-linecap="square"
     stroke-opacity="1.0"
     stroke-width="2.5"
     x1="-40.0"
     x2="-20.0"
     y1="32.4"
     y2="32.4"
     id="line249" />
  <line
     stroke="#D8D8D8"
     stroke-linecap="square"
     stroke-opacity="0.7"
     stroke-width="2.5"
     x1="79.7"
     x2="-24.15"
     y1="32.4"
     y2="32.4"
     id="line251" />
  <line
     stroke="#D8D8D8"
     stroke-linecap="square"
     stroke-opacity="0.7"
     stroke-width="2.5"
     x1="70.3"
     x2="-25.85"
     y1="54.4"
     y2="54.4"
     id="line253" />
  <line
     marker-end="url(#id153)"
     marker-start="url(#id154)"
     stroke="black"
     stroke-linecap="square"
     stroke-width="2.5"
     x1="-25.85"
     x2="-25.85"
     y1="32.4"
     y2="54.4"
     id="line255" />
  <text
     fill="black"
     font-family="sans-serif"
     font-size="28"
     x="-75.85"
     y="43.4"
     id="text257">22</text>
  <line
     stroke="black"
     stroke-linecap="square"
     stroke-opacity="1.0"
     stroke-width="2.5"
     x1="-35.85"
     x2="-15.85"
     y1="32.4"
     y2="32.4"
     id="line259" />
  <line
     stroke="black"
     stroke-linecap="square"
     stroke-opacity="1.0"
     stroke-width="2.5"
     x1="-35.85"
     x2="-15.85"
     y1="54.4"
     y2="54.4"
     id="line261" />
  <line
     stroke="#D8D8D8"
     stroke-linecap="square"
     stroke-opacity="0.7"
     stroke-width="2.5"
     x1="70.3"
     x2="-25.85"
     y1="229.4"
     y2="229.4"
     id="line263" />
  <line
     marker-end="url(#id155)"
     marker-start="url(#id156)"
     stroke="black"
     stroke-linecap="square"
     stroke-width="2.5"
     x1="-25.85"
     x2="-25.85"
     y1="54.4"
     y2="229.4"
     id="line265" />
  <text
     fill="black"
     font-family="sans-serif"
     font-size="28"
     x="-175.85"
     y="141.9"
     id="text267">7@25 c/c</text>
  <line
     stroke="black"
     stroke-linecap="square"
     stroke-opacity="1.0"
     stroke-width="2.5"
     x1="-35.85"
     x2="-15.85"
     y1="54.4"
     y2="54.4"
     id="line269" />
  <line
     stroke="black"
     stroke-linecap="square"
     stroke-opacity="1.0"
     stroke-width="2.5"
     x1="-35.85"
     x2="-15.85"
     y1="229.4"
     y2="229.4"
     id="line271" />
  <line
     stroke="#D8D8D8"
     stroke-linecap="square"
     stroke-opacity="0.7"
     stroke-width="2.5"
     x1="79.7"
     x2="-24.15"
     y1="251.4"
     y2="251.4"
     id="line273" />
  <line
     marker-end="url(#id157)"
     marker-start="url(#id158)"
     stroke="black"
     stroke-linecap="square"
     stroke-width="2.5"
     x1="-25.85"
     x2="-25.85"
     y1="251.4"
     y2="229.4"
     id="line275" />
  <text
     fill="black"
     font-family="sans-serif"
     font-size="28"
     x="-75.85"
     y="240.4"
     id="text277">22</text>
  <line
     stroke="black"
     stroke-linecap="square"
     stroke-opacity="1.0"
     stroke-width="2.5"
     x1="-35.85"
     x2="-15.85"
     y1="251.4"
     y2="251.4"
     id="line279" />
  <line
     stroke="black"
     stroke-linecap="square"
     stroke-opacity="1.0"
     stroke-width="2.5"
     x1="-35.85"
     x2="-15.85"
     y1="229.4"
     y2="229.4"
     id="line281" />
  <polyline
     fill="none"
     marker-start="url(#id159)"
     points="449.7,300.0 536.302540378,350.0 744.302540378,350.0"
     stroke="black"
     stroke-width="2.5"
     id="polyline283" />
  <text
     fill="black"
     font-family="sans-serif"
     font-size="28"
     x="557.102540378"
     y="332.0"
     id="text285">Beam ISMB 300</text>
  <text
     fill="black"
     font-family="sans-serif"
     font-size="28"
     x="557.102540378"
     y="368.0"
     id="text287" />
  <polyline
     fill="none"
     marker-start="url(#id160)"
     points="0,0 -100.0,-100.0 -308.0,-100.0"
     stroke="black"
     stroke-width="2.5"
     id="polyline289" />
  <text
     fill="black"
     font-family="sans-serif"
     font-size="28"
     x="-287.2"
     y="-118.0"
     id="text291">Beam ISMB 450</text>
  <text
     fill="black"
     font-family="sans-serif"
     font-size="28"
     x="-328.8"
     y="-82.0"
     id="text293" />
  <polyline
     fill="none"
     marker-start="url(#id161)"
     points="127.7,54.4 314.7,-132.6 682.7,-132.6"
     stroke="black"
     stroke-width="2.5"
     id="polyline295" />
  <text
     fill="black"
     font-family="sans-serif"
     font-size="28"
     x="351.5"
     y="-150.6"
     id="text297"
     style="fill:#008000;">8 nos 10Ø holes</text>
  <text
     fill="black"
     font-family="sans-serif"
     font-size="28"
     x="351.5"
     y="-99.6"
     id="text299"
     style="fill:#008000;">for M10bolts(grade 4.8)</text>
  <polyline
     fill="none"
     marker-start="url(#id162)"
     points="70.3,229.4 24.1119784648,309.4 -343.888021535,309.4"
     stroke="black"
     stroke-width="2.5"
     id="polyline301" />
  <text
     fill="black"
     font-family="sans-serif"
     font-size="28"
     x="-307.088021535"
     y="291.4"
     id="text303">16 nos 10Ø holes</text>
  <text
     fill="black"
     font-family="sans-serif"
     font-size="28"
     x="-380.688021535"
     y="327.4"
     id="text305">for M10bolts(grade 4.8)</text>
  <polyline
     fill="none"
     marker-start="url(#id163)"
     points="149.7,251.4 189.517249995,400.0 365.517249995,400.0"
     stroke="black"
     stroke-width="2.5"
     id="polyline307" />
  <text
     fill="black"
     font-family="sans-serif"
     font-size="28"
     x="207.117249995"
     y="382.0"
     id="text309"
     style="fill:#008000;">ISA.70X70X8</text>
  <text
     fill="black"
     font-family="sans-serif"
     font-size="28"
     x="207.117249995"
     y="418.0"
     id="text311" />
  <text
     fill="black"
     font-family="sans-serif"
     font-size="30"
     x="50"
     y="600"
     id="text313">Front view (Sec C-C)</text>
  <text
     fill="black"
     font-family="sans-serif"
     font-size="30"
     x="400"
     y="600"
     id="text315">(All distances are in &quot;mm&quot;)</text>
</svg>
