<?xml version="1.0" encoding="utf-8" ?>
<svg baseProfile="full" height="100%" version="1.1" viewBox="-500 -350 1500 1300" width="100%" xmlns="http://www.w3.org/2000/svg" xmlns:ev="http://www.w3.org/2001/xml-events" xmlns:xlink="http://www.w3.org/1999/xlink"><defs><marker id="id82" markerHeight="10" markerWidth="10" orient="auto" refX="0" refY="5"><path d="M 0 0 L 10 5 L 0 10 z" fill="blue" stroke="black" /></marker><marker id="id83" markerHeight="10" markerWidth="10" orient="auto" refX="0" refY="5"><path d="M 0 0 L 10 5 L 0 10 z" fill="blue" stroke="black" /></marker><marker id="id84" markerHeight="30" markerWidth="30" orient="auto" refX="8" refY="3"><path d=" M0,0 L3,3 L0,6 L8,3 L0,0" fill="black" /></marker><marker id="id85" markerHeight="20" markerWidth="30" orient="auto" refX="0" refY="3"><path d=" M0,3 L8,6 L5,3 L8,0 L0,3" fill="black" /></marker><marker id="id86" markerHeight="30" markerWidth="30" orient="auto" refX="8" refY="3"><path d=" M0,0 L3,3 L0,6 L8,3 L0,0" fill="black" /></marker><marker id="id87" markerHeight="20" markerWidth="30" orient="auto" refX="0" refY="3"><path d=" M0,3 L8,6 L5,3 L8,0 L0,3" fill="black" /></marker><marker id="id88" markerHeight="30" markerWidth="30" orient="auto" refX="8" refY="3"><path d=" M0,0 L3,3 L0,6 L8,3 L0,0" fill="black" /></marker><marker id="id89" markerHeight="20" markerWidth="30" orient="auto" refX="0" refY="3"><path d=" M0,3 L8,6 L5,3 L8,0 L0,3" fill="black" /></marker><marker id="id90" markerHeight="30" markerWidth="30" orient="auto" refX="8" refY="3"><path d=" M0,0 L3,3 L0,6 L8,3 L0,0" fill="black" /></marker><marker id="id91" markerHeight="20" markerWidth="30" orient="auto" refX="0" refY="3"><path d=" M0,3 L8,6 L5,3 L8,0 L0,3" fill="black" /></marker><marker id="id92" markerHeight="30" markerWidth="30" orient="auto" refX="8" refY="3"><path d=" M0,0 L3,3 L0,6 L8,3 L0,0" fill="black" /></marker><marker id="id93" markerHeight="20" markerWidth="30" orient="auto" refX="0" refY="3"><path d=" M0,3 L8,6 L5,3 L8,0 L0,3" fill="black" /></marker><marker id="id94" markerHeight="30" markerWidth="30" orient="auto" refX="8" refY="3"><path d=" M0,0 L3,3 L0,6 L8,3 L0,0" fill="black" /></marker><marker id="id95" markerHeight="20" markerWidth="30" orient="auto" refX="0" refY="3"><path d=" M0,3 L8,6 L5,3 L8,0 L0,3" fill="black" /></marker><marker id="id96" markerHeight="30" markerWidth="30" orient="auto" refX="8" refY="3"><path d=" M0,0 L3,3 L0,6 L8,3 L0,0" fill="black" /></marker><marker id="id97" markerHeight="20" markerWidth="30" orient="auto" refX="0" refY="3"><path d=" M0,3 L8,6 L5,3 L8,0 L0,3" fill="black" /></marker><marker id="id98" markerHeight="30" markerWidth="30" orient="auto" refX="8" refY="3"><path d=" M0,0 L3,3 L0,6 L8,3 L0,0" fill="black" /></marker><marker id="id99" markerHeight="20" markerWidth="30" orient="auto" refX="0" refY="3"><path d=" M0,3 L8,6 L5,3 L8,0 L0,3" fill="black" /></marker><marker id="id100" markerHeight="30" markerWidth="30" orient="auto" refX="8" refY="3"><path d=" M0,0 L3,3 L0,6 L8,3 L0,0" fill="black" /></marker><marker id="id101" markerHeight="20" markerWidth="30" orient="auto" refX="0" refY="3"><path d=" M0,3 L8,6 L5,3 L8,0 L0,3" fill="black" /></marker><marker id="id102" markerHeight="30" markerWidth="30" orient="auto" refX="8" refY="3"><path d=" M0,0 L3,3 L0,6 L8,3 L0,0" fill="black" /></marker><marker id="id103" markerHeight="20" markerWidth="30" orient="auto" refX="0" refY="3"><path d=" M0,3 L8,6 L5,3 L8,0 L0,3" fill="black" /></marker><marker id="id104" markerHeight="20" markerWidth="30" orient="auto" refX="0" refY="3"><path d=" M0,3 L8,6 L5,3 L8,0 L0,3" fill="black" /></marker><marker id="id105" markerHeight="20" markerWidth="30" orient="auto" refX="0" refY="3"><path d=" M0,3 L8,6 L5,3 L8,0 L0,3" fill="black" /></marker><marker id="id106" markerHeight="20" markerWidth="30" orient="auto" refX="0" refY="3"><path d=" M0,3 L8,6 L5,3 L8,0 L0,3" fill="black" /></marker><marker id="id107" markerHeight="20" markerWidth="30" orient="auto" refX="0" refY="3"><path d=" M0,3 L8,6 L5,3 L8,0 L0,3" fill="black" /></marker><marker id="id108" markerHeight="20" markerWidth="30" orient="auto" refX="0" refY="3"><path d=" M0,3 L8,6 L5,3 L8,0 L0,3" fill="black" /></marker></defs><line marker-end="url(#id82)" stroke="black" stroke-linecap="square" stroke-width="2.5" x1="0" x2="0" y1="-320" y2="-270" /><text fill="black" font-family="sans-serif" font-size="52" x="-10" y="-190">A</text><line marker-end="url(#id83)" stroke="black" stroke-linecap="square" stroke-width="2.5" x1="449.7" x2="449.7" y1="-320.0" y2="-270.0" /><text fill="black" font-family="sans-serif" font-size="52" x="439.7" y="-190.0">A</text><line stroke="#666666" stroke-linecap="square" stroke-width="1.0" x1="0" x2="449.7" y1="-320" y2="-320.0" /><polyline fill="none" points="0,0 150,0 150.0,17.4 79.7,17.4 79.7,432.6 150.0,432.6 150.0,450.0 0.0,450.0 0.0,432.6 70.3,432.6 70.3,17.4 0.0,17.4 0,0" stroke="blue" stroke-width="2.5" /><polyline fill="none" points="160.0,17.4 160,0 449.7,0.0 449.7,300.0 99.7,300.0 99.7,286.9 99.7,228.4" stroke="blue" stroke-width="2.5" /><line stroke="red" stroke-dasharray="5 5" stroke-linecap="square" stroke-width="2.5" x1="99.7" x2="99.7" y1="32.4" y2="228.4" /><line stroke="blue" stroke-linecap="square" stroke-width="2.5" x1="160.0" x2="449.7" y1="13.1" y2="13.1" /><line stroke="blue" stroke-linecap="square" stroke-width="2.5" x1="99.7" x2="449.7" y1="286.9" y2="286.9" /><rect fill="none" height="196" stroke="blue" stroke-width="2.5" width="8" x="79.7" y="32.4" /><rect fill="none" height="196" stroke="blue" stroke-width="2.5" width="92" x="87.7" y="32.4" /><path d="M 160.0 17.4 A 15.0 15.0 , 0 , 0 , 1 , 145.0 32.4" fill="none" stroke="blue" stroke-width="2.5" /><circle cx="161.7" cy="50.4" fill="none" r="4" stroke="blue" stroke-width="1.5" /><line stroke="red" stroke-linecap="square" stroke-width="2.0" x1="153.7" x2="169.7" y1="50.4" y2="50.4" /><line stroke="red" stroke-linecap="square" stroke-width="2.0" x1="161.7" x2="161.7" y1="42.4" y2="58.4" /><circle cx="141.7" cy="50.4" fill="none" r="4" stroke="blue" stroke-width="1.5" /><line stroke="red" stroke-linecap="square" stroke-width="2.0" x1="133.7" x2="149.7" y1="50.4" y2="50.4" /><line stroke="red" stroke-linecap="square" stroke-width="2.0" x1="141.7" x2="141.7" y1="42.4" y2="58.4" /><circle cx="161.7" cy="70.4" fill="none" r="4" stroke="blue" stroke-width="1.5" /><line stroke="red" stroke-linecap="square" stroke-width="2.0" x1="153.7" x2="169.7" y1="70.4" y2="70.4" /><line stroke="red" stroke-linecap="square" stroke-width="2.0" x1="161.7" x2="161.7" y1="62.4" y2="78.4" /><circle cx="141.7" cy="70.4" fill="none" r="4" stroke="blue" stroke-width="1.5" /><line stroke="red" stroke-linecap="square" stroke-width="2.0" x1="133.7" x2="149.7" y1="70.4" y2="70.4" /><line stroke="red" stroke-linecap="square" stroke-width="2.0" x1="141.7" x2="141.7" y1="62.4" y2="78.4" /><circle cx="161.7" cy="90.4" fill="none" r="4" stroke="blue" stroke-width="1.5" /><line stroke="red" stroke-linecap="square" stroke-width="2.0" x1="153.7" x2="169.7" y1="90.4" y2="90.4" /><line stroke="red" stroke-linecap="square" stroke-width="2.0" x1="161.7" x2="161.7" y1="82.4" y2="98.4" /><circle cx="141.7" cy="90.4" fill="none" r="4" stroke="blue" stroke-width="1.5" /><line stroke="red" stroke-linecap="square" stroke-width="2.0" x1="133.7" x2="149.7" y1="90.4" y2="90.4" /><line stroke="red" stroke-linecap="square" stroke-width="2.0" x1="141.7" x2="141.7" y1="82.4" y2="98.4" /><circle cx="161.7" cy="110.4" fill="none" r="4" stroke="blue" stroke-width="1.5" /><line stroke="red" stroke-linecap="square" stroke-width="2.0" x1="153.7" x2="169.7" y1="110.4" y2="110.4" /><line stroke="red" stroke-linecap="square" stroke-width="2.0" x1="161.7" x2="161.7" y1="102.4" y2="118.4" /><circle cx="141.7" cy="110.4" fill="none" r="4" stroke="blue" stroke-width="1.5" /><line stroke="red" stroke-linecap="square" stroke-width="2.0" x1="133.7" x2="149.7" y1="110.4" y2="110.4" /><line stroke="red" stroke-linecap="square" stroke-width="2.0" x1="141.7" x2="141.7" y1="102.4" y2="118.4" /><circle cx="161.7" cy="130.4" fill="none" r="4" stroke="blue" stroke-width="1.5" /><line stroke="red" stroke-linecap="square" stroke-width="2.0" x1="153.7" x2="169.7" y1="130.4" y2="130.4" /><line stroke="red" stroke-linecap="square" stroke-width="2.0" x1="161.7" x2="161.7" y1="122.4" y2="138.4" /><circle cx="141.7" cy="130.4" fill="none" r="4" stroke="blue" stroke-width="1.5" /><line stroke="red" stroke-linecap="square" stroke-width="2.0" x1="133.7" x2="149.7" y1="130.4" y2="130.4" /><line stroke="red" stroke-linecap="square" stroke-width="2.0" x1="141.7" x2="141.7" y1="122.4" y2="138.4" /><circle cx="161.7" cy="150.4" fill="none" r="4" stroke="blue" stroke-width="1.5" /><line stroke="red" stroke-linecap="square" stroke-width="2.0" x1="153.7" x2="169.7" y1="150.4" y2="150.4" /><line stroke="red" stroke-linecap="square" stroke-width="2.0" x1="161.7" x2="161.7" y1="142.4" y2="158.4" /><circle cx="141.7" cy="150.4" fill="none" r="4" stroke="blue" stroke-width="1.5" /><line stroke="red" stroke-linecap="square" stroke-width="2.0" x1="133.7" x2="149.7" y1="150.4" y2="150.4" /><line stroke="red" stroke-linecap="square" stroke-width="2.0" x1="141.7" x2="141.7" y1="142.4" y2="158.4" /><circle cx="161.7" cy="170.4" fill="none" r="4" stroke="blue" stroke-width="1.5" /><line stroke="red" stroke-linecap="square" stroke-width="2.0" x1="153.7" x2="169.7" y1="170.4" y2="170.4" /><line stroke="red" stroke-linecap="square" stroke-width="2.0" x1="161.7" x2="161.7" y1="162.4" y2="178.4" /><circle cx="141.7" cy="170.4" fill="none" r="4" stroke="blue" stroke-width="1.5" /><line stroke="red" stroke-linecap="square" stroke-width="2.0" x1="133.7" x2="149.7" y1="170.4" y2="170.4" /><line stroke="red" stroke-linecap="square" stroke-width="2.0" x1="141.7" x2="141.7" y1="162.4" y2="178.4" /><circle cx="161.7" cy="190.4" fill="none" r="4" stroke="blue" stroke-width="1.5" /><line stroke="red" stroke-linecap="square" stroke-width="2.0" x1="153.7" x2="169.7" y1="190.4" y2="190.4" /><line stroke="red" stroke-linecap="square" stroke-width="2.0" x1="161.7" x2="161.7" y1="182.4" y2="198.4" /><circle cx="141.7" cy="190.4" fill="none" r="4" stroke="blue" stroke-width="1.5" /><line stroke="red" stroke-linecap="square" stroke-width="2.0" x1="133.7" x2="149.7" y1="190.4" y2="190.4" /><line stroke="red" stroke-linecap="square" stroke-width="2.0" x1="141.7" x2="141.7" y1="182.4" y2="198.4" /><circle cx="161.7" cy="210.4" fill="none" r="4" stroke="blue" stroke-width="1.5" /><line stroke="red" stroke-linecap="square" stroke-width="2.0" x1="153.7" x2="169.7" y1="210.4" y2="210.4" /><line stroke="red" stroke-linecap="square" stroke-width="2.0" x1="161.7" x2="161.7" y1="202.4" y2="218.4" /><circle cx="141.7" cy="210.4" fill="none" r="4" stroke="blue" stroke-width="1.5" /><line stroke="red" stroke-linecap="square" stroke-width="2.0" x1="133.7" x2="149.7" y1="210.4" y2="210.4" /><line stroke="red" stroke-linecap="square" stroke-width="2.0" x1="141.7" x2="141.7" y1="202.4" y2="218.4" /><rect fill="black" height="8" stroke="black" stroke-width="2.0" width="17.4" x="70.3" y="46.4" /><line stroke="black" stroke-linecap="square" stroke-width="2.0" x1="60.3" x2="105.7" y1="50.4" y2="50.4" /><rect fill="black" height="8" stroke="black" stroke-width="2.0" width="17.4" x="70.3" y="66.4" /><line stroke="black" stroke-linecap="square" stroke-width="2.0" x1="60.3" x2="105.7" y1="70.4" y2="70.4" /><rect fill="black" height="8" stroke="black" stroke-width="2.0" width="17.4" x="70.3" y="86.4" /><line stroke="black" stroke-linecap="square" stroke-width="2.0" x1="60.3" x2="105.7" y1="90.4" y2="90.4" /><rect fill="black" height="8" stroke="black" stroke-width="2.0" width="17.4" x="70.3" y="106.4" /><line stroke="black" stroke-linecap="square" stroke-width="2.0" x1="60.3" x2="105.7" y1="110.4" y2="110.4" /><rect fill="black" height="8" stroke="black" stroke-width="2.0" width="17.4" x="70.3" y="126.4" /><line stroke="black" stroke-linecap="square" stroke-width="2.0" x1="60.3" x2="105.7" y1="130.4" y2="130.4" /><rect fill="black" height="8" stroke="black" stroke-width="2.0" width="17.4" x="70.3" y="146.4" /><line stroke="black" stroke-linecap="square" stroke-width="2.0" x1="60.3" x2="105.7" y1="150.4" y2="150.4" /><rect fill="black" height="8" stroke="black" stroke-width="2.0" width="17.4" x="70.3" y="166.4" /><line stroke="black" stroke-linecap="square" stroke-width="2.0" x1="60.3" x2="105.7" y1="170.4" y2="170.4" /><rect fill="black" height="8" stroke="black" stroke-width="2.0" width="17.4" x="70.3" y="186.4" /><line stroke="black" stroke-linecap="square" stroke-width="2.0" x1="60.3" x2="105.7" y1="190.4" y2="190.4" /><rect fill="black" height="8" stroke="black" stroke-width="2.0" width="17.4" x="70.3" y="206.4" /><line stroke="black" stroke-linecap="square" stroke-width="2.0" x1="60.3" x2="105.7" y1="210.4" y2="210.4" /><line stroke="#D8D8D8" stroke-linecap="square" stroke-opacity="0.7" stroke-width="2.5" x1="179.7" x2="659.7" y1="32.4" y2="32.4" /><line stroke="#D8D8D8" stroke-linecap="square" stroke-opacity="0.7" stroke-width="2.5" x1="179.7" x2="659.7" y1="228.4" y2="228.4" /><line marker-end="url(#id84)" marker-start="url(#id85)" stroke="black" stroke-linecap="square" stroke-width="2.5" x1="529.7" x2="529.7" y1="32.4" y2="228.4" /><text fill="black" font-family="sans-serif" font-size="28" x="539.7" y="130.4">196</text><line stroke="black" stroke-linecap="square" stroke-opacity="1.0" stroke-width="2.5" x1="539.7" x2="519.7" y1="32.4" y2="32.4" /><line stroke="black" stroke-linecap="square" stroke-opacity="1.0" stroke-width="2.5" x1="539.7" x2="519.7" y1="228.4" y2="228.4" /><line stroke="#D8D8D8" stroke-linecap="square" stroke-opacity="0.7" stroke-width="2.5" x1="161.7" x2="661.7" y1="50.4" y2="50.4" /><line stroke="#D8D8D8" stroke-linecap="square" stroke-opacity="0.7" stroke-width="2.5" x1="161.7" x2="661.7" y1="210.4" y2="210.4" /><line marker-end="url(#id86)" marker-start="url(#id87)" stroke="black" stroke-linecap="square" stroke-width="2.5" x1="661.7" x2="661.7" y1="50.4" y2="210.4" /><text fill="black" font-family="sans-serif" font-size="28" x="671.7" y="130.4">8@20 c/c</text><line stroke="black" stroke-linecap="square" stroke-opacity="1.0" stroke-width="2.5" x1="671.7" x2="651.7" y1="50.4" y2="50.4" /><line stroke="black" stroke-linecap="square" stroke-opacity="1.0" stroke-width="2.5" x1="671.7" x2="651.7" y1="210.4" y2="210.4" /><line marker-end="url(#id88)" marker-start="url(#id89)" stroke="black" stroke-linecap="square" stroke-width="2.5" x1="661.7" x2="661.7" y1="50.4" y2="32.4" /><text fill="black" font-family="sans-serif" font-size="28" x="671.7" y="41.4">18</text><line stroke="black" stroke-linecap="square" stroke-opacity="1.0" stroke-width="2.5" x1="671.7" x2="651.7" y1="50.4" y2="50.4" /><line stroke="black" stroke-linecap="square" stroke-opacity="1.0" stroke-width="2.5" x1="671.7" x2="651.7" y1="32.4" y2="32.4" /><line marker-end="url(#id90)" marker-start="url(#id91)" stroke="black" stroke-linecap="square" stroke-width="2.5" x1="661.7" x2="661.7" y1="210.4" y2="228.4" /><text fill="black" font-family="sans-serif" font-size="28" x="671.7" y="219.4">18</text><line stroke="black" stroke-linecap="square" stroke-opacity="1.0" stroke-width="2.5" x1="671.7" x2="651.7" y1="210.4" y2="210.4" /><line stroke="black" stroke-linecap="square" stroke-opacity="1.0" stroke-width="2.5" x1="671.7" x2="651.7" y1="228.4" y2="228.4" /><line stroke="#D8D8D8" stroke-linecap="square" stroke-opacity="0.7" stroke-width="2.5" x1="141.7" x2="141.7" y1="32.4" y2="-100.0" /><line marker-end="url(#id92)" marker-start="url(#id93)" stroke="black" stroke-linecap="square" stroke-width="2.5" x1="161.7" x2="141.7" y1="-100.0" y2="-100.0" /><text fill="black" font-family="sans-serif" font-size="28" x="151.7" y="-120.0">20</text><line stroke="black" stroke-linecap="square" stroke-opacity="1.0" stroke-width="2.5" x1="161.7" x2="161.7" y1="-110.0" y2="-90.0" /><line stroke="black" stroke-linecap="square" stroke-opacity="1.0" stroke-width="2.5" x1="141.7" x2="141.7" y1="-110.0" y2="-90.0" /><line stroke="#D8D8D8" stroke-linecap="square" stroke-opacity="0.7" stroke-width="2.5" x1="161.7" x2="161.7" y1="32.4" y2="-180.0" /><line stroke="#D8D8D8" stroke-linecap="square" stroke-opacity="0.7" stroke-width="2.5" x1="179.7" x2="179.7" y1="32.4" y2="-180.0" /><line marker-end="url(#id94)" marker-start="url(#id95)" stroke="black" stroke-linecap="square" stroke-width="2.5" x1="179.7" x2="161.7" y1="-180.0" y2="-180.0" /><text fill="black" font-family="sans-serif" font-size="28" x="170.7" y="-200.0">18</text><line stroke="black" stroke-linecap="square" stroke-opacity="1.0" stroke-width="2.5" x1="179.7" x2="179.7" y1="-190.0" y2="-170.0" /><line stroke="black" stroke-linecap="square" stroke-opacity="1.0" stroke-width="2.5" x1="161.7" x2="161.7" y1="-190.0" y2="-170.0" /><line stroke="#D8D8D8" stroke-linecap="square" stroke-opacity="0.7" stroke-width="2.5" x1="0" x2="-30" y1="0" y2="0" /><line stroke="#D8D8D8" stroke-linecap="square" stroke-opacity="0.7" stroke-width="2.5" x1="99.7" x2="-30.0" y1="32.4" y2="32.4" /><line marker-end="url(#id96)" marker-start="url(#id97)" stroke="black" stroke-linecap="square" stroke-width="2.5" x1="-30.0" x2="-30.0" y1="0.0" y2="32.4" /><text fill="black" font-family="sans-serif" font-size="28" x="-80.0" y="16.2">32</text><line stroke="black" stroke-linecap="square" stroke-opacity="1.0" stroke-width="2.5" x1="-40.0" x2="-20.0" y1="0.0" y2="0.0" /><line stroke="black" stroke-linecap="square" stroke-opacity="1.0" stroke-width="2.5" x1="-40.0" x2="-20.0" y1="32.4" y2="32.4" /><line stroke="#D8D8D8" stroke-linecap="square" stroke-opacity="0.7" stroke-width="2.5" x1="79.7" x2="-24.15" y1="32.4" y2="32.4" /><line stroke="#D8D8D8" stroke-linecap="square" stroke-opacity="0.7" stroke-width="2.5" x1="70.3" x2="-25.85" y1="50.4" y2="50.4" /><line marker-end="url(#id98)" marker-start="url(#id99)" stroke="black" stroke-linecap="square" stroke-width="2.5" x1="-25.85" x2="-25.85" y1="32.4" y2="50.4" /><text fill="black" font-family="sans-serif" font-size="28" x="-75.85" y="41.4">18</text><line stroke="black" stroke-linecap="square" stroke-opacity="1.0" stroke-width="2.5" x1="-35.85" x2="-15.85" y1="32.4" y2="32.4" /><line stroke="black" stroke-linecap="square" stroke-opacity="1.0" stroke-width="2.5" x1="-35.85" x2="-15.85" y1="50.4" y2="50.4" /><line stroke="#D8D8D8" stroke-linecap="square" stroke-opacity="0.7" stroke-width="2.5" x1="70.3" x2="-25.85" y1="210.4" y2="210.4" /><line marker-end="url(#id100)" marker-start="url(#id101)" stroke="black" stroke-linecap="square" stroke-width="2.5" x1="-25.85" x2="-25.85" y1="50.4" y2="210.4" /><text fill="black" font-family="sans-serif" font-size="28" x="-175.85" y="130.4">8@20 c/c</text><line stroke="black" stroke-linecap="square" stroke-opacity="1.0" stroke-width="2.5" x1="-35.85" x2="-15.85" y1="50.4" y2="50.4" /><line stroke="black" stroke-linecap="square" stroke-opacity="1.0" stroke-width="2.5" x1="-35.85" x2="-15.85" y1="210.4" y2="210.4" /><line stroke="#D8D8D8" stroke-linecap="square" stroke-opacity="0.7" stroke-width="2.5" x1="79.7" x2="-24.15" y1="228.4" y2="228.4" /><line marker-end="url(#id102)" marker-start="url(#id103)" stroke="black" stroke-linecap="square" stroke-width="2.5" x1="-25.85" x2="-25.85" y1="228.4" y2="210.4" /><text fill="black" font-family="sans-serif" font-size="28" x="-75.85" y="219.4">18</text><line stroke="black" stroke-linecap="square" stroke-opacity="1.0" stroke-width="2.5" x1="-35.85" x2="-15.85" y1="228.4" y2="228.4" /><line stroke="black" stroke-linecap="square" stroke-opacity="1.0" stroke-width="2.5" x1="-35.85" x2="-15.85" y1="210.4" y2="210.4" /><polyline fill="none" marker-start="url(#id104)" points="449.7,300.0 536.302540378,350.0 744.302540378,350.0" stroke="black" stroke-width="2.5" /><text fill="black" font-family="sans-serif" font-size="28" x="557.102540378" y="332.0">Beam ISMB 300</text><text fill="black" font-family="sans-serif" font-size="28" x="557.102540378" y="368.0" /><polyline fill="none" marker-start="url(#id105)" points="0,0 -100.0,-100.0 -308.0,-100.0" stroke="black" stroke-width="2.5" /><text fill="black" font-family="sans-serif" font-size="28" x="-287.2" y="-118.0">Beam ISMB 450</text><text fill="black" font-family="sans-serif" font-size="28" x="-328.8" y="-82.0" /><polyline fill="none" marker-start="url(#id106)" points="161.7,50.4 348.7,-136.6 700.7,-136.6" stroke="black" stroke-width="2.5" /><text fill="black" font-family="sans-serif" font-size="28" x="383.9" y="-154.6">18 nos 8Ø holes</text><text fill="black" font-family="sans-serif" font-size="28" x="383.9" y="-103.6">for M8bolts(grade 4.8)</text><polyline fill="none" marker-start="url(#id107)" points="70.3,210.4 24.1119784648,290.4 -327.888021535,290.4" stroke="black" stroke-width="2.5" /><text fill="black" font-family="sans-serif" font-size="28" x="-292.688021535" y="272.4">36 nos 8Ø holes</text><text fill="black" font-family="sans-serif" font-size="28" x="-363.088021535" y="308.4">for M8bolts(grade 4.8)</text><polyline fill="none" marker-start="url(#id108)" points="179.7,228.4 225.680081421,400.0 433.680081421,400.0" stroke="black" stroke-width="2.5" /><text fill="black" font-family="sans-serif" font-size="28" x="246.480081421" y="382.0">ISA.100X100X8</text><text fill="black" font-family="sans-serif" font-size="28" x="246.480081421" y="418.0" /><text fill="black" font-family="sans-serif" font-size="30" x="50" y="600">Front view (Sec C-C)</text><text fill="black" font-family="sans-serif" font-size="30" x="400" y="600">(All distances are in "mm")</text></svg>