<?xml version="1.0" encoding="utf-8" ?>
<svg baseProfile="full" height="100%" version="1.1" viewBox="-500 -400 1500 1400" width="100%" xmlns="http://www.w3.org/2000/svg" xmlns:ev="http://www.w3.org/2001/xml-events" xmlns:xlink="http://www.w3.org/1999/xlink"><defs><marker id="id238" markerHeight="30" markerWidth="30" orient="auto" refX="8" refY="3"><path d=" M0,0 L3,3 L0,6 L8,3 L0,0" fill="black" /></marker><marker id="id239" markerHeight="20" markerWidth="30" orient="auto" refX="0" refY="3"><path d=" M0,3 L8,6 L5,3 L8,0 L0,3" fill="black" /></marker><marker id="id240" markerHeight="30" markerWidth="30" orient="auto" refX="8" refY="3"><path d=" M0,0 L3,3 L0,6 L8,3 L0,0" fill="black" /></marker><marker id="id241" markerHeight="20" markerWidth="30" orient="auto" refX="0" refY="3"><path d=" M0,3 L8,6 L5,3 L8,0 L0,3" fill="black" /></marker><marker id="id242" markerHeight="30" markerWidth="30" orient="auto" refX="8" refY="3"><path d=" M0,0 L3,3 L0,6 L8,3 L0,0" fill="black" /></marker><marker id="id243" markerHeight="20" markerWidth="30" orient="auto" refX="0" refY="3"><path d=" M0,3 L8,6 L5,3 L8,0 L0,3" fill="black" /></marker><marker id="id244" markerHeight="30" markerWidth="30" orient="auto" refX="8" refY="3"><path d=" M0,0 L3,3 L0,6 L8,3 L0,0" fill="black" /></marker><marker id="id245" markerHeight="20" markerWidth="30" orient="auto" refX="0" refY="3"><path d=" M0,3 L8,6 L5,3 L8,0 L0,3" fill="black" /></marker><marker id="id246" markerHeight="30" markerWidth="30" orient="auto" refX="8" refY="3"><path d=" M0,0 L3,3 L0,6 L8,3 L0,0" fill="black" /></marker><marker id="id247" markerHeight="20" markerWidth="30" orient="auto" refX="0" refY="3"><path d=" M0,3 L8,6 L5,3 L8,0 L0,3" fill="black" /></marker><marker id="id248" markerHeight="30" markerWidth="30" orient="auto" refX="8" refY="3"><path d=" M0,0 L3,3 L0,6 L8,3 L0,0" fill="black" /></marker><marker id="id249" markerHeight="20" markerWidth="30" orient="auto" refX="0" refY="3"><path d=" M0,3 L8,6 L5,3 L8,0 L0,3" fill="black" /></marker><marker id="id250" markerHeight="30" markerWidth="30" orient="auto" refX="8" refY="3"><path d=" M0,0 L3,3 L0,6 L8,3 L0,0" fill="black" /></marker><marker id="id251" markerHeight="20" markerWidth="30" orient="auto" refX="0" refY="3"><path d=" M0,3 L8,6 L5,3 L8,0 L0,3" fill="black" /></marker><marker id="id252" markerHeight="30" markerWidth="30" orient="auto" refX="8" refY="3"><path d=" M0,0 L3,3 L0,6 L8,3 L0,0" fill="black" /></marker><marker id="id253" markerHeight="20" markerWidth="30" orient="auto" refX="0" refY="3"><path d=" M0,3 L8,6 L5,3 L8,0 L0,3" fill="black" /></marker><marker id="id254" markerHeight="30" markerWidth="30" orient="auto" refX="8" refY="3"><path d=" M0,0 L3,3 L0,6 L8,3 L0,0" fill="black" /></marker><marker id="id255" markerHeight="20" markerWidth="30" orient="auto" refX="0" refY="3"><path d=" M0,3 L8,6 L5,3 L8,0 L0,3" fill="black" /></marker><marker id="id256" markerHeight="30" markerWidth="30" orient="auto" refX="8" refY="3"><path d=" M0,0 L3,3 L0,6 L8,3 L0,0" fill="black" /></marker><marker id="id257" markerHeight="20" markerWidth="30" orient="auto" refX="0" refY="3"><path d=" M0,3 L8,6 L5,3 L8,0 L0,3" fill="black" /></marker><marker id="id258" markerHeight="30" markerWidth="30" orient="auto" refX="8" refY="3"><path d=" M0,0 L3,3 L0,6 L8,3 L0,0" fill="black" /></marker><marker id="id259" markerHeight="20" markerWidth="30" orient="auto" refX="0" refY="3"><path d=" M0,3 L8,6 L5,3 L8,0 L0,3" fill="black" /></marker><marker id="id260" markerHeight="20" markerWidth="30" orient="auto" refX="0" refY="3"><path d=" M0,3 L8,6 L5,3 L8,0 L0,3" fill="black" /></marker><marker id="id261" markerHeight="20" markerWidth="30" orient="auto" refX="0" refY="3"><path d=" M0,3 L8,6 L5,3 L8,0 L0,3" fill="black" /></marker><marker id="id262" markerHeight="20" markerWidth="30" orient="auto" refX="0" refY="3"><path d=" M0,3 L8,6 L5,3 L8,0 L0,3" fill="black" /></marker><marker id="id263" markerHeight="20" markerWidth="30" orient="auto" refX="0" refY="3"><path d=" M0,3 L8,6 L5,3 L8,0 L0,3" fill="black" /></marker><marker id="id264" markerHeight="20" markerWidth="30" orient="auto" refX="0" refY="3"><path d=" M0,3 L8,6 L5,3 L8,0 L0,3" fill="black" /></marker></defs><polyline fill="none" points="0,0 340,0 340.0,450.0 0.0,450.0 0,0" stroke="blue" stroke-width="2.5" /><line stroke="blue" stroke-linecap="square" stroke-width="2.5" x1="0.0" x2="340.0" y1="432.6" y2="432.6" /><line stroke="blue" stroke-linecap="square" stroke-width="2.5" x1="0.0" x2="166.15" y1="17.4" y2="17.4" /><line stroke="blue" stroke-linecap="square" stroke-width="2.5" x1="173.85" x2="340.0" y1="17.4" y2="17.4" /><line stroke="red" stroke-dasharray="5 5" stroke-linecap="square" stroke-width="2.5" x1="166.15" x2="173.85" y1="17.4" y2="17.4" /><polyline fill="none" points="240,0 240.0,13.1 173.85,13.1 173.85,286.9 240.0,286.9 240.0,300.0 100.0,300.0 100.0,286.9 166.15,286.9 166.15,13.1 100.0,13.1 100,0" stroke="blue" stroke-width="2.5" /><rect fill="none" height="200" stroke="blue" stroke-width="2.5" width="8" x="173.85" y="32.4" /><rect fill="none" height="200" stroke="blue" stroke-width="2.5" width="92" x="181.85" y="32.4" /><rect fill="none" height="200" stroke="blue" stroke-width="2.5" width="8" x="158.15" y="32.4" /><rect fill="none" height="200" stroke="blue" stroke-width="2.5" width="92" x="66.15" y="32.4" /><rect fill="black" height="20" stroke="none" stroke-width="2.5" width="23.7" x="158.15" y="59.4" /><line stroke="black" stroke-linecap="square" stroke-width="1.5" x1="153.15" x2="186.85" y1="69.4" y2="69.4" /><rect fill="black" height="20" stroke="none" stroke-width="2.5" width="23.7" x="158.15" y="122.4" /><line stroke="black" stroke-linecap="square" stroke-width="1.5" x1="153.15" x2="186.85" y1="132.4" y2="132.4" /><rect fill="black" height="20" stroke="none" stroke-width="2.5" width="23.7" x="158.15" y="185.4" /><line stroke="black" stroke-linecap="square" stroke-width="1.5" x1="153.15" x2="186.85" y1="195.4" y2="195.4" /><circle cx="103.15" cy="69.4" fill="none" r="10" stroke="blue" stroke-width="1.5" /><line stroke="red" stroke-dasharray="10 5 1 5" stroke-linecap="square" stroke-width="1.5" x1="117.15" x2="89.15" y1="69.4" y2="69.4" /><line stroke="red" stroke-dasharray="10 5 1 5" stroke-linecap="square" stroke-width="1.5" x1="103.15" x2="103.15" y1="83.4" y2="55.4" /><circle cx="236.85" cy="69.4" fill="none" r="10" stroke="blue" stroke-width="1.5" /><line stroke="red" stroke-dasharray="10 5 1 5" stroke-linecap="square" stroke-width="1.5" x1="250.85" x2="222.85" y1="69.4" y2="69.4" /><line stroke="red" stroke-dasharray="10 5 1 5" stroke-linecap="square" stroke-width="1.5" x1="236.85" x2="236.85" y1="83.4" y2="55.4" /><circle cx="103.15" cy="132.4" fill="none" r="10" stroke="blue" stroke-width="1.5" /><line stroke="red" stroke-dasharray="10 5 1 5" stroke-linecap="square" stroke-width="1.5" x1="117.15" x2="89.15" y1="132.4" y2="132.4" /><line stroke="red" stroke-dasharray="10 5 1 5" stroke-linecap="square" stroke-width="1.5" x1="103.15" x2="103.15" y1="146.4" y2="118.4" /><circle cx="236.85" cy="132.4" fill="none" r="10" stroke="blue" stroke-width="1.5" /><line stroke="red" stroke-dasharray="10 5 1 5" stroke-linecap="square" stroke-width="1.5" x1="250.85" x2="222.85" y1="132.4" y2="132.4" /><line stroke="red" stroke-dasharray="10 5 1 5" stroke-linecap="square" stroke-width="1.5" x1="236.85" x2="236.85" y1="146.4" y2="118.4" /><circle cx="103.15" cy="195.4" fill="none" r="10" stroke="blue" stroke-width="1.5" /><line stroke="red" stroke-dasharray="10 5 1 5" stroke-linecap="square" stroke-width="1.5" x1="117.15" x2="89.15" y1="195.4" y2="195.4" /><line stroke="red" stroke-dasharray="10 5 1 5" stroke-linecap="square" stroke-width="1.5" x1="103.15" x2="103.15" y1="209.4" y2="181.4" /><circle cx="236.85" cy="195.4" fill="none" r="10" stroke="blue" stroke-width="1.5" /><line stroke="red" stroke-dasharray="10 5 1 5" stroke-linecap="square" stroke-width="1.5" x1="250.85" x2="222.85" y1="195.4" y2="195.4" /><line stroke="red" stroke-dasharray="10 5 1 5" stroke-linecap="square" stroke-width="1.5" x1="236.85" x2="236.85" y1="209.4" y2="181.4" /><line stroke="#D8D8D8" stroke-linecap="square" stroke-opacity="0.7" stroke-width="2.5" x1="273.85" x2="540.0" y1="32.4" y2="32.4" /><line stroke="#D8D8D8" stroke-linecap="square" stroke-opacity="0.7" stroke-width="2.5" x1="273.85" x2="540.0" y1="232.4" y2="232.4" /><line stroke="#D8D8D8" stroke-linecap="square" stroke-opacity="0.7" stroke-width="2.5" x1="236.85" x2="540.0" y1="69.4" y2="69.4" /><line stroke="#D8D8D8" stroke-linecap="square" stroke-opacity="0.7" stroke-width="2.5" x1="236.85" x2="540.0" y1="195.4" y2="195.4" /><line marker-end="url(#id238)" marker-start="url(#id239)" stroke="black" stroke-linecap="square" stroke-width="2.5" x1="360.0" x2="360.0" y1="32.4" y2="232.4" /><text fill="black" font-family="sans-serif" font-size="28" x="375.0" y="132.4">200</text><line stroke="black" stroke-linecap="square" stroke-opacity="1.0" stroke-width="2.5" x1="370.0" x2="350.0" y1="32.4" y2="32.4" /><line stroke="black" stroke-linecap="square" stroke-opacity="1.0" stroke-width="2.5" x1="370.0" x2="350.0" y1="232.4" y2="232.4" /><line marker-end="url(#id240)" marker-start="url(#id241)" stroke="black" stroke-linecap="square" stroke-width="2.5" x1="540.0" x2="540.0" y1="69.4" y2="195.4" /><text fill="black" font-family="sans-serif" font-size="28" x="560.0" y="132.4">2@63 c/c</text><line stroke="black" stroke-linecap="square" stroke-opacity="1.0" stroke-width="2.5" x1="550.0" x2="530.0" y1="69.4" y2="69.4" /><line stroke="black" stroke-linecap="square" stroke-opacity="1.0" stroke-width="2.5" x1="550.0" x2="530.0" y1="195.4" y2="195.4" /><line marker-end="url(#id242)" marker-start="url(#id243)" stroke="black" stroke-linecap="square" stroke-width="2.5" x1="540.0" x2="540.0" y1="69.4" y2="32.4" /><text fill="black" font-family="sans-serif" font-size="28" x="560.0" y="50.9">37</text><line stroke="black" stroke-linecap="square" stroke-opacity="1.0" stroke-width="2.5" x1="550.0" x2="530.0" y1="69.4" y2="69.4" /><line stroke="black" stroke-linecap="square" stroke-opacity="1.0" stroke-width="2.5" x1="550.0" x2="530.0" y1="32.4" y2="32.4" /><line marker-end="url(#id244)" marker-start="url(#id245)" stroke="black" stroke-linecap="square" stroke-width="2.5" x1="540.0" x2="540.0" y1="195.4" y2="232.4" /><text fill="black" font-family="sans-serif" font-size="28" x="560.0" y="213.9">37</text><line stroke="black" stroke-linecap="square" stroke-opacity="1.0" stroke-width="2.5" x1="550.0" x2="530.0" y1="195.4" y2="195.4" /><line stroke="black" stroke-linecap="square" stroke-opacity="1.0" stroke-width="2.5" x1="550.0" x2="530.0" y1="232.4" y2="232.4" /><line stroke="#D8D8D8" stroke-linecap="square" stroke-opacity="0.7" stroke-width="2.5" x1="340" x2="540" y1="0" y2="0" /><line marker-end="url(#id246)" marker-start="url(#id247)" stroke="black" stroke-linecap="square" stroke-width="2.5" x1="540.0" x2="540.0" y1="0.0" y2="32.4" /><text fill="black" font-family="sans-serif" font-size="28" x="560.0" y="16.2">32</text><line stroke="black" stroke-linecap="square" stroke-opacity="1.0" stroke-width="2.5" x1="550.0" x2="530.0" y1="0.0" y2="0.0" /><line stroke="black" stroke-linecap="square" stroke-opacity="1.0" stroke-width="2.5" x1="550.0" x2="530.0" y1="32.4" y2="32.4" /><line stroke="#D8D8D8" stroke-linecap="square" stroke-opacity="0.7" stroke-width="2.5" x1="66.15" x2="66.15" y1="232.4" y2="500.0" /><line stroke="#D8D8D8" stroke-linecap="square" stroke-opacity="0.7" stroke-width="2.5" x1="273.85" x2="273.85" y1="232.4" y2="500.0" /><line stroke="#D8D8D8" stroke-linecap="square" stroke-opacity="0.7" stroke-width="2.5" x1="236.85" x2="236.85" y1="195.4" y2="550.0" /><line stroke="#D8D8D8" stroke-linecap="square" stroke-opacity="0.7" stroke-width="2.5" x1="103.15" x2="103.15" y1="195.4" y2="550.0" /><line marker-end="url(#id248)" marker-start="url(#id249)" stroke="black" stroke-linecap="square" stroke-width="2.5" x1="66.15" x2="103.15" y1="500.0" y2="500.0" /><text fill="black" font-family="sans-serif" font-size="28" x="84.65" y="550.0">37</text><line stroke="black" stroke-linecap="square" stroke-opacity="1.0" stroke-width="2.5" x1="66.15" x2="66.15" y1="520.0" y2="480.0" /><line stroke="black" stroke-linecap="square" stroke-opacity="1.0" stroke-width="2.5" x1="103.15" x2="103.15" y1="520.0" y2="480.0" /><line marker-end="url(#id250)" marker-start="url(#id251)" stroke="black" stroke-linecap="square" stroke-width="2.5" x1="273.85" x2="236.85" y1="500.0" y2="500.0" /><text fill="black" font-family="sans-serif" font-size="28" x="255.35" y="550.0">37</text><line stroke="black" stroke-linecap="square" stroke-opacity="1.0" stroke-width="2.5" x1="273.85" x2="273.85" y1="520.0" y2="480.0" /><line stroke="black" stroke-linecap="square" stroke-opacity="1.0" stroke-width="2.5" x1="236.85" x2="236.85" y1="520.0" y2="480.0" /><line marker-end="url(#id252)" marker-start="url(#id253)" stroke="black" stroke-linecap="square" stroke-width="2.5" x1="103.15" x2="236.85" y1="600.0" y2="600.0" /><text fill="black" font-family="sans-serif" font-size="28" x="170.0" y="650.0">118</text><line stroke="black" stroke-linecap="square" stroke-opacity="1.0" stroke-width="2.5" x1="103.15" x2="103.15" y1="610.0" y2="590.0" /><line stroke="black" stroke-linecap="square" stroke-opacity="1.0" stroke-width="2.5" x1="236.85" x2="236.85" y1="610.0" y2="590.0" /><line stroke="#D8D8D8" stroke-linecap="square" stroke-opacity="0.7" stroke-width="2.5" x1="158.15" x2="-100.0" y1="32.4" y2="32.4" /><line stroke="#D8D8D8" stroke-linecap="square" stroke-opacity="0.7" stroke-width="2.5" x1="158.15" x2="-100.0" y1="232.4" y2="232.4" /><line stroke="#D8D8D8" stroke-linecap="square" stroke-opacity="0.7" stroke-width="2.5" x1="158.15" x2="-100.0" y1="69.4" y2="69.4" /><line stroke="#D8D8D8" stroke-linecap="square" stroke-opacity="0.7" stroke-width="2.5" x1="158.15" x2="-100.0" y1="195.4" y2="195.4" /><line marker-end="url(#id254)" marker-start="url(#id255)" stroke="black" stroke-linecap="square" stroke-width="2.5" x1="-100.0" x2="-100.0" y1="69.4" y2="195.4" /><text fill="black" font-family="sans-serif" font-size="28" x="-250.0" y="132.4">2@63 c/c</text><line stroke="black" stroke-linecap="square" stroke-opacity="1.0" stroke-width="2.5" x1="-110.0" x2="-90.0" y1="69.4" y2="69.4" /><line stroke="black" stroke-linecap="square" stroke-opacity="1.0" stroke-width="2.5" x1="-110.0" x2="-90.0" y1="195.4" y2="195.4" /><line marker-end="url(#id256)" marker-start="url(#id257)" stroke="black" stroke-linecap="square" stroke-width="2.5" x1="-100.0" x2="-100.0" y1="69.4" y2="32.4" /><text fill="black" font-family="sans-serif" font-size="28" x="-150.0" y="50.9">37</text><line stroke="black" stroke-linecap="square" stroke-opacity="1.0" stroke-width="2.5" x1="-110.0" x2="-90.0" y1="69.4" y2="69.4" /><line stroke="black" stroke-linecap="square" stroke-opacity="1.0" stroke-width="2.5" x1="-110.0" x2="-90.0" y1="32.4" y2="32.4" /><line marker-end="url(#id258)" marker-start="url(#id259)" stroke="black" stroke-linecap="square" stroke-width="2.5" x1="-100.0" x2="-100.0" y1="195.4" y2="232.4" /><text fill="black" font-family="sans-serif" font-size="28" x="-150.0" y="213.9">37</text><line stroke="black" stroke-linecap="square" stroke-opacity="1.0" stroke-width="2.5" x1="-110.0" x2="-90.0" y1="195.4" y2="195.4" /><line stroke="black" stroke-linecap="square" stroke-opacity="1.0" stroke-width="2.5" x1="-110.0" x2="-90.0" y1="232.4" y2="232.4" /><polyline fill="none" marker-start="url(#id260)" points="240.0,300.0 456.506350946,425.0 664.506350946,425.0" stroke="black" stroke-width="2.5" /><text fill="black" font-family="sans-serif" font-size="28" x="477.306350946" y="407.0">Beam ISMB 300</text><text fill="black" font-family="sans-serif" font-size="28" x="477.306350946" y="443.0" /><polyline fill="none" marker-start="url(#id261)" points="0,0 0.0,0.0 -208.0,0.0" stroke="black" stroke-width="2.5" /><text fill="black" font-family="sans-serif" font-size="28" x="-187.2" y="-18.0">Beam ISMB 450</text><text fill="black" font-family="sans-serif" font-size="28" x="-228.8" y="18.0" /><polyline fill="none" marker-start="url(#id262)" points="236.85,69.4 423.85,-117.6 791.85,-117.6" stroke="black" stroke-width="2.5" /><text fill="black" font-family="sans-serif" font-size="28" x="460.65" y="-135.6">6 nos 20Ø holes</text><text fill="black" font-family="sans-serif" font-size="28" x="460.65" y="-84.6">for M20bolts(grade 4.8)</text><polyline fill="none" marker-start="url(#id263)" points="158.15,69.4 78.0765484614,-150.6 -289.923451539,-150.6" stroke="black" stroke-width="2.5" /><text fill="black" font-family="sans-serif" font-size="28" x="-253.123451539" y="-168.6">3 nos 20Ø holes</text><text fill="black" font-family="sans-serif" font-size="28" x="-326.723451539" y="-132.6">for M20bolts(grade 4.8)</text><polyline fill="none" marker-start="url(#id264)" points="66.15,232.4 -172.482549124,370.174566474 -380.482549124,370.174566474" stroke="black" stroke-width="2.5" /><text fill="black" font-family="sans-serif" font-size="28" x="-359.682549124" y="352.174566474">ISA.100X100X8</text><text fill="black" font-family="sans-serif" font-size="28" x="-401.282549124" y="388.174566474" /><text fill="black" font-family="sans-serif" font-size="30" x="10" y="800">Side View (Sec B-B)</text><text fill="black" font-family="sans-serif" font-size="30" x="360" y="800">(All distances are in "mm")</text></svg>