<?xml version="1.0" encoding="UTF-8" standalone="no"?>
<svg
   xmlns:dc="http://purl.org/dc/elements/1.1/"
   xmlns:cc="http://creativecommons.org/ns#"
   xmlns:rdf="http://www.w3.org/1999/02/22-rdf-syntax-ns#"
   xmlns:svg="http://www.w3.org/2000/svg"
   xmlns="http://www.w3.org/2000/svg"
   xmlns:sodipodi="http://sodipodi.sourceforge.net/DTD/sodipodi-0.dtd"
   xmlns:inkscape="http://www.inkscape.org/namespaces/inkscape"
   height="100%"
   version="1.1"
   viewBox="-500 -350 1500 1300"
   width="100%"
   id="svg2"
   inkscape:version="0.91 r13725"
   sodipodi:docname="cleatFront.svg">
  <metadata
     id="metadata285">
    <rdf:RDF>
      <cc:Work
         rdf:about="">
        <dc:format>image/svg+xml</dc:format>
        <dc:type
           rdf:resource="http://purl.org/dc/dcmitype/StillImage" />
        <dc:title></dc:title>
      </cc:Work>
    </rdf:RDF>
  </metadata>
  <sodipodi:namedview
     pagecolor="#ffffff"
     bordercolor="#666666"
     borderopacity="1"
     objecttolerance="10"
     gridtolerance="10"
     guidetolerance="10"
     inkscape:pageopacity="0"
     inkscape:pageshadow="2"
     inkscape:window-width="1920"
     inkscape:window-height="1017"
     id="namedview283"
     showgrid="false"
     inkscape:zoom="0.51346831"
     inkscape:cx="666.13659"
     inkscape:cy="876.64382"
     inkscape:window-x="-8"
     inkscape:window-y="-8"
     inkscape:window-maximized="1"
     inkscape:current-layer="svg2" />
  <defs
     id="defs4">
    <marker
       id="id154"
       markerHeight="10"
       markerWidth="10"
       orient="auto"
       refX="0"
       refY="5">
      <path
         d="M 0 0 L 10 5 L 0 10 z"
         fill="blue"
         stroke="black"
         id="path7" />
    </marker>
    <marker
       id="id155"
       markerHeight="10"
       markerWidth="10"
       orient="auto"
       refX="0"
       refY="5">
      <path
         d="M 0 0 L 10 5 L 0 10 z"
         fill="blue"
         stroke="black"
         id="path10" />
    </marker>
    <marker
       id="id156"
       markerHeight="30"
       markerWidth="30"
       orient="auto"
       refX="8"
       refY="3">
      <path
         d=" M0,0 L3,3 L0,6 L8,3 L0,0"
         fill="black"
         id="path13" />
    </marker>
    <marker
       id="id157"
       markerHeight="20"
       markerWidth="30"
       orient="auto"
       refX="0"
       refY="3">
      <path
         d=" M0,3 L8,6 L5,3 L8,0 L0,3"
         fill="black"
         id="path16" />
    </marker>
    <marker
       id="id158"
       markerHeight="30"
       markerWidth="30"
       orient="auto"
       refX="8"
       refY="3">
      <path
         d=" M0,0 L3,3 L0,6 L8,3 L0,0"
         fill="black"
         id="path19" />
    </marker>
    <marker
       id="id159"
       markerHeight="20"
       markerWidth="30"
       orient="auto"
       refX="0"
       refY="3">
      <path
         d=" M0,3 L8,6 L5,3 L8,0 L0,3"
         fill="black"
         id="path22" />
    </marker>
    <marker
       id="id160"
       markerHeight="30"
       markerWidth="30"
       orient="auto"
       refX="8"
       refY="3">
      <path
         d=" M0,0 L3,3 L0,6 L8,3 L0,0"
         fill="black"
         id="path25" />
    </marker>
    <marker
       id="id161"
       markerHeight="20"
       markerWidth="30"
       orient="auto"
       refX="0"
       refY="3">
      <path
         d=" M0,3 L8,6 L5,3 L8,0 L0,3"
         fill="black"
         id="path28" />
    </marker>
    <marker
       id="id162"
       markerHeight="30"
       markerWidth="30"
       orient="auto"
       refX="8"
       refY="3">
      <path
         d=" M0,0 L3,3 L0,6 L8,3 L0,0"
         fill="black"
         id="path31" />
    </marker>
    <marker
       id="id163"
       markerHeight="20"
       markerWidth="30"
       orient="auto"
       refX="0"
       refY="3">
      <path
         d=" M0,3 L8,6 L5,3 L8,0 L0,3"
         fill="black"
         id="path34" />
    </marker>
    <marker
       id="id164"
       markerHeight="30"
       markerWidth="30"
       orient="auto"
       refX="8"
       refY="3">
      <path
         d=" M0,0 L3,3 L0,6 L8,3 L0,0"
         fill="black"
         id="path37" />
    </marker>
    <marker
       id="id165"
       markerHeight="20"
       markerWidth="30"
       orient="auto"
       refX="0"
       refY="3">
      <path
         d=" M0,3 L8,6 L5,3 L8,0 L0,3"
         fill="black"
         id="path40" />
    </marker>
    <marker
       id="id166"
       markerHeight="30"
       markerWidth="30"
       orient="auto"
       refX="8"
       refY="3">
      <path
         d=" M0,0 L3,3 L0,6 L8,3 L0,0"
         fill="black"
         id="path43" />
    </marker>
    <marker
       id="id167"
       markerHeight="20"
       markerWidth="30"
       orient="auto"
       refX="0"
       refY="3">
      <path
         d=" M0,3 L8,6 L5,3 L8,0 L0,3"
         fill="black"
         id="path46" />
    </marker>
    <marker
       id="id168"
       markerHeight="30"
       markerWidth="30"
       orient="auto"
       refX="8"
       refY="3">
      <path
         d=" M0,0 L3,3 L0,6 L8,3 L0,0"
         fill="black"
         id="path49" />
    </marker>
    <marker
       id="id169"
       markerHeight="20"
       markerWidth="30"
       orient="auto"
       refX="0"
       refY="3">
      <path
         d=" M0,3 L8,6 L5,3 L8,0 L0,3"
         fill="black"
         id="path52" />
    </marker>
    <marker
       id="id170"
       markerHeight="30"
       markerWidth="30"
       orient="auto"
       refX="8"
       refY="3">
      <path
         d=" M0,0 L3,3 L0,6 L8,3 L0,0"
         fill="black"
         id="path55" />
    </marker>
    <marker
       id="id171"
       markerHeight="20"
       markerWidth="30"
       orient="auto"
       refX="0"
       refY="3">
      <path
         d=" M0,3 L8,6 L5,3 L8,0 L0,3"
         fill="black"
         id="path58" />
    </marker>
    <marker
       id="id172"
       markerHeight="30"
       markerWidth="30"
       orient="auto"
       refX="8"
       refY="3">
      <path
         d=" M0,0 L3,3 L0,6 L8,3 L0,0"
         fill="black"
         id="path61" />
    </marker>
    <marker
       id="id173"
       markerHeight="20"
       markerWidth="30"
       orient="auto"
       refX="0"
       refY="3">
      <path
         d=" M0,3 L8,6 L5,3 L8,0 L0,3"
         fill="black"
         id="path64" />
    </marker>
    <marker
       id="id174"
       markerHeight="20"
       markerWidth="30"
       orient="auto"
       refX="0"
       refY="3">
      <path
         d=" M0,3 L8,6 L5,3 L8,0 L0,3"
         fill="black"
         id="path67" />
    </marker>
    <marker
       id="id175"
       markerHeight="20"
       markerWidth="30"
       orient="auto"
       refX="0"
       refY="3">
      <path
         d=" M0,3 L8,6 L5,3 L8,0 L0,3"
         fill="black"
         id="path70" />
    </marker>
    <marker
       id="id176"
       markerHeight="20"
       markerWidth="30"
       orient="auto"
       refX="0"
       refY="3">
      <path
         d=" M0,3 L8,6 L5,3 L8,0 L0,3"
         fill="black"
         id="path73" />
    </marker>
    <marker
       id="id177"
       markerHeight="20"
       markerWidth="30"
       orient="auto"
       refX="0"
       refY="3">
      <path
         d=" M0,3 L8,6 L5,3 L8,0 L0,3"
         fill="black"
         id="path76" />
    </marker>
    <marker
       id="id178"
       markerHeight="20"
       markerWidth="30"
       orient="auto"
       refX="0"
       refY="3">
      <path
         d=" M0,3 L8,6 L5,3 L8,0 L0,3"
         fill="black"
         id="path79" />
    </marker>
  </defs>
  <line
     marker-end="url(#id154)"
     stroke="black"
     stroke-linecap="square"
     stroke-width="2.5"
     x1="0"
     x2="0"
     y1="-320"
     y2="-270"
     id="line81" />
  <text
     fill="black"
     font-family="sans-serif"
     font-size="52"
     x="-10"
     y="-190"
     id="text83">A</text>
  <line
     marker-end="url(#id155)"
     stroke="black"
     stroke-linecap="square"
     stroke-width="2.5"
     x1="449.7"
     x2="449.7"
     y1="-320.0"
     y2="-270.0"
     id="line85" />
  <text
     fill="black"
     font-family="sans-serif"
     font-size="52"
     x="439.7"
     y="-190.0"
     id="text87">A</text>
  <line
     stroke="#666666"
     stroke-linecap="square"
     stroke-width="1.0"
     x1="0"
     x2="449.7"
     y1="-320"
     y2="-320.0"
     id="line89" />
  <polyline
     fill="none"
     points="0,0 150,0 150.0,17.4 79.7,17.4 79.7,432.6 150.0,432.6 150.0,450.0 0.0,450.0 0.0,432.6 70.3,432.6 70.3,17.4 0.0,17.4 0,0"
     stroke="blue"
     stroke-width="2.5"
     id="polyline91" />
  <polyline
     fill="none"
     points="160.0,17.4 160,0 449.7,0.0 449.7,300.0 99.7,300.0 99.7,286.9 99.7,252.4"
     stroke="blue"
     stroke-width="2.5"
     id="polyline93" />
  <line
     stroke="red"
     stroke-dasharray="5 5"
     stroke-linecap="square"
     stroke-width="2.5"
     x1="99.7"
     x2="99.7"
     y1="32.4"
     y2="252.4"
     id="line95" />
  <line
     stroke="blue"
     stroke-linecap="square"
     stroke-width="2.5"
     x1="160.0"
     x2="449.7"
     y1="13.1"
     y2="13.1"
     id="line97" />
  <line
     stroke="blue"
     stroke-linecap="square"
     stroke-width="2.5"
     x1="99.7"
     x2="449.7"
     y1="286.9"
     y2="286.9"
     id="line99" />
  <rect
     fill="none"
     height="220"
     stroke="blue"
     stroke-width="2.5"
     width="12"
     x="79.7"
     y="32.4"
     id="rect101" />
  <rect
     fill="none"
     height="220"
     stroke="blue"
     stroke-width="2.5"
     width="78"
     x="91.7"
     y="32.4"
     id="rect103" />
  <path
     d="M 160.0 17.4 A 15.0 15.0 , 0 , 0 , 1 , 145.0 32.4"
     fill="none"
     stroke="blue"
     stroke-width="2.5"
     id="path105" />
  <circle
     cx="139.7"
     cy="62.4"
     fill="none"
     r="8"
     stroke="blue"
     stroke-width="1.5"
     id="circle107" />
  <line
     stroke="red"
     stroke-linecap="square"
     stroke-width="2.0"
     x1="127.7"
     x2="151.7"
     y1="62.4"
     y2="62.4"
     id="line109" />
  <line
     stroke="red"
     stroke-linecap="square"
     stroke-width="2.0"
     x1="139.7"
     x2="139.7"
     y1="50.4"
     y2="74.4"
     id="line111" />
  <circle
     cx="139.7"
     cy="102.4"
     fill="none"
     r="8"
     stroke="blue"
     stroke-width="1.5"
     id="circle113" />
  <line
     stroke="red"
     stroke-linecap="square"
     stroke-width="2.0"
     x1="127.7"
     x2="151.7"
     y1="102.4"
     y2="102.4"
     id="line115" />
  <line
     stroke="red"
     stroke-linecap="square"
     stroke-width="2.0"
     x1="139.7"
     x2="139.7"
     y1="90.4"
     y2="114.4"
     id="line117" />
  <circle
     cx="139.7"
     cy="142.4"
     fill="none"
     r="8"
     stroke="blue"
     stroke-width="1.5"
     id="circle119" />
  <line
     stroke="red"
     stroke-linecap="square"
     stroke-width="2.0"
     x1="127.7"
     x2="151.7"
     y1="142.4"
     y2="142.4"
     id="line121" />
  <line
     stroke="red"
     stroke-linecap="square"
     stroke-width="2.0"
     x1="139.7"
     x2="139.7"
     y1="130.4"
     y2="154.4"
     id="line123" />
  <circle
     cx="139.7"
     cy="182.4"
     fill="none"
     r="8"
     stroke="blue"
     stroke-width="1.5"
     id="circle125" />
  <line
     stroke="red"
     stroke-linecap="square"
     stroke-width="2.0"
     x1="127.7"
     x2="151.7"
     y1="182.4"
     y2="182.4"
     id="line127" />
  <line
     stroke="red"
     stroke-linecap="square"
     stroke-width="2.0"
     x1="139.7"
     x2="139.7"
     y1="170.4"
     y2="194.4"
     id="line129" />
  <circle
     cx="139.7"
     cy="222.4"
     fill="none"
     r="8"
     stroke="blue"
     stroke-width="1.5"
     id="circle131" />
  <line
     stroke="red"
     stroke-linecap="square"
     stroke-width="2.0"
     x1="127.7"
     x2="151.7"
     y1="222.4"
     y2="222.4"
     id="line133" />
  <line
     stroke="red"
     stroke-linecap="square"
     stroke-width="2.0"
     x1="139.7"
     x2="139.7"
     y1="210.4"
     y2="234.4"
     id="line135" />
  <rect
     fill="black"
     height="16"
     stroke="black"
     stroke-width="2.0"
     width="21.4"
     x="70.3"
     y="74.4"
     id="rect137" />
  <line
     stroke="black"
     stroke-linecap="square"
     stroke-width="2.0"
     x1="60.3"
     x2="109.7"
     y1="82.4"
     y2="82.4"
     id="line139" />
  <rect
     fill="black"
     height="16"
     stroke="black"
     stroke-width="2.0"
     width="21.4"
     x="70.3"
     y="114.4"
     id="rect141" />
  <line
     stroke="black"
     stroke-linecap="square"
     stroke-width="2.0"
     x1="60.3"
     x2="109.7"
     y1="122.4"
     y2="122.4"
     id="line143" />
  <rect
     fill="black"
     height="16"
     stroke="black"
     stroke-width="2.0"
     width="21.4"
     x="70.3"
     y="154.4"
     id="rect145" />
  <line
     stroke="black"
     stroke-linecap="square"
     stroke-width="2.0"
     x1="60.3"
     x2="109.7"
     y1="162.4"
     y2="162.4"
     id="line147" />
  <rect
     fill="black"
     height="16"
     stroke="black"
     stroke-width="2.0"
     width="21.4"
     x="70.3"
     y="194.4"
     id="rect149" />
  <line
     stroke="black"
     stroke-linecap="square"
     stroke-width="2.0"
     x1="60.3"
     x2="109.7"
     y1="202.4"
     y2="202.4"
     id="line151" />
  <line
     stroke="#D8D8D8"
     stroke-linecap="square"
     stroke-opacity="0.7"
     stroke-width="2.5"
     x1="169.7"
     x2="669.7"
     y1="32.4"
     y2="32.4"
     id="line153" />
  <line
     stroke="#D8D8D8"
     stroke-linecap="square"
     stroke-opacity="0.7"
     stroke-width="2.5"
     x1="169.7"
     x2="669.7"
     y1="252.4"
     y2="252.4"
     id="line155" />
  <line
     marker-end="url(#id156)"
     marker-start="url(#id157)"
     stroke="black"
     stroke-linecap="square"
     stroke-width="2.5"
     x1="519.7"
     x2="519.7"
     y1="32.4"
     y2="252.4"
     id="line157" />
  <text
     fill="black"
     font-family="sans-serif"
     font-size="28"
     x="529.7"
     y="142.4"
     id="text159">220</text>
  <line
     stroke="black"
     stroke-linecap="square"
     stroke-opacity="1.0"
     stroke-width="2.5"
     x1="529.7"
     x2="509.7"
     y1="32.4"
     y2="32.4"
     id="line161" />
  <line
     stroke="black"
     stroke-linecap="square"
     stroke-opacity="1.0"
     stroke-width="2.5"
     x1="529.7"
     x2="509.7"
     y1="252.4"
     y2="252.4"
     id="line163" />
  <line
     stroke="#D8D8D8"
     stroke-linecap="square"
     stroke-opacity="0.7"
     stroke-width="2.5"
     x1="139.7"
     x2="639.7"
     y1="62.4"
     y2="62.4"
     id="line165" />
  <line
     stroke="#D8D8D8"
     stroke-linecap="square"
     stroke-opacity="0.7"
     stroke-width="2.5"
     x1="139.7"
     x2="639.7"
     y1="222.4"
     y2="222.4"
     id="line167" />
  <line
     marker-end="url(#id158)"
     marker-start="url(#id159)"
     stroke="black"
     stroke-linecap="square"
     stroke-width="2.5"
     x1="639.7"
     x2="639.7"
     y1="62.4"
     y2="222.4"
     id="line169" />
  <text
     fill="black"
     font-family="sans-serif"
     font-size="28"
     x="649.7"
     y="142.4"
     id="text171">4@40 c/c</text>
  <line
     stroke="black"
     stroke-linecap="square"
     stroke-opacity="1.0"
     stroke-width="2.5"
     x1="649.7"
     x2="629.7"
     y1="62.4"
     y2="62.4"
     id="line173" />
  <line
     stroke="black"
     stroke-linecap="square"
     stroke-opacity="1.0"
     stroke-width="2.5"
     x1="649.7"
     x2="629.7"
     y1="222.4"
     y2="222.4"
     id="line175" />
  <line
     marker-end="url(#id160)"
     marker-start="url(#id161)"
     stroke="black"
     stroke-linecap="square"
     stroke-width="2.5"
     x1="639.7"
     x2="639.7"
     y1="62.4"
     y2="32.4"
     id="line177" />
  <text
     fill="black"
     font-family="sans-serif"
     font-size="28"
     x="649.7"
     y="47.4"
     id="text179">30</text>
  <line
     stroke="black"
     stroke-linecap="square"
     stroke-opacity="1.0"
     stroke-width="2.5"
     x1="649.7"
     x2="629.7"
     y1="62.4"
     y2="62.4"
     id="line181" />
  <line
     stroke="black"
     stroke-linecap="square"
     stroke-opacity="1.0"
     stroke-width="2.5"
     x1="649.7"
     x2="629.7"
     y1="32.4"
     y2="32.4"
     id="line183" />
  <line
     marker-end="url(#id162)"
     marker-start="url(#id163)"
     stroke="black"
     stroke-linecap="square"
     stroke-width="2.5"
     x1="639.7"
     x2="639.7"
     y1="222.4"
     y2="252.4"
     id="line185" />
  <text
     fill="black"
     font-family="sans-serif"
     font-size="28"
     x="649.7"
     y="237.4"
     id="text187">30</text>
  <line
     stroke="black"
     stroke-linecap="square"
     stroke-opacity="1.0"
     stroke-width="2.5"
     x1="649.7"
     x2="629.7"
     y1="222.4"
     y2="222.4"
     id="line189" />
  <line
     stroke="black"
     stroke-linecap="square"
     stroke-opacity="1.0"
     stroke-width="2.5"
     x1="649.7"
     x2="629.7"
     y1="252.4"
     y2="252.4"
     id="line191" />
  <line
     stroke="#D8D8D8"
     stroke-linecap="square"
     stroke-opacity="0.7"
     stroke-width="2.5"
     x1="139.7"
     x2="139.7"
     y1="32.4"
     y2="-180.0"
     id="line193" />
  <line
     stroke="#D8D8D8"
     stroke-linecap="square"
     stroke-opacity="0.7"
     stroke-width="2.5"
     x1="169.7"
     x2="169.7"
     y1="32.4"
     y2="-180.0"
     id="line195" />
  <line
     marker-end="url(#id164)"
     marker-start="url(#id165)"
     stroke="black"
     stroke-linecap="square"
     stroke-width="2.5"
     x1="169.7"
     x2="139.7"
     y1="-180.0"
     y2="-180.0"
     id="line197" />
  <text
     fill="black"
     font-family="sans-serif"
     font-size="28"
     x="154.7"
     y="-200.0"
     id="text199">30</text>
  <line
     stroke="black"
     stroke-linecap="square"
     stroke-opacity="1.0"
     stroke-width="2.5"
     x1="169.7"
     x2="169.7"
     y1="-190.0"
     y2="-170.0"
     id="line201" />
  <line
     stroke="black"
     stroke-linecap="square"
     stroke-opacity="1.0"
     stroke-width="2.5"
     x1="139.7"
     x2="139.7"
     y1="-190.0"
     y2="-170.0"
     id="line203" />
  <line
     stroke="#D8D8D8"
     stroke-linecap="square"
     stroke-opacity="0.7"
     stroke-width="2.5"
     x1="0"
     x2="-30"
     y1="0"
     y2="0"
     id="line205" />
  <line
     stroke="#D8D8D8"
     stroke-linecap="square"
     stroke-opacity="0.7"
     stroke-width="2.5"
     x1="99.7"
     x2="-30.0"
     y1="32.4"
     y2="32.4"
     id="line207" />
  <line
     marker-end="url(#id166)"
     marker-start="url(#id167)"
     stroke="black"
     stroke-linecap="square"
     stroke-width="2.5"
     x1="-30.0"
     x2="-30.0"
     y1="0.0"
     y2="32.4"
     id="line209" />
  <text
     fill="black"
     font-family="sans-serif"
     font-size="28"
     x="-80.0"
     y="16.2"
     id="text211">32</text>
  <line
     stroke="black"
     stroke-linecap="square"
     stroke-opacity="1.0"
     stroke-width="2.5"
     x1="-40.0"
     x2="-20.0"
     y1="0.0"
     y2="0.0"
     id="line213" />
  <line
     stroke="black"
     stroke-linecap="square"
     stroke-opacity="1.0"
     stroke-width="2.5"
     x1="-40.0"
     x2="-20.0"
     y1="32.4"
     y2="32.4"
     id="line215" />
  <line
     stroke="#D8D8D8"
     stroke-linecap="square"
     stroke-opacity="0.7"
     stroke-width="2.5"
     x1="79.7"
     x2="-24.15"
     y1="32.4"
     y2="32.4"
     id="line217" />
  <line
     stroke="#D8D8D8"
     stroke-linecap="square"
     stroke-opacity="0.7"
     stroke-width="2.5"
     x1="70.3"
     x2="-25.85"
     y1="82.4"
     y2="82.4"
     id="line219" />
  <line
     marker-end="url(#id168)"
     marker-start="url(#id169)"
     stroke="black"
     stroke-linecap="square"
     stroke-width="2.5"
     x1="-25.85"
     x2="-25.85"
     y1="32.4"
     y2="82.4"
     id="line221" />
  <text
     fill="black"
     font-family="sans-serif"
     font-size="28"
     x="-75.85"
     y="57.4"
     id="text223">50</text>
  <line
     stroke="black"
     stroke-linecap="square"
     stroke-opacity="1.0"
     stroke-width="2.5"
     x1="-35.85"
     x2="-15.85"
     y1="32.4"
     y2="32.4"
     id="line225" />
  <line
     stroke="black"
     stroke-linecap="square"
     stroke-opacity="1.0"
     stroke-width="2.5"
     x1="-35.85"
     x2="-15.85"
     y1="82.4"
     y2="82.4"
     id="line227" />
  <line
     stroke="#D8D8D8"
     stroke-linecap="square"
     stroke-opacity="0.7"
     stroke-width="2.5"
     x1="70.3"
     x2="-25.85"
     y1="202.4"
     y2="202.4"
     id="line229" />
  <line
     marker-end="url(#id170)"
     marker-start="url(#id171)"
     stroke="black"
     stroke-linecap="square"
     stroke-width="2.5"
     x1="-25.85"
     x2="-25.85"
     y1="82.4"
     y2="202.4"
     id="line231" />
  <text
     fill="black"
     font-family="sans-serif"
     font-size="28"
     x="-175.85"
     y="142.4"
     id="text233">3@40 c/c</text>
  <line
     stroke="black"
     stroke-linecap="square"
     stroke-opacity="1.0"
     stroke-width="2.5"
     x1="-35.85"
     x2="-15.85"
     y1="82.4"
     y2="82.4"
     id="line235" />
  <line
     stroke="black"
     stroke-linecap="square"
     stroke-opacity="1.0"
     stroke-width="2.5"
     x1="-35.85"
     x2="-15.85"
     y1="202.4"
     y2="202.4"
     id="line237" />
  <line
     stroke="#D8D8D8"
     stroke-linecap="square"
     stroke-opacity="0.7"
     stroke-width="2.5"
     x1="79.7"
     x2="-24.15"
     y1="252.4"
     y2="252.4"
     id="line239" />
  <line
     marker-end="url(#id172)"
     marker-start="url(#id173)"
     stroke="black"
     stroke-linecap="square"
     stroke-width="2.5"
     x1="-25.85"
     x2="-25.85"
     y1="252.4"
     y2="202.4"
     id="line241" />
  <text
     fill="black"
     font-family="sans-serif"
     font-size="28"
     x="-75.85"
     y="227.4"
     id="text243">50</text>
  <line
     stroke="black"
     stroke-linecap="square"
     stroke-opacity="1.0"
     stroke-width="2.5"
     x1="-35.85"
     x2="-15.85"
     y1="252.4"
     y2="252.4"
     id="line245" />
  <line
     stroke="black"
     stroke-linecap="square"
     stroke-opacity="1.0"
     stroke-width="2.5"
     x1="-35.85"
     x2="-15.85"
     y1="202.4"
     y2="202.4"
     id="line247" />
  <polyline
     fill="none"
     marker-start="url(#id174)"
     points="449.7,300.0 536.302540378,350.0 744.302540378,350.0"
     stroke="black"
     stroke-width="2.5"
     id="polyline249" />
  <text
     fill="black"
     font-family="sans-serif"
     font-size="28"
     x="557.102540378"
     y="332.0"
     id="text251"
     style="fill:#00ff00;">Beam ISMB 300</text>
  <text
     fill="black"
     font-family="sans-serif"
     font-size="28"
     x="557.102540378"
     y="368.0"
     id="text253" />
  <polyline
     fill="none"
     marker-start="url(#id175)"
     points="0,0 -100.0,-100.0 -308.0,-100.0"
     stroke="black"
     stroke-width="2.5"
     id="polyline255" />
  <text
     fill="black"
     font-family="sans-serif"
     font-size="28"
     x="-287.2"
     y="-118.0"
     id="text257"
     style="fill:#00ff00;">Beam ISMB 450</text>
  <text
     fill="black"
     font-family="sans-serif"
     font-size="28"
     x="-328.8"
     y="-82.0"
     id="text259" />
  <polyline
     fill="none"
     marker-start="url(#id176)"
     points="139.7,62.4 326.7,-124.6 694.7,-124.6"
     stroke="black"
     stroke-width="2.5"
     id="polyline261" />
  <text
     fill="black"
     font-family="sans-serif"
     font-size="28"
     x="363.5"
     y="-142.6"
     id="text263"
     style="fill:#00ff00;">5 nos 16Ø holes</text>
  <text
     fill="black"
     font-family="sans-serif"
     font-size="28"
     x="363.5"
     y="-91.6"
     id="text265"
     style="fill:#00ff00;">for M16bolts(grade 4.8)</text>
  <polyline
     fill="none"
     marker-start="url(#id177)"
     points="70.3,202.4 24.1119784648,282.4 -343.888021535,282.4"
     stroke="black"
     stroke-width="2.5"
     id="polyline267" />
  <text
     fill="black"
     font-family="sans-serif"
     font-size="28"
     x="-307.088021535"
     y="264.4"
     id="text269"
     style="fill:#00ff00;">8 nos 16Ø holes</text>
  <text
     fill="black"
     font-family="sans-serif"
     font-size="28"
     x="-380.688021535"
     y="300.4"
     id="text271"
     style="fill:#00ff00;">for M16bolts(grade 4.8)</text>
  <polyline
     fill="none"
     marker-start="url(#id178)"
     points="169.7,252.4 209.249300803,400.0 401.249300803,400.0"
     stroke="black"
     stroke-width="2.5"
     id="polyline273" />
  <text
     fill="black"
     font-family="sans-serif"
     font-size="28"
     x="228.449300803"
     y="382.0"
     id="text275"
     style="fill:#00ff00;">ISA.90X90X12</text>
  <text
     fill="black"
     font-family="sans-serif"
     font-size="28"
     x="228.449300803"
     y="418.0"
     id="text277" />
  <text
     fill="black"
     font-family="sans-serif"
     font-size="30"
     x="50"
     y="600"
     id="text279">Front view (Sec C-C)</text>
  <text
     fill="black"
     font-family="sans-serif"
     font-size="30"
     x="400"
     y="600"
     id="text281">(All distances are in &quot;mm&quot;)</text>
  <text
     xml:space="preserve"
     style="font-style:normal;font-weight:normal;font-size:40px;line-height:125%;font-family:sans-serif;letter-spacing:0px;word-spacing:0px;fill:#000000;fill-opacity:1;stroke:none;stroke-width:1px;stroke-linecap:butt;stroke-linejoin:miter;stroke-opacity:1"
     x="-266.29523"
     y="305.36432"
     id="text3613"
     sodipodi:linespacing="125%"><tspan
       sodipodi:role="line"
       id="tspan3615"
       x="-266.29523"
       y="305.36432">``</tspan></text>
</svg>
