<?xml version="1.0" encoding="utf-8" ?>
<svg baseProfile="full" height="100%" version="1.1" viewBox="-500 -350 1500 1300" width="100%" xmlns="http://www.w3.org/2000/svg" xmlns:ev="http://www.w3.org/2001/xml-events" xmlns:xlink="http://www.w3.org/1999/xlink"><defs><marker id="id212" markerHeight="10" markerWidth="10" orient="auto" refX="0" refY="5"><path d="M 0 0 L 10 5 L 0 10 z" fill="blue" stroke="black" /></marker><marker id="id213" markerHeight="10" markerWidth="10" orient="auto" refX="0" refY="5"><path d="M 0 0 L 10 5 L 0 10 z" fill="blue" stroke="black" /></marker><marker id="id214" markerHeight="30" markerWidth="30" orient="auto" refX="8" refY="3"><path d=" M0,0 L3,3 L0,6 L8,3 L0,0" fill="black" /></marker><marker id="id215" markerHeight="20" markerWidth="30" orient="auto" refX="0" refY="3"><path d=" M0,3 L8,6 L5,3 L8,0 L0,3" fill="black" /></marker><marker id="id216" markerHeight="30" markerWidth="30" orient="auto" refX="8" refY="3"><path d=" M0,0 L3,3 L0,6 L8,3 L0,0" fill="black" /></marker><marker id="id217" markerHeight="20" markerWidth="30" orient="auto" refX="0" refY="3"><path d=" M0,3 L8,6 L5,3 L8,0 L0,3" fill="black" /></marker><marker id="id218" markerHeight="30" markerWidth="30" orient="auto" refX="8" refY="3"><path d=" M0,0 L3,3 L0,6 L8,3 L0,0" fill="black" /></marker><marker id="id219" markerHeight="20" markerWidth="30" orient="auto" refX="0" refY="3"><path d=" M0,3 L8,6 L5,3 L8,0 L0,3" fill="black" /></marker><marker id="id220" markerHeight="30" markerWidth="30" orient="auto" refX="8" refY="3"><path d=" M0,0 L3,3 L0,6 L8,3 L0,0" fill="black" /></marker><marker id="id221" markerHeight="20" markerWidth="30" orient="auto" refX="0" refY="3"><path d=" M0,3 L8,6 L5,3 L8,0 L0,3" fill="black" /></marker><marker id="id222" markerHeight="30" markerWidth="30" orient="auto" refX="8" refY="3"><path d=" M0,0 L3,3 L0,6 L8,3 L0,0" fill="black" /></marker><marker id="id223" markerHeight="20" markerWidth="30" orient="auto" refX="0" refY="3"><path d=" M0,3 L8,6 L5,3 L8,0 L0,3" fill="black" /></marker><marker id="id224" markerHeight="30" markerWidth="30" orient="auto" refX="8" refY="3"><path d=" M0,0 L3,3 L0,6 L8,3 L0,0" fill="black" /></marker><marker id="id225" markerHeight="20" markerWidth="30" orient="auto" refX="0" refY="3"><path d=" M0,3 L8,6 L5,3 L8,0 L0,3" fill="black" /></marker><marker id="id226" markerHeight="30" markerWidth="30" orient="auto" refX="8" refY="3"><path d=" M0,0 L3,3 L0,6 L8,3 L0,0" fill="black" /></marker><marker id="id227" markerHeight="20" markerWidth="30" orient="auto" refX="0" refY="3"><path d=" M0,3 L8,6 L5,3 L8,0 L0,3" fill="black" /></marker><marker id="id228" markerHeight="30" markerWidth="30" orient="auto" refX="8" refY="3"><path d=" M0,0 L3,3 L0,6 L8,3 L0,0" fill="black" /></marker><marker id="id229" markerHeight="20" markerWidth="30" orient="auto" refX="0" refY="3"><path d=" M0,3 L8,6 L5,3 L8,0 L0,3" fill="black" /></marker><marker id="id230" markerHeight="30" markerWidth="30" orient="auto" refX="8" refY="3"><path d=" M0,0 L3,3 L0,6 L8,3 L0,0" fill="black" /></marker><marker id="id231" markerHeight="20" markerWidth="30" orient="auto" refX="0" refY="3"><path d=" M0,3 L8,6 L5,3 L8,0 L0,3" fill="black" /></marker><marker id="id232" markerHeight="20" markerWidth="30" orient="auto" refX="0" refY="3"><path d=" M0,3 L8,6 L5,3 L8,0 L0,3" fill="black" /></marker><marker id="id233" markerHeight="20" markerWidth="30" orient="auto" refX="0" refY="3"><path d=" M0,3 L8,6 L5,3 L8,0 L0,3" fill="black" /></marker><marker id="id234" markerHeight="20" markerWidth="30" orient="auto" refX="0" refY="3"><path d=" M0,3 L8,6 L5,3 L8,0 L0,3" fill="black" /></marker><marker id="id235" markerHeight="20" markerWidth="30" orient="auto" refX="0" refY="3"><path d=" M0,3 L8,6 L5,3 L8,0 L0,3" fill="black" /></marker><marker id="id236" markerHeight="20" markerWidth="30" orient="auto" refX="0" refY="3"><path d=" M0,3 L8,6 L5,3 L8,0 L0,3" fill="black" /></marker></defs><line marker-end="url(#id212)" stroke="black" stroke-linecap="square" stroke-width="2.5" x1="0" x2="0" y1="-320" y2="-270" /><text fill="black" font-family="sans-serif" font-size="52" x="-10" y="-190">A</text><line marker-end="url(#id213)" stroke="black" stroke-linecap="square" stroke-width="2.5" x1="449.7" x2="449.7" y1="-320.0" y2="-270.0" /><text fill="black" font-family="sans-serif" font-size="52" x="439.7" y="-190.0">A</text><line stroke="#666666" stroke-linecap="square" stroke-width="1.0" x1="0" x2="449.7" y1="-320" y2="-320.0" /><polyline fill="none" points="0,0 150,0 150.0,17.4 79.7,17.4 79.7,432.6 150.0,432.6 150.0,450.0 0.0,450.0 0.0,432.6 70.3,432.6 70.3,17.4 0.0,17.4 0,0" stroke="blue" stroke-width="2.5" /><polyline fill="none" points="160.0,17.4 160,0 449.7,0.0 449.7,300.0 99.7,300.0 99.7,286.9 99.7,252.4" stroke="blue" stroke-width="2.5" /><line stroke="red" stroke-dasharray="5 5" stroke-linecap="square" stroke-width="2.5" x1="99.7" x2="99.7" y1="32.4" y2="252.4" /><line stroke="blue" stroke-linecap="square" stroke-width="2.5" x1="160.0" x2="449.7" y1="13.1" y2="13.1" /><line stroke="blue" stroke-linecap="square" stroke-width="2.5" x1="99.7" x2="449.7" y1="286.9" y2="286.9" /><rect fill="none" height="220" stroke="blue" stroke-width="2.5" width="10" x="79.7" y="32.4" /><rect fill="none" height="220" stroke="blue" stroke-width="2.5" width="90" x="89.7" y="32.4" /><path d="M 160.0 17.4 A 15.0 15.0 , 0 , 0 , 1 , 145.0 32.4" fill="none" stroke="blue" stroke-width="2.5" /><circle cx="149.7" cy="62.4" fill="none" r="8" stroke="blue" stroke-width="1.5" /><line stroke="red" stroke-linecap="square" stroke-width="2.0" x1="137.7" x2="161.7" y1="62.4" y2="62.4" /><line stroke="red" stroke-linecap="square" stroke-width="2.0" x1="149.7" x2="149.7" y1="50.4" y2="74.4" /><circle cx="149.7" cy="102.4" fill="none" r="8" stroke="blue" stroke-width="1.5" /><line stroke="red" stroke-linecap="square" stroke-width="2.0" x1="137.7" x2="161.7" y1="102.4" y2="102.4" /><line stroke="red" stroke-linecap="square" stroke-width="2.0" x1="149.7" x2="149.7" y1="90.4" y2="114.4" /><circle cx="149.7" cy="142.4" fill="none" r="8" stroke="blue" stroke-width="1.5" /><line stroke="red" stroke-linecap="square" stroke-width="2.0" x1="137.7" x2="161.7" y1="142.4" y2="142.4" /><line stroke="red" stroke-linecap="square" stroke-width="2.0" x1="149.7" x2="149.7" y1="130.4" y2="154.4" /><circle cx="149.7" cy="182.4" fill="none" r="8" stroke="blue" stroke-width="1.5" /><line stroke="red" stroke-linecap="square" stroke-width="2.0" x1="137.7" x2="161.7" y1="182.4" y2="182.4" /><line stroke="red" stroke-linecap="square" stroke-width="2.0" x1="149.7" x2="149.7" y1="170.4" y2="194.4" /><circle cx="149.7" cy="222.4" fill="none" r="8" stroke="blue" stroke-width="1.5" /><line stroke="red" stroke-linecap="square" stroke-width="2.0" x1="137.7" x2="161.7" y1="222.4" y2="222.4" /><line stroke="red" stroke-linecap="square" stroke-width="2.0" x1="149.7" x2="149.7" y1="210.4" y2="234.4" /><rect fill="black" height="16" stroke="black" stroke-width="2.0" width="19.4" x="70.3" y="54.4" /><line stroke="black" stroke-linecap="square" stroke-width="2.0" x1="60.3" x2="107.7" y1="62.4" y2="62.4" /><rect fill="black" height="16" stroke="black" stroke-width="2.0" width="19.4" x="70.3" y="94.4" /><line stroke="black" stroke-linecap="square" stroke-width="2.0" x1="60.3" x2="107.7" y1="102.4" y2="102.4" /><rect fill="black" height="16" stroke="black" stroke-width="2.0" width="19.4" x="70.3" y="134.4" /><line stroke="black" stroke-linecap="square" stroke-width="2.0" x1="60.3" x2="107.7" y1="142.4" y2="142.4" /><rect fill="black" height="16" stroke="black" stroke-width="2.0" width="19.4" x="70.3" y="174.4" /><line stroke="black" stroke-linecap="square" stroke-width="2.0" x1="60.3" x2="107.7" y1="182.4" y2="182.4" /><rect fill="black" height="16" stroke="black" stroke-width="2.0" width="19.4" x="70.3" y="214.4" /><line stroke="black" stroke-linecap="square" stroke-width="2.0" x1="60.3" x2="107.7" y1="222.4" y2="222.4" /><line stroke="#D8D8D8" stroke-linecap="square" stroke-opacity="0.7" stroke-width="2.5" x1="179.7" x2="679.7" y1="32.4" y2="32.4" /><line stroke="#D8D8D8" stroke-linecap="square" stroke-opacity="0.7" stroke-width="2.5" x1="179.7" x2="679.7" y1="252.4" y2="252.4" /><line marker-end="url(#id214)" marker-start="url(#id215)" stroke="black" stroke-linecap="square" stroke-width="2.5" x1="529.7" x2="529.7" y1="32.4" y2="252.4" /><text fill="black" font-family="sans-serif" font-size="28" x="539.7" y="142.4">220</text><line stroke="black" stroke-linecap="square" stroke-opacity="1.0" stroke-width="2.5" x1="539.7" x2="519.7" y1="32.4" y2="32.4" /><line stroke="black" stroke-linecap="square" stroke-opacity="1.0" stroke-width="2.5" x1="539.7" x2="519.7" y1="252.4" y2="252.4" /><line stroke="#D8D8D8" stroke-linecap="square" stroke-opacity="0.7" stroke-width="2.5" x1="149.7" x2="649.7" y1="62.4" y2="62.4" /><line stroke="#D8D8D8" stroke-linecap="square" stroke-opacity="0.7" stroke-width="2.5" x1="149.7" x2="649.7" y1="222.4" y2="222.4" /><line marker-end="url(#id216)" marker-start="url(#id217)" stroke="black" stroke-linecap="square" stroke-width="2.5" x1="649.7" x2="649.7" y1="62.4" y2="222.4" /><text fill="black" font-family="sans-serif" font-size="28" x="659.7" y="142.4">4@40 c/c</text><line stroke="black" stroke-linecap="square" stroke-opacity="1.0" stroke-width="2.5" x1="659.7" x2="639.7" y1="62.4" y2="62.4" /><line stroke="black" stroke-linecap="square" stroke-opacity="1.0" stroke-width="2.5" x1="659.7" x2="639.7" y1="222.4" y2="222.4" /><line marker-end="url(#id218)" marker-start="url(#id219)" stroke="black" stroke-linecap="square" stroke-width="2.5" x1="649.7" x2="649.7" y1="62.4" y2="32.4" /><text fill="black" font-family="sans-serif" font-size="28" x="659.7" y="47.4">30</text><line stroke="black" stroke-linecap="square" stroke-opacity="1.0" stroke-width="2.5" x1="659.7" x2="639.7" y1="62.4" y2="62.4" /><line stroke="black" stroke-linecap="square" stroke-opacity="1.0" stroke-width="2.5" x1="659.7" x2="639.7" y1="32.4" y2="32.4" /><line marker-end="url(#id220)" marker-start="url(#id221)" stroke="black" stroke-linecap="square" stroke-width="2.5" x1="649.7" x2="649.7" y1="222.4" y2="252.4" /><text fill="black" font-family="sans-serif" font-size="28" x="659.7" y="237.4">30</text><line stroke="black" stroke-linecap="square" stroke-opacity="1.0" stroke-width="2.5" x1="659.7" x2="639.7" y1="222.4" y2="222.4" /><line stroke="black" stroke-linecap="square" stroke-opacity="1.0" stroke-width="2.5" x1="659.7" x2="639.7" y1="252.4" y2="252.4" /><line stroke="#D8D8D8" stroke-linecap="square" stroke-opacity="0.7" stroke-width="2.5" x1="149.7" x2="149.7" y1="32.4" y2="-180.0" /><line stroke="#D8D8D8" stroke-linecap="square" stroke-opacity="0.7" stroke-width="2.5" x1="179.7" x2="179.7" y1="32.4" y2="-180.0" /><line marker-end="url(#id222)" marker-start="url(#id223)" stroke="black" stroke-linecap="square" stroke-width="2.5" x1="179.7" x2="149.7" y1="-180.0" y2="-180.0" /><text fill="black" font-family="sans-serif" font-size="28" x="164.7" y="-200.0">30</text><line stroke="black" stroke-linecap="square" stroke-opacity="1.0" stroke-width="2.5" x1="179.7" x2="179.7" y1="-190.0" y2="-170.0" /><line stroke="black" stroke-linecap="square" stroke-opacity="1.0" stroke-width="2.5" x1="149.7" x2="149.7" y1="-190.0" y2="-170.0" /><line stroke="#D8D8D8" stroke-linecap="square" stroke-opacity="0.7" stroke-width="2.5" x1="0" x2="-30" y1="0" y2="0" /><line stroke="#D8D8D8" stroke-linecap="square" stroke-opacity="0.7" stroke-width="2.5" x1="99.7" x2="-30.0" y1="32.4" y2="32.4" /><line marker-end="url(#id224)" marker-start="url(#id225)" stroke="black" stroke-linecap="square" stroke-width="2.5" x1="-30.0" x2="-30.0" y1="0.0" y2="32.4" /><text fill="black" font-family="sans-serif" font-size="28" x="-80.0" y="16.2">32</text><line stroke="black" stroke-linecap="square" stroke-opacity="1.0" stroke-width="2.5" x1="-40.0" x2="-20.0" y1="0.0" y2="0.0" /><line stroke="black" stroke-linecap="square" stroke-opacity="1.0" stroke-width="2.5" x1="-40.0" x2="-20.0" y1="32.4" y2="32.4" /><line stroke="#D8D8D8" stroke-linecap="square" stroke-opacity="0.7" stroke-width="2.5" x1="79.7" x2="-24.15" y1="32.4" y2="32.4" /><line stroke="#D8D8D8" stroke-linecap="square" stroke-opacity="0.7" stroke-width="2.5" x1="70.3" x2="-25.85" y1="62.4" y2="62.4" /><line marker-end="url(#id226)" marker-start="url(#id227)" stroke="black" stroke-linecap="square" stroke-width="2.5" x1="-25.85" x2="-25.85" y1="32.4" y2="62.4" /><text fill="black" font-family="sans-serif" font-size="28" x="-75.85" y="47.4">30</text><line stroke="black" stroke-linecap="square" stroke-opacity="1.0" stroke-width="2.5" x1="-35.85" x2="-15.85" y1="32.4" y2="32.4" /><line stroke="black" stroke-linecap="square" stroke-opacity="1.0" stroke-width="2.5" x1="-35.85" x2="-15.85" y1="62.4" y2="62.4" /><line stroke="#D8D8D8" stroke-linecap="square" stroke-opacity="0.7" stroke-width="2.5" x1="70.3" x2="-25.85" y1="222.4" y2="222.4" /><line marker-end="url(#id228)" marker-start="url(#id229)" stroke="black" stroke-linecap="square" stroke-width="2.5" x1="-25.85" x2="-25.85" y1="62.4" y2="222.4" /><text fill="black" font-family="sans-serif" font-size="28" x="-175.85" y="142.4">4@40 c/c</text><line stroke="black" stroke-linecap="square" stroke-opacity="1.0" stroke-width="2.5" x1="-35.85" x2="-15.85" y1="62.4" y2="62.4" /><line stroke="black" stroke-linecap="square" stroke-opacity="1.0" stroke-width="2.5" x1="-35.85" x2="-15.85" y1="222.4" y2="222.4" /><line stroke="#D8D8D8" stroke-linecap="square" stroke-opacity="0.7" stroke-width="2.5" x1="79.7" x2="-24.15" y1="252.4" y2="252.4" /><line marker-end="url(#id230)" marker-start="url(#id231)" stroke="black" stroke-linecap="square" stroke-width="2.5" x1="-25.85" x2="-25.85" y1="252.4" y2="222.4" /><text fill="black" font-family="sans-serif" font-size="28" x="-75.85" y="237.4">30</text><line stroke="black" stroke-linecap="square" stroke-opacity="1.0" stroke-width="2.5" x1="-35.85" x2="-15.85" y1="252.4" y2="252.4" /><line stroke="black" stroke-linecap="square" stroke-opacity="1.0" stroke-width="2.5" x1="-35.85" x2="-15.85" y1="222.4" y2="222.4" /><polyline fill="none" marker-start="url(#id232)" points="449.7,300.0 536.302540378,350.0 744.302540378,350.0" stroke="black" stroke-width="2.5" /><text fill="black" font-family="sans-serif" font-size="28" x="557.102540378" y="332.0">Beam ISMB 300</text><text fill="black" font-family="sans-serif" font-size="28" x="557.102540378" y="368.0" /><polyline fill="none" marker-start="url(#id233)" points="0,0 -100.0,-100.0 -308.0,-100.0" stroke="black" stroke-width="2.5" /><text fill="black" font-family="sans-serif" font-size="28" x="-287.2" y="-118.0">Beam ISMB 450</text><text fill="black" font-family="sans-serif" font-size="28" x="-328.8" y="-82.0" /><polyline fill="none" marker-start="url(#id234)" points="149.7,62.4 336.7,-124.6 704.7,-124.6" stroke="black" stroke-width="2.5" /><text fill="black" font-family="sans-serif" font-size="28" x="373.5" y="-142.6">5 nos 16Ø holes</text><text fill="black" font-family="sans-serif" font-size="28" x="373.5" y="-91.6">for M16bolts(grade 4.8)</text><polyline fill="none" marker-start="url(#id235)" points="70.3,222.4 24.1119784648,302.4 -343.888021535,302.4" stroke="black" stroke-width="2.5" /><text fill="black" font-family="sans-serif" font-size="28" x="-307.088021535" y="284.4">10 nos 16Ø holes</text><text fill="black" font-family="sans-serif" font-size="28" x="-380.688021535" y="320.4">for M16bolts(grade 4.8)</text><polyline fill="none" marker-start="url(#id236)" points="179.7,252.4 219.249300803,400.0 443.249300803,400.0" stroke="black" stroke-width="2.5" /><text fill="black" font-family="sans-serif" font-size="28" x="241.649300803" y="382.0">ISA.100X100X10</text><text fill="black" font-family="sans-serif" font-size="28" x="241.649300803" y="418.0" /><text fill="black" font-family="sans-serif" font-size="30" x="50" y="600">Front view (Sec C-C)</text><text fill="black" font-family="sans-serif" font-size="30" x="400" y="600">(All distances are in "mm")</text></svg>