<?xml version="1.0" encoding="utf-8" ?>
<svg baseProfile="full" height="100%" version="1.1" viewBox="-200 -250 1200 900" width="100%" xmlns="http://www.w3.org/2000/svg" xmlns:ev="http://www.w3.org/2001/xml-events" xmlns:xlink="http://www.w3.org/1999/xlink"><defs><marker id="id59" markerHeight="10" markerWidth="10" orient="auto" refX="0" refY="5"><path d="M 0 0 L 10 5 L 0 10 z" fill="blue" stroke="black" /></marker><marker id="id60" markerHeight="10" markerWidth="10" orient="auto" refX="0" refY="5"><path d="M 0 0 L 10 5 L 0 10 z" fill="blue" stroke="black" /></marker><marker id="id61" markerHeight="10" markerWidth="10" orient="auto" refX="0" refY="5"><path d="M 0 0 L 10 5 L 0 10 z" fill="blue" stroke="black" /></marker><marker id="id62" markerHeight="10" markerWidth="10" orient="auto" refX="0" refY="5"><path d="M 0 0 L 10 5 L 0 10 z" fill="blue" stroke="black" /></marker><marker id="id63" markerHeight="30" markerWidth="30" orient="auto" refX="8" refY="3"><path d=" M0,0 L3,3 L0,6 L8,3 L0,0" fill="black" /></marker><marker id="id64" markerHeight="20" markerWidth="30" orient="auto" refX="0" refY="3"><path d=" M0,3 L8,6 L5,3 L8,0 L0,3" fill="black" /></marker><marker id="id65" markerHeight="30" markerWidth="30" orient="auto" refX="8" refY="3"><path d=" M0,0 L3,3 L0,6 L8,3 L0,0" fill="black" /></marker><marker id="id66" markerHeight="20" markerWidth="30" orient="auto" refX="0" refY="3"><path d=" M0,3 L8,6 L5,3 L8,0 L0,3" fill="black" /></marker><marker id="id67" markerHeight="30" markerWidth="30" orient="auto" refX="8" refY="3"><path d=" M0,0 L3,3 L0,6 L8,3 L0,0" fill="black" /></marker><marker id="id68" markerHeight="20" markerWidth="30" orient="auto" refX="0" refY="3"><path d=" M0,3 L8,6 L5,3 L8,0 L0,3" fill="black" /></marker><marker id="id69" markerHeight="30" markerWidth="30" orient="auto" refX="8" refY="3"><path d=" M0,0 L3,3 L0,6 L8,3 L0,0" fill="black" /></marker><marker id="id70" markerHeight="20" markerWidth="30" orient="auto" refX="0" refY="3"><path d=" M0,3 L8,6 L5,3 L8,0 L0,3" fill="black" /></marker><marker id="id71" markerHeight="20" markerWidth="30" orient="auto" refX="0" refY="3"><path d=" M0,3 L8,6 L5,3 L8,0 L0,3" fill="black" /></marker><marker id="id72" markerHeight="20" markerWidth="30" orient="auto" refX="0" refY="3"><path d=" M0,3 L8,6 L5,3 L8,0 L0,3" fill="black" /></marker><marker id="id73" markerHeight="20" markerWidth="30" orient="auto" refX="0" refY="3"><path d=" M0,3 L8,6 L5,3 L8,0 L0,3" fill="black" /></marker><marker id="id74" markerHeight="20" markerWidth="30" orient="auto" refX="0" refY="3"><path d=" M0,3 L8,6 L5,3 L8,0 L0,3" fill="black" /></marker><marker id="id75" markerHeight="20" markerWidth="30" orient="auto" refX="0" refY="3"><path d=" M0,3 L8,6 L5,3 L8,0 L0,3" fill="black" /></marker><marker id="id76" markerHeight="30" markerWidth="30" orient="auto" refX="8" refY="3"><path d=" M0,0 L3,3 L0,6 L8,3 L0,0" fill="black" /></marker><marker id="id77" markerHeight="20" markerWidth="30" orient="auto" refX="0" refY="3"><path d=" M0,3 L8,6 L5,3 L8,0 L0,3" fill="black" /></marker></defs><line marker-end="url(#id59)" stroke="black" stroke-linecap="square" stroke-width="2.5" x1="820" x2="770" y1="0" y2="0" /><text fill="black" font-family="sans-serif" font-size="52" x="690" y="20">B</text><line marker-end="url(#id60)" stroke="black" stroke-linecap="square" stroke-width="2.5" x1="820" x2="770" y1="340" y2="340" /><text fill="black" font-family="sans-serif" font-size="52" x="690" y="360">B</text><line stroke="#666666" stroke-linecap="square" stroke-width="1.0" x1="820" x2="820" y1="0" y2="340" /><line marker-end="url(#id61)" stroke="black" stroke-linecap="square" stroke-width="2.5" x1="-50.0" x2="-50.0" y1="387.0" y2="337.0" /><text fill="black" font-family="sans-serif" font-size="52" x="-70.0" y="297.0">C</text><line marker-end="url(#id62)" stroke="black" stroke-linecap="square" stroke-width="2.5" x1="520.0" x2="520.0" y1="387.0" y2="337.0" /><text fill="black" font-family="sans-serif" font-size="52" x="500.0" y="297.0">C</text><line stroke="#666666" stroke-linecap="square" stroke-width="1.0" x1="-50.0" x2="520.0" y1="387.0" y2="387.0" /><polyline fill="none" points="0,0 150,0 150,340 0,340 0,0" stroke="blue" stroke-width="2.5" /><line stroke="red" stroke-dasharray="5 5" stroke-linecap="square" stroke-width="2.5" x1="70.3" x2="70.3" y1="0.0" y2="340.0" /><line stroke="red" stroke-dasharray="5 5" stroke-linecap="square" stroke-width="2.5" x1="79.7" x2="79.7" y1="0.0" y2="340.0" /><polyline fill="none" points="150,100 99.7,100.0 99.7,240.0 150,240" stroke="red" stroke-dasharray="5 5" stroke-width="2.5" /><polyline fill="none" points="150,100 160,100 449.7,100.0 449.7,240.0 160,240 150,240" stroke="blue" stroke-width="2.5" /><line stroke="blue" stroke-linecap="square" stroke-width="2.5" x1="160" x2="160" y1="100" y2="240" /><line stroke="red" stroke-dasharray="5 5" stroke-linecap="square" stroke-width="2.5" x1="99.7" x2="150.0" y1="166.15" y2="166.15" /><line stroke="red" stroke-dasharray="5 5" stroke-linecap="square" stroke-width="2.5" x1="99.7" x2="150.0" y1="173.85" y2="173.85" /><line stroke="blue" stroke-linecap="square" stroke-width="2.5" x1="150.0" x2="160.0" y1="166.15" y2="166.15" /><line stroke="blue" stroke-linecap="square" stroke-width="2.5" x1="150.0" x2="160.0" y1="173.85" y2="173.85" /><line stroke="red" stroke-dasharray="5 5" stroke-linecap="square" stroke-width="2.5" x1="160.0" x2="449.7" y1="166.15" y2="166.15" /><line stroke="red" stroke-dasharray="5 5" stroke-linecap="square" stroke-width="2.5" x1="160.0" x2="449.7" y1="173.85" y2="173.85" /><polyline fill="none" points="79.7,91.15 87.7,91.15 87.7,158.15 179.7,158.15 179.7,166.15 79.7,166.15 79.7,91.15" stroke="red" stroke-dasharray="5 5" stroke-width="2.5" /><polyline fill="none" points="79.7,248.85 87.7,248.85 87.7,181.85 179.7,181.85 179.7,173.85 79.7,173.85 79.7,248.85" stroke="red" stroke-dasharray="5 5" stroke-width="2.5" /><rect fill="black" height="23.7" stroke="black" stroke-width="2.5" width="12" x="151.7" y="158.15" /><line stroke="black" stroke-linecap="square" stroke-width="2.5" x1="157.7" x2="157.7" y1="148.15" y2="191.85" /><rect fill="black" height="23.7" stroke="black" stroke-width="2.5" width="12" x="121.7" y="158.15" /><line stroke="black" stroke-linecap="square" stroke-width="2.5" x1="127.7" x2="127.7" y1="148.15" y2="191.85" /><rect fill="black" height="12" stroke="black" stroke-width="2.5" width="17.4" x="70.3" y="107.15" /><line stroke="black" stroke-linecap="square" stroke-width="2.5" x1="60.3" x2="97.7" y1="113.15" y2="113.15" /><rect fill="black" height="12" stroke="black" stroke-width="2.5" width="17.4" x="70.3" y="220.85" /><line stroke="black" stroke-linecap="square" stroke-width="2.5" x1="60.3" x2="104.0" y1="226.85" y2="226.85" /><line stroke="#D8D8D8" stroke-linecap="square" stroke-opacity="0.7" stroke-width="2.5" x1="79.7" x2="-104.0" y1="91.15" y2="91.15" /><line stroke="#D8D8D8" stroke-linecap="square" stroke-opacity="0.7" stroke-width="2.5" x1="70.3" x2="-104.7" y1="113.15" y2="113.15" /><line marker-end="url(#id63)" marker-start="url(#id64)" stroke="black" stroke-linecap="square" stroke-width="2.5" x1="-104.7" x2="-104.7" y1="91.15" y2="113.15" /><text fill="black" font-family="sans-serif" font-size="28" x="-154.7" y="102.15">22</text><line stroke="black" stroke-linecap="square" stroke-opacity="1.0" stroke-width="2.5" x1="-114.7" x2="-94.7" y1="91.15" y2="91.15" /><line stroke="black" stroke-linecap="square" stroke-opacity="1.0" stroke-width="2.5" x1="-114.7" x2="-94.7" y1="113.15" y2="113.15" /><line stroke="#D8D8D8" stroke-linecap="square" stroke-opacity="0.7" stroke-width="2.5" x1="79.7" x2="-104.0" y1="248.85" y2="248.85" /><line stroke="#D8D8D8" stroke-linecap="square" stroke-opacity="0.7" stroke-width="2.5" x1="70.3" x2="-104.7" y1="226.85" y2="226.85" /><line marker-end="url(#id65)" marker-start="url(#id66)" stroke="black" stroke-linecap="square" stroke-width="2.5" x1="-104.7" x2="-104.7" y1="248.85" y2="226.85" /><text fill="black" font-family="sans-serif" font-size="28" x="-154.7" y="237.85">22</text><line stroke="black" stroke-linecap="square" stroke-opacity="1.0" stroke-width="2.5" x1="-114.7" x2="-94.7" y1="248.85" y2="248.85" /><line stroke="black" stroke-linecap="square" stroke-opacity="1.0" stroke-width="2.5" x1="-114.7" x2="-94.7" y1="226.85" y2="226.85" /><line stroke="#D8D8D8" stroke-linecap="square" stroke-opacity="0.7" stroke-width="2.5" x1="157.7" x2="157.7" y1="158.15" y2="-36.85" /><line stroke="#D8D8D8" stroke-linecap="square" stroke-opacity="0.7" stroke-width="2.5" x1="179.7" x2="179.7" y1="158.15" y2="-36.85" /><line marker-end="url(#id67)" marker-start="url(#id68)" stroke="black" stroke-linecap="square" stroke-width="2.5" x1="157.7" x2="179.7" y1="-36.85" y2="-36.85" /><text fill="black" font-family="sans-serif" font-size="28" x="168.7" y="-46.85">22</text><line stroke="black" stroke-linecap="square" stroke-opacity="1.0" stroke-width="2.5" x1="157.7" x2="157.7" y1="-46.85" y2="-26.85" /><line stroke="black" stroke-linecap="square" stroke-opacity="1.0" stroke-width="2.5" x1="179.7" x2="179.7" y1="-46.85" y2="-26.85" /><line stroke="#D8D8D8" stroke-linecap="square" stroke-opacity="0.7" stroke-width="2.5" x1="127.7" x2="127.7" y1="158.15" y2="-36.85" /><line marker-end="url(#id69)" marker-start="url(#id70)" stroke="black" stroke-linecap="square" stroke-width="2.5" x1="127.7" x2="157.7" y1="-61.85" y2="-61.85" /><text fill="black" font-family="sans-serif" font-size="28" x="142.7" y="-71.85">30</text><line stroke="black" stroke-linecap="square" stroke-opacity="1.0" stroke-width="2.5" x1="127.7" x2="127.7" y1="-71.85" y2="-51.85" /><line stroke="black" stroke-linecap="square" stroke-opacity="1.0" stroke-width="2.5" x1="157.7" x2="157.7" y1="-71.85" y2="-51.85" /><polyline fill="none" marker-start="url(#id71)" points="449.7,170.0 449.7,170.0 657.7,170.0" stroke="black" stroke-width="2.5" /><text fill="black" font-family="sans-serif" font-size="28" x="470.5" y="152.0">Beam ISMB 300</text><text fill="black" font-family="sans-serif" font-size="28" x="470.5" y="188.0" /><polyline fill="none" marker-start="url(#id72)" points="75,0 75.0,-150.0 283.0,-150.0" stroke="black" stroke-width="2.5" /><text fill="black" font-family="sans-serif" font-size="28" x="95.8" y="-168.0">Beam ISMB 450</text><text fill="black" font-family="sans-serif" font-size="28" x="95.8" y="-117.0" /><polyline fill="none" marker-start="url(#id73)" points="179.7,158.15 322.710431111,38.15 530.710431111,38.15" stroke="black" stroke-width="2.5" /><text fill="black" font-family="sans-serif" font-size="28" x="343.510431111" y="20.15">ISA. 100x75x8</text><text fill="black" font-family="sans-serif" font-size="28" x="343.510431111" y="71.15" /><polyline fill="none" marker-start="url(#id74)" points="157.7,158.15 397.7,-81.85 765.7,-81.85" stroke="black" stroke-width="2.5" /><text fill="black" font-family="sans-serif" font-size="28" x="434.5" y="-99.85">10 nos 12Ø holes</text><text fill="black" font-family="sans-serif" font-size="28" x="434.5" y="-48.85">for M12bolts(grade 4.8)</text><polyline fill="none" marker-start="url(#id75)" points="70.3,226.85 234.844826719,321.85 602.844826719,321.85" stroke="black" stroke-width="2.5" /><text fill="black" font-family="sans-serif" font-size="28" x="271.644826719" y="303.85">14 nos 12Ø holes</text><text fill="black" font-family="sans-serif" font-size="28" x="271.644826719" y="339.85">for M12bolts(grade 4.8)</text><line stroke="black" stroke-linecap="square" stroke-width="2.5" x1="150.0" x2="150.0" y1="450.0" y2="450.0" /><line stroke="black" stroke-linecap="square" stroke-width="2.5" x1="170.0" x2="170.0" y1="450.0" y2="450.0" /><line marker-end="url(#id76)" stroke="black" stroke-linecap="square" stroke-width="2.5" x1="100.0" x2="150" y1="440.0" y2="440" /><line marker-end="url(#id76)" stroke="black" stroke-linecap="butt" stroke-width="2.5" x1="220.0" x2="170" y1="440.0" y2="440" /><text fill="black" font-family="sans-serif" font-size="28" x="230.0" y="440.0">20</text><line stroke="#D8D8D8" stroke-linecap="square" stroke-opacity="0.7" stroke-width="2.5" x1="150" x2="150" y1="340" y2="440" /><line stroke="#D8D8D8" stroke-linecap="square" stroke-opacity="0.7" stroke-width="2.5" x1="160" x2="160" y1="240" y2="395" /><text fill="black" font-family="sans-serif" font-size="30" x="150" y="640">Top view (Sec A-A)</text><text fill="black" font-family="sans-serif" font-size="30" x="500" y="640">(All distances are in "mm")</text></svg>