<?xml version="1.0" encoding="utf-8" ?>
<svg baseProfile="full" height="100%" version="1.1" viewBox="-500 -350 1500 1300" width="100%" xmlns="http://www.w3.org/2000/svg" xmlns:ev="http://www.w3.org/2001/xml-events" xmlns:xlink="http://www.w3.org/1999/xlink"><defs><marker id="id43" markerHeight="10" markerWidth="10" orient="auto" refX="0" refY="5"><path d="M 0 0 L 10 5 L 0 10 z" fill="blue" stroke="black" /></marker><marker id="id44" markerHeight="10" markerWidth="10" orient="auto" refX="0" refY="5"><path d="M 0 0 L 10 5 L 0 10 z" fill="blue" stroke="black" /></marker><marker id="id45" markerHeight="30" markerWidth="30" orient="auto" refX="8" refY="3"><path d=" M0,0 L3,3 L0,6 L8,3 L0,0" fill="black" /></marker><marker id="id46" markerHeight="20" markerWidth="30" orient="auto" refX="0" refY="3"><path d=" M0,3 L8,6 L5,3 L8,0 L0,3" fill="black" /></marker><marker id="id47" markerHeight="30" markerWidth="30" orient="auto" refX="8" refY="3"><path d=" M0,0 L3,3 L0,6 L8,3 L0,0" fill="black" /></marker><marker id="id48" markerHeight="20" markerWidth="30" orient="auto" refX="0" refY="3"><path d=" M0,3 L8,6 L5,3 L8,0 L0,3" fill="black" /></marker><marker id="id49" markerHeight="30" markerWidth="30" orient="auto" refX="8" refY="3"><path d=" M0,0 L3,3 L0,6 L8,3 L0,0" fill="black" /></marker><marker id="id50" markerHeight="20" markerWidth="30" orient="auto" refX="0" refY="3"><path d=" M0,3 L8,6 L5,3 L8,0 L0,3" fill="black" /></marker><marker id="id51" markerHeight="30" markerWidth="30" orient="auto" refX="8" refY="3"><path d=" M0,0 L3,3 L0,6 L8,3 L0,0" fill="black" /></marker><marker id="id52" markerHeight="20" markerWidth="30" orient="auto" refX="0" refY="3"><path d=" M0,3 L8,6 L5,3 L8,0 L0,3" fill="black" /></marker><marker id="id53" markerHeight="30" markerWidth="30" orient="auto" refX="8" refY="3"><path d=" M0,0 L3,3 L0,6 L8,3 L0,0" fill="black" /></marker><marker id="id54" markerHeight="20" markerWidth="30" orient="auto" refX="0" refY="3"><path d=" M0,3 L8,6 L5,3 L8,0 L0,3" fill="black" /></marker><marker id="id55" markerHeight="30" markerWidth="30" orient="auto" refX="8" refY="3"><path d=" M0,0 L3,3 L0,6 L8,3 L0,0" fill="black" /></marker><marker id="id56" markerHeight="20" markerWidth="30" orient="auto" refX="0" refY="3"><path d=" M0,3 L8,6 L5,3 L8,0 L0,3" fill="black" /></marker><marker id="id57" markerHeight="30" markerWidth="30" orient="auto" refX="8" refY="3"><path d=" M0,0 L3,3 L0,6 L8,3 L0,0" fill="black" /></marker><marker id="id58" markerHeight="20" markerWidth="30" orient="auto" refX="0" refY="3"><path d=" M0,3 L8,6 L5,3 L8,0 L0,3" fill="black" /></marker><marker id="id59" markerHeight="30" markerWidth="30" orient="auto" refX="8" refY="3"><path d=" M0,0 L3,3 L0,6 L8,3 L0,0" fill="black" /></marker><marker id="id60" markerHeight="20" markerWidth="30" orient="auto" refX="0" refY="3"><path d=" M0,3 L8,6 L5,3 L8,0 L0,3" fill="black" /></marker><marker id="id61" markerHeight="30" markerWidth="30" orient="auto" refX="8" refY="3"><path d=" M0,0 L3,3 L0,6 L8,3 L0,0" fill="black" /></marker><marker id="id62" markerHeight="20" markerWidth="30" orient="auto" refX="0" refY="3"><path d=" M0,3 L8,6 L5,3 L8,0 L0,3" fill="black" /></marker><marker id="id63" markerHeight="20" markerWidth="30" orient="auto" refX="0" refY="3"><path d=" M0,3 L8,6 L5,3 L8,0 L0,3" fill="black" /></marker><marker id="id64" markerHeight="20" markerWidth="30" orient="auto" refX="0" refY="3"><path d=" M0,3 L8,6 L5,3 L8,0 L0,3" fill="black" /></marker><marker id="id65" markerHeight="20" markerWidth="30" orient="auto" refX="0" refY="3"><path d=" M0,3 L8,6 L5,3 L8,0 L0,3" fill="black" /></marker><marker id="id66" markerHeight="20" markerWidth="30" orient="auto" refX="0" refY="3"><path d=" M0,3 L8,6 L5,3 L8,0 L0,3" fill="black" /></marker><marker id="id67" markerHeight="20" markerWidth="30" orient="auto" refX="0" refY="3"><path d=" M0,3 L8,6 L5,3 L8,0 L0,3" fill="black" /></marker></defs><line marker-end="url(#id43)" stroke="black" stroke-linecap="square" stroke-width="2.5" x1="0" x2="0" y1="-320" y2="-270" /><text fill="black" font-family="sans-serif" font-size="52" x="-10" y="-190">A</text><line marker-end="url(#id44)" stroke="black" stroke-linecap="square" stroke-width="2.5" x1="449.7" x2="449.7" y1="-320.0" y2="-270.0" /><text fill="black" font-family="sans-serif" font-size="52" x="439.7" y="-190.0">A</text><line stroke="#666666" stroke-linecap="square" stroke-width="1.0" x1="0" x2="449.7" y1="-320" y2="-320.0" /><polyline fill="none" points="0,0 150,0 150.0,17.4 79.7,17.4 79.7,432.6 150.0,432.6 150.0,450.0 0.0,450.0 0.0,432.6 70.3,432.6 70.3,17.4 0.0,17.4 0,0" stroke="blue" stroke-width="2.5" /><polyline fill="none" points="160.0,17.4 160,0 449.7,0.0 449.7,300.0 99.7,300.0 99.7,286.9 99.7,232.4" stroke="blue" stroke-width="2.5" /><line stroke="red" stroke-dasharray="5 5" stroke-linecap="square" stroke-width="2.5" x1="99.7" x2="99.7" y1="32.4" y2="232.4" /><line stroke="blue" stroke-linecap="square" stroke-width="2.5" x1="160.0" x2="449.7" y1="13.1" y2="13.1" /><line stroke="blue" stroke-linecap="square" stroke-width="2.5" x1="99.7" x2="449.7" y1="286.9" y2="286.9" /><rect fill="none" height="200" stroke="blue" stroke-width="2.5" width="8" x="79.7" y="32.4" /><rect fill="none" height="200" stroke="blue" stroke-width="2.5" width="82" x="87.7" y="32.4" /><path d="M 160.0 17.4 A 15.0 15.0 , 0 , 0 , 1 , 145.0 32.4" fill="none" stroke="blue" stroke-width="2.5" /><circle cx="139.7" cy="62.4" fill="none" r="8" stroke="blue" stroke-width="1.5" /><line stroke="red" stroke-linecap="square" stroke-width="2.0" x1="127.7" x2="151.7" y1="62.4" y2="62.4" /><line stroke="red" stroke-linecap="square" stroke-width="2.0" x1="139.7" x2="139.7" y1="50.4" y2="74.4" /><circle cx="139.7" cy="108.4" fill="none" r="8" stroke="blue" stroke-width="1.5" /><line stroke="red" stroke-linecap="square" stroke-width="2.0" x1="127.7" x2="151.7" y1="108.4" y2="108.4" /><line stroke="red" stroke-linecap="square" stroke-width="2.0" x1="139.7" x2="139.7" y1="96.4" y2="120.4" /><circle cx="139.7" cy="154.4" fill="none" r="8" stroke="blue" stroke-width="1.5" /><line stroke="red" stroke-linecap="square" stroke-width="2.0" x1="127.7" x2="151.7" y1="154.4" y2="154.4" /><line stroke="red" stroke-linecap="square" stroke-width="2.0" x1="139.7" x2="139.7" y1="142.4" y2="166.4" /><circle cx="139.7" cy="200.4" fill="none" r="8" stroke="blue" stroke-width="1.5" /><line stroke="red" stroke-linecap="square" stroke-width="2.0" x1="127.7" x2="151.7" y1="200.4" y2="200.4" /><line stroke="red" stroke-linecap="square" stroke-width="2.0" x1="139.7" x2="139.7" y1="188.4" y2="212.4" /><rect fill="black" height="16" stroke="black" stroke-width="2.0" width="17.4" x="70.3" y="54.4" /><line stroke="black" stroke-linecap="square" stroke-width="2.0" x1="60.3" x2="105.7" y1="62.4" y2="62.4" /><rect fill="black" height="16" stroke="black" stroke-width="2.0" width="17.4" x="70.3" y="124.4" /><line stroke="black" stroke-linecap="square" stroke-width="2.0" x1="60.3" x2="105.7" y1="132.4" y2="132.4" /><rect fill="black" height="16" stroke="black" stroke-width="2.0" width="17.4" x="70.3" y="194.4" /><line stroke="black" stroke-linecap="square" stroke-width="2.0" x1="60.3" x2="105.7" y1="202.4" y2="202.4" /><line stroke="#D8D8D8" stroke-linecap="square" stroke-opacity="0.7" stroke-width="2.5" x1="169.7" x2="669.7" y1="32.4" y2="32.4" /><line stroke="#D8D8D8" stroke-linecap="square" stroke-opacity="0.7" stroke-width="2.5" x1="169.7" x2="669.7" y1="232.4" y2="232.4" /><line marker-end="url(#id45)" marker-start="url(#id46)" stroke="black" stroke-linecap="square" stroke-width="2.5" x1="519.7" x2="519.7" y1="32.4" y2="232.4" /><text fill="black" font-family="sans-serif" font-size="28" x="529.7" y="132.4">200</text><line stroke="black" stroke-linecap="square" stroke-opacity="1.0" stroke-width="2.5" x1="529.7" x2="509.7" y1="32.4" y2="32.4" /><line stroke="black" stroke-linecap="square" stroke-opacity="1.0" stroke-width="2.5" x1="529.7" x2="509.7" y1="232.4" y2="232.4" /><line stroke="#D8D8D8" stroke-linecap="square" stroke-opacity="0.7" stroke-width="2.5" x1="139.7" x2="639.7" y1="62.4" y2="62.4" /><line stroke="#D8D8D8" stroke-linecap="square" stroke-opacity="0.7" stroke-width="2.5" x1="139.7" x2="639.7" y1="200.4" y2="200.4" /><line marker-end="url(#id47)" marker-start="url(#id48)" stroke="black" stroke-linecap="square" stroke-width="2.5" x1="639.7" x2="639.7" y1="62.4" y2="200.4" /><text fill="black" font-family="sans-serif" font-size="28" x="649.7" y="131.4">3@46 c/c</text><line stroke="black" stroke-linecap="square" stroke-opacity="1.0" stroke-width="2.5" x1="649.7" x2="629.7" y1="62.4" y2="62.4" /><line stroke="black" stroke-linecap="square" stroke-opacity="1.0" stroke-width="2.5" x1="649.7" x2="629.7" y1="200.4" y2="200.4" /><line marker-end="url(#id49)" marker-start="url(#id50)" stroke="black" stroke-linecap="square" stroke-width="2.5" x1="639.7" x2="639.7" y1="62.4" y2="32.4" /><text fill="black" font-family="sans-serif" font-size="28" x="649.7" y="47.4">30</text><line stroke="black" stroke-linecap="square" stroke-opacity="1.0" stroke-width="2.5" x1="649.7" x2="629.7" y1="62.4" y2="62.4" /><line stroke="black" stroke-linecap="square" stroke-opacity="1.0" stroke-width="2.5" x1="649.7" x2="629.7" y1="32.4" y2="32.4" /><line marker-end="url(#id51)" marker-start="url(#id52)" stroke="black" stroke-linecap="square" stroke-width="2.5" x1="639.7" x2="639.7" y1="200.4" y2="230.4" /><text fill="black" font-family="sans-serif" font-size="28" x="649.7" y="215.4">30</text><line stroke="black" stroke-linecap="square" stroke-opacity="1.0" stroke-width="2.5" x1="649.7" x2="629.7" y1="200.4" y2="200.4" /><line stroke="black" stroke-linecap="square" stroke-opacity="1.0" stroke-width="2.5" x1="649.7" x2="629.7" y1="230.4" y2="230.4" /><line stroke="#D8D8D8" stroke-linecap="square" stroke-opacity="0.7" stroke-width="2.5" x1="139.7" x2="139.7" y1="32.4" y2="-180.0" /><line stroke="#D8D8D8" stroke-linecap="square" stroke-opacity="0.7" stroke-width="2.5" x1="169.7" x2="169.7" y1="32.4" y2="-180.0" /><line marker-end="url(#id53)" marker-start="url(#id54)" stroke="black" stroke-linecap="square" stroke-width="2.5" x1="169.7" x2="139.7" y1="-180.0" y2="-180.0" /><text fill="black" font-family="sans-serif" font-size="28" x="154.7" y="-200.0">30</text><line stroke="black" stroke-linecap="square" stroke-opacity="1.0" stroke-width="2.5" x1="169.7" x2="169.7" y1="-190.0" y2="-170.0" /><line stroke="black" stroke-linecap="square" stroke-opacity="1.0" stroke-width="2.5" x1="139.7" x2="139.7" y1="-190.0" y2="-170.0" /><line stroke="#D8D8D8" stroke-linecap="square" stroke-opacity="0.7" stroke-width="2.5" x1="0" x2="-30" y1="0" y2="0" /><line stroke="#D8D8D8" stroke-linecap="square" stroke-opacity="0.7" stroke-width="2.5" x1="99.7" x2="-30.0" y1="32.4" y2="32.4" /><line marker-end="url(#id55)" marker-start="url(#id56)" stroke="black" stroke-linecap="square" stroke-width="2.5" x1="-30.0" x2="-30.0" y1="0.0" y2="32.4" /><text fill="black" font-family="sans-serif" font-size="28" x="-80.0" y="16.2">32</text><line stroke="black" stroke-linecap="square" stroke-opacity="1.0" stroke-width="2.5" x1="-40.0" x2="-20.0" y1="0.0" y2="0.0" /><line stroke="black" stroke-linecap="square" stroke-opacity="1.0" stroke-width="2.5" x1="-40.0" x2="-20.0" y1="32.4" y2="32.4" /><line stroke="#D8D8D8" stroke-linecap="square" stroke-opacity="0.7" stroke-width="2.5" x1="79.7" x2="-24.15" y1="32.4" y2="32.4" /><line stroke="#D8D8D8" stroke-linecap="square" stroke-opacity="0.7" stroke-width="2.5" x1="70.3" x2="-25.85" y1="62.4" y2="62.4" /><line marker-end="url(#id57)" marker-start="url(#id58)" stroke="black" stroke-linecap="square" stroke-width="2.5" x1="-25.85" x2="-25.85" y1="32.4" y2="62.4" /><text fill="black" font-family="sans-serif" font-size="28" x="-75.85" y="47.4">30</text><line stroke="black" stroke-linecap="square" stroke-opacity="1.0" stroke-width="2.5" x1="-35.85" x2="-15.85" y1="32.4" y2="32.4" /><line stroke="black" stroke-linecap="square" stroke-opacity="1.0" stroke-width="2.5" x1="-35.85" x2="-15.85" y1="62.4" y2="62.4" /><line stroke="#D8D8D8" stroke-linecap="square" stroke-opacity="0.7" stroke-width="2.5" x1="70.3" x2="-25.85" y1="202.4" y2="202.4" /><line marker-end="url(#id59)" marker-start="url(#id60)" stroke="black" stroke-linecap="square" stroke-width="2.5" x1="-25.85" x2="-25.85" y1="62.4" y2="202.4" /><text fill="black" font-family="sans-serif" font-size="28" x="-175.85" y="132.4">2@70 c/c</text><line stroke="black" stroke-linecap="square" stroke-opacity="1.0" stroke-width="2.5" x1="-35.85" x2="-15.85" y1="62.4" y2="62.4" /><line stroke="black" stroke-linecap="square" stroke-opacity="1.0" stroke-width="2.5" x1="-35.85" x2="-15.85" y1="202.4" y2="202.4" /><line stroke="#D8D8D8" stroke-linecap="square" stroke-opacity="0.7" stroke-width="2.5" x1="79.7" x2="-24.15" y1="232.4" y2="232.4" /><line marker-end="url(#id61)" marker-start="url(#id62)" stroke="black" stroke-linecap="square" stroke-width="2.5" x1="-25.85" x2="-25.85" y1="232.4" y2="202.4" /><text fill="black" font-family="sans-serif" font-size="28" x="-75.85" y="217.4">30</text><line stroke="black" stroke-linecap="square" stroke-opacity="1.0" stroke-width="2.5" x1="-35.85" x2="-15.85" y1="232.4" y2="232.4" /><line stroke="black" stroke-linecap="square" stroke-opacity="1.0" stroke-width="2.5" x1="-35.85" x2="-15.85" y1="202.4" y2="202.4" /><polyline fill="none" marker-start="url(#id63)" points="449.7,300.0 536.302540378,350.0 744.302540378,350.0" stroke="black" stroke-width="2.5" /><text fill="black" font-family="sans-serif" font-size="28" x="557.102540378" y="332.0">Beam ISMB 300</text><text fill="black" font-family="sans-serif" font-size="28" x="557.102540378" y="368.0" /><polyline fill="none" marker-start="url(#id64)" points="0,0 -100.0,-100.0 -308.0,-100.0" stroke="black" stroke-width="2.5" /><text fill="black" font-family="sans-serif" font-size="28" x="-287.2" y="-118.0">Beam ISMB 450</text><text fill="black" font-family="sans-serif" font-size="28" x="-328.8" y="-82.0" /><polyline fill="none" marker-start="url(#id65)" points="139.7,62.4 326.7,-124.6 694.7,-124.6" stroke="black" stroke-width="2.5" /><text fill="black" font-family="sans-serif" font-size="28" x="363.5" y="-142.6">4 nos 16Ø holes</text><text fill="black" font-family="sans-serif" font-size="28" x="363.5" y="-91.6">for M16bolts(grade 4.8)</text><polyline fill="none" marker-start="url(#id66)" points="70.3,202.4 24.1119784648,282.4 -343.888021535,282.4" stroke="black" stroke-width="2.5" /><text fill="black" font-family="sans-serif" font-size="28" x="-307.088021535" y="264.4">6 nos 16Ø holes</text><text fill="black" font-family="sans-serif" font-size="28" x="-380.688021535" y="300.4">for M16bolts(grade 4.8)</text><polyline fill="none" marker-start="url(#id67)" points="169.7,232.4 214.608284651,400.0 390.608284651,400.0" stroke="black" stroke-width="2.5" /><text fill="black" font-family="sans-serif" font-size="28" x="232.208284651" y="382.0">ISA.90X90X8</text><text fill="black" font-family="sans-serif" font-size="28" x="232.208284651" y="418.0" /><text fill="black" font-family="sans-serif" font-size="30" x="50" y="600">Front view (Sec C-C)</text><text fill="black" font-family="sans-serif" font-size="30" x="400" y="600">(All distances are in "mm")</text></svg>