<?xml version="1.0" encoding="UTF-8" standalone="no"?>
<svg
   xmlns:dc="http://purl.org/dc/elements/1.1/"
   xmlns:cc="http://creativecommons.org/ns#"
   xmlns:rdf="http://www.w3.org/1999/02/22-rdf-syntax-ns#"
   xmlns:svg="http://www.w3.org/2000/svg"
   xmlns="http://www.w3.org/2000/svg"
   xmlns:sodipodi="http://sodipodi.sourceforge.net/DTD/sodipodi-0.dtd"
   xmlns:inkscape="http://www.inkscape.org/namespaces/inkscape"
   height="100%"
   version="1.1"
   viewBox="-500 -350 1500 1300"
   width="100%"
   id="svg2"
   inkscape:version="0.91 r13725"
   sodipodi:docname="project3.svg">
  <metadata
     id="metadata275">
    <rdf:RDF>
      <cc:Work
         rdf:about="">
        <dc:format>image/svg+xml</dc:format>
        <dc:type
           rdf:resource="http://purl.org/dc/dcmitype/StillImage" />
        <dc:title></dc:title>
      </cc:Work>
    </rdf:RDF>
  </metadata>
  <sodipodi:namedview
     pagecolor="#ffffff"
     bordercolor="#666666"
     borderopacity="1"
     objecttolerance="10"
     gridtolerance="10"
     guidetolerance="10"
     inkscape:pageopacity="0"
     inkscape:pageshadow="2"
     inkscape:window-width="1920"
     inkscape:window-height="1017"
     id="namedview273"
     showgrid="false"
     inkscape:zoom="0.51346831"
     inkscape:cx="750"
     inkscape:cy="496.54566"
     inkscape:window-x="-8"
     inkscape:window-y="-8"
     inkscape:window-maximized="1"
     inkscape:current-layer="svg2" />
  <defs
     id="defs4">
    <marker
       id="id1"
       markerHeight="10"
       markerWidth="10"
       orient="auto"
       refX="0"
       refY="5">
      <path
         d="M 0 0 L 10 5 L 0 10 z"
         fill="blue"
         stroke="black"
         id="path7" />
    </marker>
    <marker
       id="id2"
       markerHeight="10"
       markerWidth="10"
       orient="auto"
       refX="0"
       refY="5">
      <path
         d="M 0 0 L 10 5 L 0 10 z"
         fill="blue"
         stroke="black"
         id="path10" />
    </marker>
    <marker
       id="id3"
       markerHeight="30"
       markerWidth="30"
       orient="auto"
       refX="8"
       refY="3">
      <path
         d=" M0,0 L3,3 L0,6 L8,3 L0,0"
         fill="black"
         id="path13" />
    </marker>
    <marker
       id="id4"
       markerHeight="20"
       markerWidth="30"
       orient="auto"
       refX="0"
       refY="3">
      <path
         d=" M0,3 L8,6 L5,3 L8,0 L0,3"
         fill="black"
         id="path16" />
    </marker>
    <marker
       id="id5"
       markerHeight="30"
       markerWidth="30"
       orient="auto"
       refX="8"
       refY="3">
      <path
         d=" M0,0 L3,3 L0,6 L8,3 L0,0"
         fill="black"
         id="path19" />
    </marker>
    <marker
       id="id6"
       markerHeight="20"
       markerWidth="30"
       orient="auto"
       refX="0"
       refY="3">
      <path
         d=" M0,3 L8,6 L5,3 L8,0 L0,3"
         fill="black"
         id="path22" />
    </marker>
    <marker
       id="id7"
       markerHeight="30"
       markerWidth="30"
       orient="auto"
       refX="8"
       refY="3">
      <path
         d=" M0,0 L3,3 L0,6 L8,3 L0,0"
         fill="black"
         id="path25" />
    </marker>
    <marker
       id="id8"
       markerHeight="20"
       markerWidth="30"
       orient="auto"
       refX="0"
       refY="3">
      <path
         d=" M0,3 L8,6 L5,3 L8,0 L0,3"
         fill="black"
         id="path28" />
    </marker>
    <marker
       id="id9"
       markerHeight="30"
       markerWidth="30"
       orient="auto"
       refX="8"
       refY="3">
      <path
         d=" M0,0 L3,3 L0,6 L8,3 L0,0"
         fill="black"
         id="path31" />
    </marker>
    <marker
       id="id10"
       markerHeight="20"
       markerWidth="30"
       orient="auto"
       refX="0"
       refY="3">
      <path
         d=" M0,3 L8,6 L5,3 L8,0 L0,3"
         fill="black"
         id="path34" />
    </marker>
    <marker
       id="id11"
       markerHeight="30"
       markerWidth="30"
       orient="auto"
       refX="8"
       refY="3">
      <path
         d=" M0,0 L3,3 L0,6 L8,3 L0,0"
         fill="black"
         id="path37" />
    </marker>
    <marker
       id="id12"
       markerHeight="20"
       markerWidth="30"
       orient="auto"
       refX="0"
       refY="3">
      <path
         d=" M0,3 L8,6 L5,3 L8,0 L0,3"
         fill="black"
         id="path40" />
    </marker>
    <marker
       id="id13"
       markerHeight="30"
       markerWidth="30"
       orient="auto"
       refX="8"
       refY="3">
      <path
         d=" M0,0 L3,3 L0,6 L8,3 L0,0"
         fill="black"
         id="path43" />
    </marker>
    <marker
       id="id14"
       markerHeight="20"
       markerWidth="30"
       orient="auto"
       refX="0"
       refY="3">
      <path
         d=" M0,3 L8,6 L5,3 L8,0 L0,3"
         fill="black"
         id="path46" />
    </marker>
    <marker
       id="id15"
       markerHeight="30"
       markerWidth="30"
       orient="auto"
       refX="8"
       refY="3">
      <path
         d=" M0,0 L3,3 L0,6 L8,3 L0,0"
         fill="black"
         id="path49" />
    </marker>
    <marker
       id="id16"
       markerHeight="20"
       markerWidth="30"
       orient="auto"
       refX="0"
       refY="3">
      <path
         d=" M0,3 L8,6 L5,3 L8,0 L0,3"
         fill="black"
         id="path52" />
    </marker>
    <marker
       id="id17"
       markerHeight="30"
       markerWidth="30"
       orient="auto"
       refX="8"
       refY="3">
      <path
         d=" M0,0 L3,3 L0,6 L8,3 L0,0"
         fill="black"
         id="path55" />
    </marker>
    <marker
       id="id18"
       markerHeight="20"
       markerWidth="30"
       orient="auto"
       refX="0"
       refY="3">
      <path
         d=" M0,3 L8,6 L5,3 L8,0 L0,3"
         fill="black"
         id="path58" />
    </marker>
    <marker
       id="id19"
       markerHeight="30"
       markerWidth="30"
       orient="auto"
       refX="8"
       refY="3">
      <path
         d=" M0,0 L3,3 L0,6 L8,3 L0,0"
         fill="black"
         id="path61" />
    </marker>
    <marker
       id="id20"
       markerHeight="20"
       markerWidth="30"
       orient="auto"
       refX="0"
       refY="3">
      <path
         d=" M0,3 L8,6 L5,3 L8,0 L0,3"
         fill="black"
         id="path64" />
    </marker>
    <marker
       id="id21"
       markerHeight="20"
       markerWidth="30"
       orient="auto"
       refX="0"
       refY="3">
      <path
         d=" M0,3 L8,6 L5,3 L8,0 L0,3"
         fill="black"
         id="path67" />
    </marker>
    <marker
       id="id22"
       markerHeight="20"
       markerWidth="30"
       orient="auto"
       refX="0"
       refY="3">
      <path
         d=" M0,3 L8,6 L5,3 L8,0 L0,3"
         fill="black"
         id="path70" />
    </marker>
    <marker
       id="id23"
       markerHeight="20"
       markerWidth="30"
       orient="auto"
       refX="0"
       refY="3">
      <path
         d=" M0,3 L8,6 L5,3 L8,0 L0,3"
         fill="black"
         id="path73" />
    </marker>
    <marker
       id="id24"
       markerHeight="20"
       markerWidth="30"
       orient="auto"
       refX="0"
       refY="3">
      <path
         d=" M0,3 L8,6 L5,3 L8,0 L0,3"
         fill="black"
         id="path76" />
    </marker>
    <marker
       id="id25"
       markerHeight="20"
       markerWidth="30"
       orient="auto"
       refX="0"
       refY="3">
      <path
         d=" M0,3 L8,6 L5,3 L8,0 L0,3"
         fill="black"
         id="path79" />
    </marker>
  </defs>
  <line
     marker-end="url(#id1)"
     stroke="black"
     stroke-linecap="square"
     stroke-width="2.5"
     x1="0"
     x2="0"
     y1="-320"
     y2="-270"
     id="line81" />
  <text
     fill="black"
     font-family="sans-serif"
     font-size="52"
     x="-10"
     y="-190"
     id="text83">A</text>
  <line
     marker-end="url(#id2)"
     stroke="black"
     stroke-linecap="square"
     stroke-width="2.5"
     x1="449.7"
     x2="449.7"
     y1="-320.0"
     y2="-270.0"
     id="line85" />
  <text
     fill="black"
     font-family="sans-serif"
     font-size="52"
     x="439.7"
     y="-190.0"
     id="text87">A</text>
  <line
     stroke="#666666"
     stroke-linecap="square"
     stroke-width="1.0"
     x1="0"
     x2="449.7"
     y1="-320"
     y2="-320.0"
     id="line89" />
  <polyline
     fill="none"
     points="0,0 150,0 150.0,17.4 79.7,17.4 79.7,432.6 150.0,432.6 150.0,450.0 0.0,450.0 0.0,432.6 70.3,432.6 70.3,17.4 0.0,17.4 0,0"
     stroke="blue"
     stroke-width="2.5"
     id="polyline91" />
  <polyline
     fill="none"
     points="160.0,17.4 160,0 449.7,0.0 449.7,300.0 99.7,300.0 99.7,286.9 99.7,256.4"
     stroke="blue"
     stroke-width="2.5"
     id="polyline93" />
  <line
     stroke="red"
     stroke-dasharray="5 5"
     stroke-linecap="square"
     stroke-width="2.5"
     x1="99.7"
     x2="99.7"
     y1="32.4"
     y2="256.4"
     id="line95" />
  <line
     stroke="blue"
     stroke-linecap="square"
     stroke-width="2.5"
     x1="160.0"
     x2="449.7"
     y1="13.1"
     y2="13.1"
     id="line97" />
  <line
     stroke="blue"
     stroke-linecap="square"
     stroke-width="2.5"
     x1="99.7"
     x2="449.7"
     y1="286.9"
     y2="286.9"
     id="line99" />
  <rect
     fill="none"
     height="224"
     stroke="blue"
     stroke-width="2.5"
     width="10"
     x="79.7"
     y="32.4"
     id="rect101" />
  <rect
     fill="none"
     height="224"
     stroke="blue"
     stroke-width="2.5"
     width="90"
     x="89.7"
     y="32.4"
     id="rect103" />
  <path
     d="M 160.0 17.4 A 15.0 15.0 , 0 , 0 , 1 , 145.0 32.4"
     fill="none"
     stroke="blue"
     stroke-width="2.5"
     id="path105" />
  <circle
     cx="142.7"
     cy="69.4"
     fill="none"
     r="10"
     stroke="blue"
     stroke-width="1.5"
     id="circle107" />
  <line
     stroke="red"
     stroke-linecap="square"
     stroke-width="2.0"
     x1="128.7"
     x2="156.7"
     y1="69.4"
     y2="69.4"
     id="line109" />
  <line
     stroke="red"
     stroke-linecap="square"
     stroke-width="2.0"
     x1="142.7"
     x2="142.7"
     y1="55.4"
     y2="83.4"
     id="line111" />
  <circle
     cx="142.7"
     cy="119.4"
     fill="none"
     r="10"
     stroke="blue"
     stroke-width="1.5"
     id="circle113" />
  <line
     stroke="red"
     stroke-linecap="square"
     stroke-width="2.0"
     x1="128.7"
     x2="156.7"
     y1="119.4"
     y2="119.4"
     id="line115" />
  <line
     stroke="red"
     stroke-linecap="square"
     stroke-width="2.0"
     x1="142.7"
     x2="142.7"
     y1="105.4"
     y2="133.4"
     id="line117" />
  <circle
     cx="142.7"
     cy="169.4"
     fill="none"
     r="10"
     stroke="blue"
     stroke-width="1.5"
     id="circle119" />
  <line
     stroke="red"
     stroke-linecap="square"
     stroke-width="2.0"
     x1="128.7"
     x2="156.7"
     y1="169.4"
     y2="169.4"
     id="line121" />
  <line
     stroke="red"
     stroke-linecap="square"
     stroke-width="2.0"
     x1="142.7"
     x2="142.7"
     y1="155.4"
     y2="183.4"
     id="line123" />
  <circle
     cx="142.7"
     cy="219.4"
     fill="none"
     r="10"
     stroke="blue"
     stroke-width="1.5"
     id="circle125" />
  <line
     stroke="red"
     stroke-linecap="square"
     stroke-width="2.0"
     x1="128.7"
     x2="156.7"
     y1="219.4"
     y2="219.4"
     id="line127" />
  <line
     stroke="red"
     stroke-linecap="square"
     stroke-width="2.0"
     x1="142.7"
     x2="142.7"
     y1="205.4"
     y2="233.4"
     id="line129" />
  <rect
     fill="black"
     height="20"
     stroke="black"
     stroke-width="2.0"
     width="19.4"
     x="70.3"
     y="84.4"
     id="rect131" />
  <line
     stroke="black"
     stroke-linecap="square"
     stroke-width="2.0"
     x1="60.3"
     x2="107.7"
     y1="94.4"
     y2="94.4"
     id="line133" />
  <rect
     fill="black"
     height="20"
     stroke="black"
     stroke-width="2.0"
     width="19.4"
     x="70.3"
     y="134.4"
     id="rect135" />
  <line
     stroke="black"
     stroke-linecap="square"
     stroke-width="2.0"
     x1="60.3"
     x2="107.7"
     y1="144.4"
     y2="144.4"
     id="line137" />
  <rect
     fill="black"
     height="20"
     stroke="black"
     stroke-width="2.0"
     width="19.4"
     x="70.3"
     y="184.4"
     id="rect139" />
  <line
     stroke="black"
     stroke-linecap="square"
     stroke-width="2.0"
     x1="60.3"
     x2="107.7"
     y1="194.4"
     y2="194.4"
     id="line141" />
  <line
     stroke="#D8D8D8"
     stroke-linecap="square"
     stroke-opacity="0.7"
     stroke-width="2.5"
     x1="179.7"
     x2="679.7"
     y1="32.4"
     y2="32.4"
     id="line143" />
  <line
     stroke="#D8D8D8"
     stroke-linecap="square"
     stroke-opacity="0.7"
     stroke-width="2.5"
     x1="179.7"
     x2="679.7"
     y1="256.4"
     y2="256.4"
     id="line145" />
  <line
     marker-end="url(#id3)"
     marker-start="url(#id4)"
     stroke="black"
     stroke-linecap="square"
     stroke-width="2.5"
     x1="529.7"
     x2="529.7"
     y1="32.4"
     y2="256.4"
     id="line147" />
  <text
     fill="black"
     font-family="sans-serif"
     font-size="28"
     x="539.7"
     y="144.4"
     id="text149">224</text>
  <line
     stroke="black"
     stroke-linecap="square"
     stroke-opacity="1.0"
     stroke-width="2.5"
     x1="539.7"
     x2="519.7"
     y1="32.4"
     y2="32.4"
     id="line151" />
  <line
     stroke="black"
     stroke-linecap="square"
     stroke-opacity="1.0"
     stroke-width="2.5"
     x1="539.7"
     x2="519.7"
     y1="256.4"
     y2="256.4"
     id="line153" />
  <line
     stroke="#D8D8D8"
     stroke-linecap="square"
     stroke-opacity="0.7"
     stroke-width="2.5"
     x1="142.7"
     x2="642.7"
     y1="69.4"
     y2="69.4"
     id="line155" />
  <line
     stroke="#D8D8D8"
     stroke-linecap="square"
     stroke-opacity="0.7"
     stroke-width="2.5"
     x1="142.7"
     x2="642.7"
     y1="219.4"
     y2="219.4"
     id="line157" />
  <line
     marker-end="url(#id5)"
     marker-start="url(#id6)"
     stroke="black"
     stroke-linecap="square"
     stroke-width="2.5"
     x1="642.7"
     x2="642.7"
     y1="69.4"
     y2="219.4"
     id="line159" />
  <text
     fill="black"
     font-family="sans-serif"
     font-size="28"
     x="652.7"
     y="144.4"
     id="text161">3@50 c/c</text>
  <line
     stroke="black"
     stroke-linecap="square"
     stroke-opacity="1.0"
     stroke-width="2.5"
     x1="652.7"
     x2="632.7"
     y1="69.4"
     y2="69.4"
     id="line163" />
  <line
     stroke="black"
     stroke-linecap="square"
     stroke-opacity="1.0"
     stroke-width="2.5"
     x1="652.7"
     x2="632.7"
     y1="219.4"
     y2="219.4"
     id="line165" />
  <line
     marker-end="url(#id7)"
     marker-start="url(#id8)"
     stroke="black"
     stroke-linecap="square"
     stroke-width="2.5"
     x1="642.7"
     x2="642.7"
     y1="69.4"
     y2="32.4"
     id="line167" />
  <text
     fill="black"
     font-family="sans-serif"
     font-size="28"
     x="652.7"
     y="50.9"
     id="text169">37</text>
  <line
     stroke="black"
     stroke-linecap="square"
     stroke-opacity="1.0"
     stroke-width="2.5"
     x1="652.7"
     x2="632.7"
     y1="69.4"
     y2="69.4"
     id="line171" />
  <line
     stroke="black"
     stroke-linecap="square"
     stroke-opacity="1.0"
     stroke-width="2.5"
     x1="652.7"
     x2="632.7"
     y1="32.4"
     y2="32.4"
     id="line173" />
  <line
     marker-end="url(#id9)"
     marker-start="url(#id10)"
     stroke="black"
     stroke-linecap="square"
     stroke-width="2.5"
     x1="642.7"
     x2="642.7"
     y1="219.4"
     y2="256.4"
     id="line175" />
  <text
     fill="black"
     font-family="sans-serif"
     font-size="28"
     x="652.7"
     y="237.9"
     id="text177">37</text>
  <line
     stroke="black"
     stroke-linecap="square"
     stroke-opacity="1.0"
     stroke-width="2.5"
     x1="652.7"
     x2="632.7"
     y1="219.4"
     y2="219.4"
     id="line179" />
  <line
     stroke="black"
     stroke-linecap="square"
     stroke-opacity="1.0"
     stroke-width="2.5"
     x1="652.7"
     x2="632.7"
     y1="256.4"
     y2="256.4"
     id="line181" />
  <line
     stroke="#D8D8D8"
     stroke-linecap="square"
     stroke-opacity="0.7"
     stroke-width="2.5"
     x1="142.7"
     x2="142.7"
     y1="32.4"
     y2="-180.0"
     id="line183" />
  <line
     stroke="#D8D8D8"
     stroke-linecap="square"
     stroke-opacity="0.7"
     stroke-width="2.5"
     x1="179.7"
     x2="179.7"
     y1="32.4"
     y2="-180.0"
     id="line185" />
  <line
     marker-end="url(#id11)"
     marker-start="url(#id12)"
     stroke="black"
     stroke-linecap="square"
     stroke-width="2.5"
     x1="179.7"
     x2="142.7"
     y1="-180.0"
     y2="-180.0"
     id="line187" />
  <text
     fill="black"
     font-family="sans-serif"
     font-size="28"
     x="161.2"
     y="-200.0"
     id="text189">37</text>
  <line
     stroke="black"
     stroke-linecap="square"
     stroke-opacity="1.0"
     stroke-width="2.5"
     x1="179.7"
     x2="179.7"
     y1="-190.0"
     y2="-170.0"
     id="line191" />
  <line
     stroke="black"
     stroke-linecap="square"
     stroke-opacity="1.0"
     stroke-width="2.5"
     x1="142.7"
     x2="142.7"
     y1="-190.0"
     y2="-170.0"
     id="line193" />
  <line
     stroke="#D8D8D8"
     stroke-linecap="square"
     stroke-opacity="0.7"
     stroke-width="2.5"
     x1="0"
     x2="-30"
     y1="0"
     y2="0"
     id="line195" />
  <line
     stroke="#D8D8D8"
     stroke-linecap="square"
     stroke-opacity="0.7"
     stroke-width="2.5"
     x1="99.7"
     x2="-30.0"
     y1="32.4"
     y2="32.4"
     id="line197" />
  <line
     marker-end="url(#id13)"
     marker-start="url(#id14)"
     stroke="black"
     stroke-linecap="square"
     stroke-width="2.5"
     x1="-30.0"
     x2="-30.0"
     y1="0.0"
     y2="32.4"
     id="line199" />
  <text
     fill="black"
     font-family="sans-serif"
     font-size="28"
     x="-80.0"
     y="16.2"
     id="text201">32</text>
  <line
     stroke="black"
     stroke-linecap="square"
     stroke-opacity="1.0"
     stroke-width="2.5"
     x1="-40.0"
     x2="-20.0"
     y1="0.0"
     y2="0.0"
     id="line203" />
  <line
     stroke="black"
     stroke-linecap="square"
     stroke-opacity="1.0"
     stroke-width="2.5"
     x1="-40.0"
     x2="-20.0"
     y1="32.4"
     y2="32.4"
     id="line205" />
  <line
     stroke="#D8D8D8"
     stroke-linecap="square"
     stroke-opacity="0.7"
     stroke-width="2.5"
     x1="79.7"
     x2="-24.15"
     y1="32.4"
     y2="32.4"
     id="line207" />
  <line
     stroke="#D8D8D8"
     stroke-linecap="square"
     stroke-opacity="0.7"
     stroke-width="2.5"
     x1="70.3"
     x2="-25.85"
     y1="94.4"
     y2="94.4"
     id="line209" />
  <line
     marker-end="url(#id15)"
     marker-start="url(#id16)"
     stroke="black"
     stroke-linecap="square"
     stroke-width="2.5"
     x1="-25.85"
     x2="-25.85"
     y1="32.4"
     y2="94.4"
     id="line211" />
  <text
     fill="black"
     font-family="sans-serif"
     font-size="28"
     x="-75.85"
     y="63.4"
     id="text213">62</text>
  <line
     stroke="black"
     stroke-linecap="square"
     stroke-opacity="1.0"
     stroke-width="2.5"
     x1="-35.85"
     x2="-15.85"
     y1="32.4"
     y2="32.4"
     id="line215" />
  <line
     stroke="black"
     stroke-linecap="square"
     stroke-opacity="1.0"
     stroke-width="2.5"
     x1="-35.85"
     x2="-15.85"
     y1="94.4"
     y2="94.4"
     id="line217" />
  <line
     stroke="#D8D8D8"
     stroke-linecap="square"
     stroke-opacity="0.7"
     stroke-width="2.5"
     x1="70.3"
     x2="-25.85"
     y1="194.4"
     y2="194.4"
     id="line219" />
  <line
     marker-end="url(#id17)"
     marker-start="url(#id18)"
     stroke="black"
     stroke-linecap="square"
     stroke-width="2.5"
     x1="-25.85"
     x2="-25.85"
     y1="94.4"
     y2="194.4"
     id="line221" />
  <text
     fill="black"
     font-family="sans-serif"
     font-size="28"
     x="-175.85"
     y="144.4"
     id="text223">2@50 c/c</text>
  <line
     stroke="black"
     stroke-linecap="square"
     stroke-opacity="1.0"
     stroke-width="2.5"
     x1="-35.85"
     x2="-15.85"
     y1="94.4"
     y2="94.4"
     id="line225" />
  <line
     stroke="black"
     stroke-linecap="square"
     stroke-opacity="1.0"
     stroke-width="2.5"
     x1="-35.85"
     x2="-15.85"
     y1="194.4"
     y2="194.4"
     id="line227" />
  <line
     stroke="#D8D8D8"
     stroke-linecap="square"
     stroke-opacity="0.7"
     stroke-width="2.5"
     x1="79.7"
     x2="-24.15"
     y1="256.4"
     y2="256.4"
     id="line229" />
  <line
     marker-end="url(#id19)"
     marker-start="url(#id20)"
     stroke="black"
     stroke-linecap="square"
     stroke-width="2.5"
     x1="-25.85"
     x2="-25.85"
     y1="256.4"
     y2="194.4"
     id="line231" />
  <text
     fill="black"
     font-family="sans-serif"
     font-size="28"
     x="-75.85"
     y="225.4"
     id="text233">62</text>
  <line
     stroke="black"
     stroke-linecap="square"
     stroke-opacity="1.0"
     stroke-width="2.5"
     x1="-35.85"
     x2="-15.85"
     y1="256.4"
     y2="256.4"
     id="line235" />
  <line
     stroke="black"
     stroke-linecap="square"
     stroke-opacity="1.0"
     stroke-width="2.5"
     x1="-35.85"
     x2="-15.85"
     y1="194.4"
     y2="194.4"
     id="line237" />
  <polyline
     fill="none"
     marker-start="url(#id21)"
     points="449.7,300.0 536.302540378,350.0 744.302540378,350.0"
     stroke="black"
     stroke-width="2.5"
     id="polyline239" />
  <text
     fill="black"
     font-family="sans-serif"
     font-size="28"
     x="557.102540378"
     y="332.0"
     id="text241">Beam ISMB 300</text>
  <text
     fill="black"
     font-family="sans-serif"
     font-size="28"
     x="557.102540378"
     y="368.0"
     id="text243" />
  <polyline
     fill="none"
     marker-start="url(#id22)"
     points="0,0 -100.0,-100.0 -308.0,-100.0"
     stroke="black"
     stroke-width="2.5"
     id="polyline245" />
  <text
     fill="black"
     font-family="sans-serif"
     font-size="28"
     x="-287.2"
     y="-118.0"
     id="text247">Beam ISMB 450</text>
  <text
     fill="black"
     font-family="sans-serif"
     font-size="28"
     x="-328.8"
     y="-82.0"
     id="text249" />
  <polyline
     fill="none"
     marker-start="url(#id23)"
     points="142.7,69.4 329.7,-117.6 697.7,-117.6"
     stroke="black"
     stroke-width="2.5"
     id="polyline251" />
  <text
     fill="black"
     font-family="sans-serif"
     font-size="28"
     x="366.5"
     y="-135.6"
     id="text253">4 nos 20Ø holes</text>
  <text
     fill="black"
     font-family="sans-serif"
     font-size="28"
     x="366.5"
     y="-84.6"
     id="text255">for M20bolts(grade 4.8)</text>
  <polyline
     fill="none"
     marker-start="url(#id24)"
     points="70.3,194.4 24.1119784648,274.4 -343.888021535,274.4"
     stroke="black"
     stroke-width="2.5"
     id="polyline257" />
  <text
     fill="black"
     font-family="sans-serif"
     font-size="28"
     x="-307.088021535"
     y="256.4"
     id="text259">6 nos 20Ø holes</text>
  <text
     fill="black"
     font-family="sans-serif"
     font-size="28"
     x="-380.688021535"
     y="292.4"
     id="text261">for M20bolts(grade 4.8)</text>
  <polyline
     fill="none"
     marker-start="url(#id25)"
     points="179.7,256.4 218.177504033,400.0 442.177504033,400.0"
     stroke="black"
     stroke-width="2.5"
     id="polyline263" />
  <text
     fill="black"
     font-family="sans-serif"
     font-size="28"
     x="240.577504033"
     y="382.0"
     id="text265">ISA.100X100X10</text>
  <text
     fill="black"
     font-family="sans-serif"
     font-size="28"
     x="240.577504033"
     y="418.0"
     id="text267" />
  <text
     fill="black"
     font-family="sans-serif"
     font-size="30"
     x="50"
     y="600"
     id="text269">
    <tspan
       style="fill:#008000"
       id="tspan3613">Front view (Sec C-C)</tspan>
  </text>
  <text
     fill="black"
     font-family="sans-serif"
     font-size="30"
     x="400"
     y="600"
     id="text271">(All distances are in &quot;mm&quot;)</text>
  <flowRoot
     xml:space="preserve"
     id="flowRoot3603"
     style="fill:black;stroke:none;stroke-opacity:1;stroke-width:1px;stroke-linejoin:miter;stroke-linecap:butt;fill-opacity:1;font-family:sans-serif;font-style:normal;font-weight:normal;font-size:40px;line-height:125%;letter-spacing:0px;word-spacing:0px"><flowRegion
       id="flowRegion3605"><rect
         id="rect3607"
         width="329.13425"
         height="46.740955"
         x="543.36365"
         y="928.0199" /></flowRegion><flowPara
       id="flowPara3609"></flowPara></flowRoot></svg>
