<?xml version="1.0" encoding="utf-8" ?>
<svg baseProfile="full" height="100%" version="1.1" viewBox="-500 -350 1500 1300" width="100%" xmlns="http://www.w3.org/2000/svg" xmlns:ev="http://www.w3.org/2001/xml-events" xmlns:xlink="http://www.w3.org/1999/xlink"><defs><marker id="id1" markerHeight="10" markerWidth="10" orient="auto" refX="0" refY="5"><path d="M 0 0 L 10 5 L 0 10 z" fill="blue" stroke="black" /></marker><marker id="id2" markerHeight="10" markerWidth="10" orient="auto" refX="0" refY="5"><path d="M 0 0 L 10 5 L 0 10 z" fill="blue" stroke="black" /></marker><marker id="id3" markerHeight="30" markerWidth="30" orient="auto" refX="8" refY="3"><path d=" M0,0 L3,3 L0,6 L8,3 L0,0" fill="black" /></marker><marker id="id4" markerHeight="20" markerWidth="30" orient="auto" refX="0" refY="3"><path d=" M0,3 L8,6 L5,3 L8,0 L0,3" fill="black" /></marker><marker id="id5" markerHeight="30" markerWidth="30" orient="auto" refX="8" refY="3"><path d=" M0,0 L3,3 L0,6 L8,3 L0,0" fill="black" /></marker><marker id="id6" markerHeight="20" markerWidth="30" orient="auto" refX="0" refY="3"><path d=" M0,3 L8,6 L5,3 L8,0 L0,3" fill="black" /></marker><marker id="id7" markerHeight="30" markerWidth="30" orient="auto" refX="8" refY="3"><path d=" M0,0 L3,3 L0,6 L8,3 L0,0" fill="black" /></marker><marker id="id8" markerHeight="20" markerWidth="30" orient="auto" refX="0" refY="3"><path d=" M0,3 L8,6 L5,3 L8,0 L0,3" fill="black" /></marker><marker id="id9" markerHeight="30" markerWidth="30" orient="auto" refX="8" refY="3"><path d=" M0,0 L3,3 L0,6 L8,3 L0,0" fill="black" /></marker><marker id="id10" markerHeight="20" markerWidth="30" orient="auto" refX="0" refY="3"><path d=" M0,3 L8,6 L5,3 L8,0 L0,3" fill="black" /></marker><marker id="id11" markerHeight="30" markerWidth="30" orient="auto" refX="8" refY="3"><path d=" M0,0 L3,3 L0,6 L8,3 L0,0" fill="black" /></marker><marker id="id12" markerHeight="20" markerWidth="30" orient="auto" refX="0" refY="3"><path d=" M0,3 L8,6 L5,3 L8,0 L0,3" fill="black" /></marker><marker id="id13" markerHeight="30" markerWidth="30" orient="auto" refX="8" refY="3"><path d=" M0,0 L3,3 L0,6 L8,3 L0,0" fill="black" /></marker><marker id="id14" markerHeight="20" markerWidth="30" orient="auto" refX="0" refY="3"><path d=" M0,3 L8,6 L5,3 L8,0 L0,3" fill="black" /></marker><marker id="id15" markerHeight="30" markerWidth="30" orient="auto" refX="8" refY="3"><path d=" M0,0 L3,3 L0,6 L8,3 L0,0" fill="black" /></marker><marker id="id16" markerHeight="20" markerWidth="30" orient="auto" refX="0" refY="3"><path d=" M0,3 L8,6 L5,3 L8,0 L0,3" fill="black" /></marker><marker id="id17" markerHeight="30" markerWidth="30" orient="auto" refX="8" refY="3"><path d=" M0,0 L3,3 L0,6 L8,3 L0,0" fill="black" /></marker><marker id="id18" markerHeight="20" markerWidth="30" orient="auto" refX="0" refY="3"><path d=" M0,3 L8,6 L5,3 L8,0 L0,3" fill="black" /></marker><marker id="id19" markerHeight="30" markerWidth="30" orient="auto" refX="8" refY="3"><path d=" M0,0 L3,3 L0,6 L8,3 L0,0" fill="black" /></marker><marker id="id20" markerHeight="20" markerWidth="30" orient="auto" refX="0" refY="3"><path d=" M0,3 L8,6 L5,3 L8,0 L0,3" fill="black" /></marker><marker id="id21" markerHeight="20" markerWidth="30" orient="auto" refX="0" refY="3"><path d=" M0,3 L8,6 L5,3 L8,0 L0,3" fill="black" /></marker><marker id="id22" markerHeight="20" markerWidth="30" orient="auto" refX="0" refY="3"><path d=" M0,3 L8,6 L5,3 L8,0 L0,3" fill="black" /></marker><marker id="id23" markerHeight="20" markerWidth="30" orient="auto" refX="0" refY="3"><path d=" M0,3 L8,6 L5,3 L8,0 L0,3" fill="black" /></marker><marker id="id24" markerHeight="20" markerWidth="30" orient="auto" refX="0" refY="3"><path d=" M0,3 L8,6 L5,3 L8,0 L0,3" fill="black" /></marker><marker id="id25" markerHeight="20" markerWidth="30" orient="auto" refX="0" refY="3"><path d=" M0,3 L8,6 L5,3 L8,0 L0,3" fill="black" /></marker></defs><line marker-end="url(#id1)" stroke="black" stroke-linecap="square" stroke-width="2.5" x1="0" x2="0" y1="-320" y2="-270" /><text fill="black" font-family="sans-serif" font-size="52" x="-10" y="-190">A</text><line marker-end="url(#id2)" stroke="black" stroke-linecap="square" stroke-width="2.5" x1="449.7" x2="449.7" y1="-320.0" y2="-270.0" /><text fill="black" font-family="sans-serif" font-size="52" x="439.7" y="-190.0">A</text><line stroke="#666666" stroke-linecap="square" stroke-width="1.0" x1="0" x2="449.7" y1="-320" y2="-320.0" /><polyline fill="none" points="0,0 150,0 150.0,17.4 79.7,17.4 79.7,432.6 150.0,432.6 150.0,450.0 0.0,450.0 0.0,432.6 70.3,432.6 70.3,17.4 0.0,17.4 0,0" stroke="blue" stroke-width="2.5" /><polyline fill="none" points="160.0,17.4 160,0 449.7,0.0 449.7,300.0 99.7,300.0 99.7,286.9 99.7,256.4" stroke="blue" stroke-width="2.5" /><line stroke="red" stroke-dasharray="5 5" stroke-linecap="square" stroke-width="2.5" x1="99.7" x2="99.7" y1="32.4" y2="256.4" /><line stroke="blue" stroke-linecap="square" stroke-width="2.5" x1="160.0" x2="449.7" y1="13.1" y2="13.1" /><line stroke="blue" stroke-linecap="square" stroke-width="2.5" x1="99.7" x2="449.7" y1="286.9" y2="286.9" /><rect fill="none" height="224" stroke="blue" stroke-width="2.5" width="10" x="79.7" y="32.4" /><rect fill="none" height="224" stroke="blue" stroke-width="2.5" width="90" x="89.7" y="32.4" /><path d="M 160.0 17.4 A 15.0 15.0 , 0 , 0 , 1 , 145.0 32.4" fill="none" stroke="blue" stroke-width="2.5" /><circle cx="142.7" cy="69.4" fill="none" r="10" stroke="blue" stroke-width="1.5" /><line stroke="red" stroke-linecap="square" stroke-width="2.0" x1="128.7" x2="156.7" y1="69.4" y2="69.4" /><line stroke="red" stroke-linecap="square" stroke-width="2.0" x1="142.7" x2="142.7" y1="55.4" y2="83.4" /><circle cx="142.7" cy="119.4" fill="none" r="10" stroke="blue" stroke-width="1.5" /><line stroke="red" stroke-linecap="square" stroke-width="2.0" x1="128.7" x2="156.7" y1="119.4" y2="119.4" /><line stroke="red" stroke-linecap="square" stroke-width="2.0" x1="142.7" x2="142.7" y1="105.4" y2="133.4" /><circle cx="142.7" cy="169.4" fill="none" r="10" stroke="blue" stroke-width="1.5" /><line stroke="red" stroke-linecap="square" stroke-width="2.0" x1="128.7" x2="156.7" y1="169.4" y2="169.4" /><line stroke="red" stroke-linecap="square" stroke-width="2.0" x1="142.7" x2="142.7" y1="155.4" y2="183.4" /><circle cx="142.7" cy="219.4" fill="none" r="10" stroke="blue" stroke-width="1.5" /><line stroke="red" stroke-linecap="square" stroke-width="2.0" x1="128.7" x2="156.7" y1="219.4" y2="219.4" /><line stroke="red" stroke-linecap="square" stroke-width="2.0" x1="142.7" x2="142.7" y1="205.4" y2="233.4" /><rect fill="black" height="20" stroke="black" stroke-width="2.0" width="19.4" x="70.3" y="84.4" /><line stroke="black" stroke-linecap="square" stroke-width="2.0" x1="60.3" x2="107.7" y1="94.4" y2="94.4" /><rect fill="black" height="20" stroke="black" stroke-width="2.0" width="19.4" x="70.3" y="134.4" /><line stroke="black" stroke-linecap="square" stroke-width="2.0" x1="60.3" x2="107.7" y1="144.4" y2="144.4" /><rect fill="black" height="20" stroke="black" stroke-width="2.0" width="19.4" x="70.3" y="184.4" /><line stroke="black" stroke-linecap="square" stroke-width="2.0" x1="60.3" x2="107.7" y1="194.4" y2="194.4" /><line stroke="#D8D8D8" stroke-linecap="square" stroke-opacity="0.7" stroke-width="2.5" x1="179.7" x2="679.7" y1="32.4" y2="32.4" /><line stroke="#D8D8D8" stroke-linecap="square" stroke-opacity="0.7" stroke-width="2.5" x1="179.7" x2="679.7" y1="256.4" y2="256.4" /><line marker-end="url(#id3)" marker-start="url(#id4)" stroke="black" stroke-linecap="square" stroke-width="2.5" x1="529.7" x2="529.7" y1="32.4" y2="256.4" /><text fill="black" font-family="sans-serif" font-size="28" x="539.7" y="144.4">224</text><line stroke="black" stroke-linecap="square" stroke-opacity="1.0" stroke-width="2.5" x1="539.7" x2="519.7" y1="32.4" y2="32.4" /><line stroke="black" stroke-linecap="square" stroke-opacity="1.0" stroke-width="2.5" x1="539.7" x2="519.7" y1="256.4" y2="256.4" /><line stroke="#D8D8D8" stroke-linecap="square" stroke-opacity="0.7" stroke-width="2.5" x1="142.7" x2="642.7" y1="69.4" y2="69.4" /><line stroke="#D8D8D8" stroke-linecap="square" stroke-opacity="0.7" stroke-width="2.5" x1="142.7" x2="642.7" y1="219.4" y2="219.4" /><line marker-end="url(#id5)" marker-start="url(#id6)" stroke="black" stroke-linecap="square" stroke-width="2.5" x1="642.7" x2="642.7" y1="69.4" y2="219.4" /><text fill="black" font-family="sans-serif" font-size="28" x="652.7" y="144.4">3@50 c/c</text><line stroke="black" stroke-linecap="square" stroke-opacity="1.0" stroke-width="2.5" x1="652.7" x2="632.7" y1="69.4" y2="69.4" /><line stroke="black" stroke-linecap="square" stroke-opacity="1.0" stroke-width="2.5" x1="652.7" x2="632.7" y1="219.4" y2="219.4" /><line marker-end="url(#id7)" marker-start="url(#id8)" stroke="black" stroke-linecap="square" stroke-width="2.5" x1="642.7" x2="642.7" y1="69.4" y2="32.4" /><text fill="black" font-family="sans-serif" font-size="28" x="652.7" y="50.9">37</text><line stroke="black" stroke-linecap="square" stroke-opacity="1.0" stroke-width="2.5" x1="652.7" x2="632.7" y1="69.4" y2="69.4" /><line stroke="black" stroke-linecap="square" stroke-opacity="1.0" stroke-width="2.5" x1="652.7" x2="632.7" y1="32.4" y2="32.4" /><line marker-end="url(#id9)" marker-start="url(#id10)" stroke="black" stroke-linecap="square" stroke-width="2.5" x1="642.7" x2="642.7" y1="219.4" y2="256.4" /><text fill="black" font-family="sans-serif" font-size="28" x="652.7" y="237.9">37</text><line stroke="black" stroke-linecap="square" stroke-opacity="1.0" stroke-width="2.5" x1="652.7" x2="632.7" y1="219.4" y2="219.4" /><line stroke="black" stroke-linecap="square" stroke-opacity="1.0" stroke-width="2.5" x1="652.7" x2="632.7" y1="256.4" y2="256.4" /><line stroke="#D8D8D8" stroke-linecap="square" stroke-opacity="0.7" stroke-width="2.5" x1="142.7" x2="142.7" y1="32.4" y2="-180.0" /><line stroke="#D8D8D8" stroke-linecap="square" stroke-opacity="0.7" stroke-width="2.5" x1="179.7" x2="179.7" y1="32.4" y2="-180.0" /><line marker-end="url(#id11)" marker-start="url(#id12)" stroke="black" stroke-linecap="square" stroke-width="2.5" x1="179.7" x2="142.7" y1="-180.0" y2="-180.0" /><text fill="black" font-family="sans-serif" font-size="28" x="161.2" y="-200.0">37</text><line stroke="black" stroke-linecap="square" stroke-opacity="1.0" stroke-width="2.5" x1="179.7" x2="179.7" y1="-190.0" y2="-170.0" /><line stroke="black" stroke-linecap="square" stroke-opacity="1.0" stroke-width="2.5" x1="142.7" x2="142.7" y1="-190.0" y2="-170.0" /><line stroke="#D8D8D8" stroke-linecap="square" stroke-opacity="0.7" stroke-width="2.5" x1="0" x2="-30" y1="0" y2="0" /><line stroke="#D8D8D8" stroke-linecap="square" stroke-opacity="0.7" stroke-width="2.5" x1="99.7" x2="-30.0" y1="32.4" y2="32.4" /><line marker-end="url(#id13)" marker-start="url(#id14)" stroke="black" stroke-linecap="square" stroke-width="2.5" x1="-30.0" x2="-30.0" y1="0.0" y2="32.4" /><text fill="black" font-family="sans-serif" font-size="28" x="-80.0" y="16.2">32</text><line stroke="black" stroke-linecap="square" stroke-opacity="1.0" stroke-width="2.5" x1="-40.0" x2="-20.0" y1="0.0" y2="0.0" /><line stroke="black" stroke-linecap="square" stroke-opacity="1.0" stroke-width="2.5" x1="-40.0" x2="-20.0" y1="32.4" y2="32.4" /><line stroke="#D8D8D8" stroke-linecap="square" stroke-opacity="0.7" stroke-width="2.5" x1="79.7" x2="-24.15" y1="32.4" y2="32.4" /><line stroke="#D8D8D8" stroke-linecap="square" stroke-opacity="0.7" stroke-width="2.5" x1="70.3" x2="-25.85" y1="94.4" y2="94.4" /><line marker-end="url(#id15)" marker-start="url(#id16)" stroke="black" stroke-linecap="square" stroke-width="2.5" x1="-25.85" x2="-25.85" y1="32.4" y2="94.4" /><text fill="black" font-family="sans-serif" font-size="28" x="-75.85" y="63.4">62</text><line stroke="black" stroke-linecap="square" stroke-opacity="1.0" stroke-width="2.5" x1="-35.85" x2="-15.85" y1="32.4" y2="32.4" /><line stroke="black" stroke-linecap="square" stroke-opacity="1.0" stroke-width="2.5" x1="-35.85" x2="-15.85" y1="94.4" y2="94.4" /><line stroke="#D8D8D8" stroke-linecap="square" stroke-opacity="0.7" stroke-width="2.5" x1="70.3" x2="-25.85" y1="194.4" y2="194.4" /><line marker-end="url(#id17)" marker-start="url(#id18)" stroke="black" stroke-linecap="square" stroke-width="2.5" x1="-25.85" x2="-25.85" y1="94.4" y2="194.4" /><text fill="black" font-family="sans-serif" font-size="28" x="-175.85" y="144.4">2@50 c/c</text><line stroke="black" stroke-linecap="square" stroke-opacity="1.0" stroke-width="2.5" x1="-35.85" x2="-15.85" y1="94.4" y2="94.4" /><line stroke="black" stroke-linecap="square" stroke-opacity="1.0" stroke-width="2.5" x1="-35.85" x2="-15.85" y1="194.4" y2="194.4" /><line stroke="#D8D8D8" stroke-linecap="square" stroke-opacity="0.7" stroke-width="2.5" x1="79.7" x2="-24.15" y1="256.4" y2="256.4" /><line marker-end="url(#id19)" marker-start="url(#id20)" stroke="black" stroke-linecap="square" stroke-width="2.5" x1="-25.85" x2="-25.85" y1="256.4" y2="194.4" /><text fill="black" font-family="sans-serif" font-size="28" x="-75.85" y="225.4">62</text><line stroke="black" stroke-linecap="square" stroke-opacity="1.0" stroke-width="2.5" x1="-35.85" x2="-15.85" y1="256.4" y2="256.4" /><line stroke="black" stroke-linecap="square" stroke-opacity="1.0" stroke-width="2.5" x1="-35.85" x2="-15.85" y1="194.4" y2="194.4" /><polyline fill="none" marker-start="url(#id21)" points="449.7,300.0 536.302540378,350.0 744.302540378,350.0" stroke="black" stroke-width="2.5" /><text fill="black" font-family="sans-serif" font-size="28" x="557.102540378" y="332.0">Beam ISMB 300</text><text fill="black" font-family="sans-serif" font-size="28" x="557.102540378" y="368.0" /><polyline fill="none" marker-start="url(#id22)" points="0,0 -100.0,-100.0 -308.0,-100.0" stroke="black" stroke-width="2.5" /><text fill="black" font-family="sans-serif" font-size="28" x="-287.2" y="-118.0">Beam ISMB 450</text><text fill="black" font-family="sans-serif" font-size="28" x="-328.8" y="-82.0" /><polyline fill="none" marker-start="url(#id23)" points="142.7,69.4 329.7,-117.6 697.7,-117.6" stroke="black" stroke-width="2.5" /><text fill="black" font-family="sans-serif" font-size="28" x="366.5" y="-135.6">4 nos 20Ø holes</text><text fill="black" font-family="sans-serif" font-size="28" x="366.5" y="-84.6">for M20bolts(grade 4.8)</text><polyline fill="none" marker-start="url(#id24)" points="70.3,194.4 24.1119784648,274.4 -343.888021535,274.4" stroke="black" stroke-width="2.5" /><text fill="black" font-family="sans-serif" font-size="28" x="-307.088021535" y="256.4">6 nos 20Ø holes</text><text fill="black" font-family="sans-serif" font-size="28" x="-380.688021535" y="292.4">for M20bolts(grade 4.8)</text><polyline fill="none" marker-start="url(#id25)" points="179.7,256.4 218.177504033,400.0 442.177504033,400.0" stroke="black" stroke-width="2.5" /><text fill="black" font-family="sans-serif" font-size="28" x="240.577504033" y="382.0">ISA.100X100X10</text><text fill="black" font-family="sans-serif" font-size="28" x="240.577504033" y="418.0" /><text fill="black" font-family="sans-serif" font-size="30" x="50" y="600">Front view (Sec C-C)</text><text fill="black" font-family="sans-serif" font-size="30" x="400" y="600">(All distances are in "mm")</text></svg>