<?xml version="1.0" encoding="UTF-8" standalone="no"?>
<svg
   xmlns:dc="http://purl.org/dc/elements/1.1/"
   xmlns:cc="http://creativecommons.org/ns#"
   xmlns:rdf="http://www.w3.org/1999/02/22-rdf-syntax-ns#"
   xmlns:svg="http://www.w3.org/2000/svg"
   xmlns="http://www.w3.org/2000/svg"
   xmlns:sodipodi="http://sodipodi.sourceforge.net/DTD/sodipodi-0.dtd"
   xmlns:inkscape="http://www.inkscape.org/namespaces/inkscape"
   height="100%"
   version="1.1"
   viewBox="-500 -350 1500 1300"
   width="100%"
   id="svg2"
   inkscape:version="0.91 r13725"
   sodipodi:docname="ZX image claet angle with green colour.svg">
  <metadata
     id="metadata289">
    <rdf:RDF>
      <cc:Work
         rdf:about="">
        <dc:format>image/svg+xml</dc:format>
        <dc:type
           rdf:resource="http://purl.org/dc/dcmitype/StillImage" />
        <dc:title></dc:title>
      </cc:Work>
    </rdf:RDF>
  </metadata>
  <sodipodi:namedview
     pagecolor="#ffffff"
     bordercolor="#666666"
     borderopacity="1"
     objecttolerance="10"
     gridtolerance="10"
     guidetolerance="10"
     inkscape:pageopacity="0"
     inkscape:pageshadow="2"
     inkscape:window-width="1920"
     inkscape:window-height="1017"
     id="namedview287"
     showgrid="false"
     inkscape:zoom="1.0269366"
     inkscape:cx="754.2813"
     inkscape:cy="900.08861"
     inkscape:window-x="-8"
     inkscape:window-y="-8"
     inkscape:window-maximized="1"
     inkscape:current-layer="svg2" />
  <defs
     id="defs4">
    <marker
       id="id87"
       markerHeight="10"
       markerWidth="10"
       orient="auto"
       refX="0"
       refY="5">
      <path
         d="M 0 0 L 10 5 L 0 10 z"
         fill="blue"
         stroke="black"
         id="path7" />
    </marker>
    <marker
       id="id88"
       markerHeight="10"
       markerWidth="10"
       orient="auto"
       refX="0"
       refY="5">
      <path
         d="M 0 0 L 10 5 L 0 10 z"
         fill="blue"
         stroke="black"
         id="path10" />
    </marker>
    <marker
       id="id89"
       markerHeight="30"
       markerWidth="30"
       orient="auto"
       refX="8"
       refY="3">
      <path
         d=" M0,0 L3,3 L0,6 L8,3 L0,0"
         fill="black"
         id="path13" />
    </marker>
    <marker
       id="id90"
       markerHeight="20"
       markerWidth="30"
       orient="auto"
       refX="0"
       refY="3">
      <path
         d=" M0,3 L8,6 L5,3 L8,0 L0,3"
         fill="black"
         id="path16" />
    </marker>
    <marker
       id="id91"
       markerHeight="30"
       markerWidth="30"
       orient="auto"
       refX="8"
       refY="3">
      <path
         d=" M0,0 L3,3 L0,6 L8,3 L0,0"
         fill="black"
         id="path19" />
    </marker>
    <marker
       id="id92"
       markerHeight="20"
       markerWidth="30"
       orient="auto"
       refX="0"
       refY="3">
      <path
         d=" M0,3 L8,6 L5,3 L8,0 L0,3"
         fill="black"
         id="path22" />
    </marker>
    <marker
       id="id93"
       markerHeight="30"
       markerWidth="30"
       orient="auto"
       refX="8"
       refY="3">
      <path
         d=" M0,0 L3,3 L0,6 L8,3 L0,0"
         fill="black"
         id="path25" />
    </marker>
    <marker
       id="id94"
       markerHeight="20"
       markerWidth="30"
       orient="auto"
       refX="0"
       refY="3">
      <path
         d=" M0,3 L8,6 L5,3 L8,0 L0,3"
         fill="black"
         id="path28" />
    </marker>
    <marker
       id="id95"
       markerHeight="30"
       markerWidth="30"
       orient="auto"
       refX="8"
       refY="3">
      <path
         d=" M0,0 L3,3 L0,6 L8,3 L0,0"
         fill="black"
         id="path31" />
    </marker>
    <marker
       id="id96"
       markerHeight="20"
       markerWidth="30"
       orient="auto"
       refX="0"
       refY="3">
      <path
         d=" M0,3 L8,6 L5,3 L8,0 L0,3"
         fill="black"
         id="path34" />
    </marker>
    <marker
       id="id97"
       markerHeight="30"
       markerWidth="30"
       orient="auto"
       refX="8"
       refY="3">
      <path
         d=" M0,0 L3,3 L0,6 L8,3 L0,0"
         fill="black"
         id="path37" />
    </marker>
    <marker
       id="id98"
       markerHeight="20"
       markerWidth="30"
       orient="auto"
       refX="0"
       refY="3">
      <path
         d=" M0,3 L8,6 L5,3 L8,0 L0,3"
         fill="black"
         id="path40" />
    </marker>
    <marker
       id="id99"
       markerHeight="30"
       markerWidth="30"
       orient="auto"
       refX="8"
       refY="3">
      <path
         d=" M0,0 L3,3 L0,6 L8,3 L0,0"
         fill="black"
         id="path43" />
    </marker>
    <marker
       id="id100"
       markerHeight="20"
       markerWidth="30"
       orient="auto"
       refX="0"
       refY="3">
      <path
         d=" M0,3 L8,6 L5,3 L8,0 L0,3"
         fill="black"
         id="path46" />
    </marker>
    <marker
       id="id101"
       markerHeight="30"
       markerWidth="30"
       orient="auto"
       refX="8"
       refY="3">
      <path
         d=" M0,0 L3,3 L0,6 L8,3 L0,0"
         fill="black"
         id="path49" />
    </marker>
    <marker
       id="id102"
       markerHeight="20"
       markerWidth="30"
       orient="auto"
       refX="0"
       refY="3">
      <path
         d=" M0,3 L8,6 L5,3 L8,0 L0,3"
         fill="black"
         id="path52" />
    </marker>
    <marker
       id="id103"
       markerHeight="30"
       markerWidth="30"
       orient="auto"
       refX="8"
       refY="3">
      <path
         d=" M0,0 L3,3 L0,6 L8,3 L0,0"
         fill="black"
         id="path55" />
    </marker>
    <marker
       id="id104"
       markerHeight="20"
       markerWidth="30"
       orient="auto"
       refX="0"
       refY="3">
      <path
         d=" M0,3 L8,6 L5,3 L8,0 L0,3"
         fill="black"
         id="path58" />
    </marker>
    <marker
       id="id105"
       markerHeight="30"
       markerWidth="30"
       orient="auto"
       refX="8"
       refY="3">
      <path
         d=" M0,0 L3,3 L0,6 L8,3 L0,0"
         fill="black"
         id="path61" />
    </marker>
    <marker
       id="id106"
       markerHeight="20"
       markerWidth="30"
       orient="auto"
       refX="0"
       refY="3">
      <path
         d=" M0,3 L8,6 L5,3 L8,0 L0,3"
         fill="black"
         id="path64" />
    </marker>
    <marker
       id="id107"
       markerHeight="20"
       markerWidth="30"
       orient="auto"
       refX="0"
       refY="3">
      <path
         d=" M0,3 L8,6 L5,3 L8,0 L0,3"
         fill="black"
         id="path67" />
    </marker>
    <marker
       id="id108"
       markerHeight="20"
       markerWidth="30"
       orient="auto"
       refX="0"
       refY="3">
      <path
         d=" M0,3 L8,6 L5,3 L8,0 L0,3"
         fill="black"
         id="path70" />
    </marker>
    <marker
       id="id109"
       markerHeight="20"
       markerWidth="30"
       orient="auto"
       refX="0"
       refY="3">
      <path
         d=" M0,3 L8,6 L5,3 L8,0 L0,3"
         fill="black"
         id="path73" />
    </marker>
    <marker
       id="id110"
       markerHeight="20"
       markerWidth="30"
       orient="auto"
       refX="0"
       refY="3">
      <path
         d=" M0,3 L8,6 L5,3 L8,0 L0,3"
         fill="black"
         id="path76" />
    </marker>
    <marker
       id="id111"
       markerHeight="20"
       markerWidth="30"
       orient="auto"
       refX="0"
       refY="3">
      <path
         d=" M0,3 L8,6 L5,3 L8,0 L0,3"
         fill="black"
         id="path79" />
    </marker>
  </defs>
  <line
     marker-end="url(#id87)"
     stroke="black"
     stroke-linecap="square"
     stroke-width="2.5"
     x1="0"
     x2="0"
     y1="-320"
     y2="-270"
     id="line81" />
  <text
     fill="black"
     font-family="sans-serif"
     font-size="52"
     x="-10"
     y="-190"
     id="text83"
     style="fill:#00ff00;">A</text>
  <line
     marker-end="url(#id88)"
     stroke="black"
     stroke-linecap="square"
     stroke-width="2.5"
     x1="449.7"
     x2="449.7"
     y1="-320.0"
     y2="-270.0"
     id="line85" />
  <text
     fill="black"
     font-family="sans-serif"
     font-size="52"
     x="439.7"
     y="-190.0"
     id="text87"
     style="fill:#00ff00;">A</text>
  <line
     stroke="#666666"
     stroke-linecap="square"
     stroke-width="1.0"
     x1="0"
     x2="449.7"
     y1="-320"
     y2="-320.0"
     id="line89" />
  <polyline
     fill="none"
     points="0,0 150,0 150.0,17.4 79.7,17.4 79.7,432.6 150.0,432.6 150.0,450.0 0.0,450.0 0.0,432.6 70.3,432.6 70.3,17.4 0.0,17.4 0,0"
     stroke="blue"
     stroke-width="2.5"
     id="polyline91" />
  <polyline
     fill="none"
     points="160.0,17.4 160,0 449.7,0.0 449.7,300.0 99.7,300.0 99.7,286.9 99.7,252.4"
     stroke="blue"
     stroke-width="2.5"
     id="polyline93" />
  <line
     stroke="red"
     stroke-dasharray="5 5"
     stroke-linecap="square"
     stroke-width="2.5"
     x1="99.7"
     x2="99.7"
     y1="32.4"
     y2="252.4"
     id="line95" />
  <line
     stroke="blue"
     stroke-linecap="square"
     stroke-width="2.5"
     x1="160.0"
     x2="449.7"
     y1="13.1"
     y2="13.1"
     id="line97" />
  <line
     stroke="blue"
     stroke-linecap="square"
     stroke-width="2.5"
     x1="99.7"
     x2="449.7"
     y1="286.9"
     y2="286.9"
     id="line99" />
  <rect
     fill="none"
     height="220"
     stroke="blue"
     stroke-width="2.5"
     width="8"
     x="79.7"
     y="32.4"
     id="rect101" />
  <rect
     fill="none"
     height="220"
     stroke="blue"
     stroke-width="2.5"
     width="92"
     x="87.7"
     y="32.4"
     id="rect103" />
  <path
     d="M 160.0 17.4 A 15.0 15.0 , 0 , 0 , 1 , 145.0 32.4"
     fill="none"
     stroke="blue"
     stroke-width="2.5"
     id="path105" />
  <circle
     cx="149.7"
     cy="62.4"
     fill="none"
     r="8"
     stroke="blue"
     stroke-width="1.5"
     id="circle107" />
  <line
     stroke="red"
     stroke-linecap="square"
     stroke-width="2.0"
     x1="137.7"
     x2="161.7"
     y1="62.4"
     y2="62.4"
     id="line109" />
  <line
     stroke="red"
     stroke-linecap="square"
     stroke-width="2.0"
     x1="149.7"
     x2="149.7"
     y1="50.4"
     y2="74.4"
     id="line111" />
  <circle
     cx="149.7"
     cy="102.4"
     fill="none"
     r="8"
     stroke="blue"
     stroke-width="1.5"
     id="circle113" />
  <line
     stroke="red"
     stroke-linecap="square"
     stroke-width="2.0"
     x1="137.7"
     x2="161.7"
     y1="102.4"
     y2="102.4"
     id="line115" />
  <line
     stroke="red"
     stroke-linecap="square"
     stroke-width="2.0"
     x1="149.7"
     x2="149.7"
     y1="90.4"
     y2="114.4"
     id="line117" />
  <circle
     cx="149.7"
     cy="142.4"
     fill="none"
     r="8"
     stroke="blue"
     stroke-width="1.5"
     id="circle119" />
  <line
     stroke="red"
     stroke-linecap="square"
     stroke-width="2.0"
     x1="137.7"
     x2="161.7"
     y1="142.4"
     y2="142.4"
     id="line121" />
  <line
     stroke="red"
     stroke-linecap="square"
     stroke-width="2.0"
     x1="149.7"
     x2="149.7"
     y1="130.4"
     y2="154.4"
     id="line123" />
  <circle
     cx="149.7"
     cy="182.4"
     fill="none"
     r="8"
     stroke="blue"
     stroke-width="1.5"
     id="circle125" />
  <line
     stroke="red"
     stroke-linecap="square"
     stroke-width="2.0"
     x1="137.7"
     x2="161.7"
     y1="182.4"
     y2="182.4"
     id="line127" />
  <line
     stroke="red"
     stroke-linecap="square"
     stroke-width="2.0"
     x1="149.7"
     x2="149.7"
     y1="170.4"
     y2="194.4"
     id="line129" />
  <circle
     cx="149.7"
     cy="222.4"
     fill="none"
     r="8"
     stroke="blue"
     stroke-width="1.5"
     id="circle131" />
  <line
     stroke="red"
     stroke-linecap="square"
     stroke-width="2.0"
     x1="137.7"
     x2="161.7"
     y1="222.4"
     y2="222.4"
     id="line133" />
  <line
     stroke="red"
     stroke-linecap="square"
     stroke-width="2.0"
     x1="149.7"
     x2="149.7"
     y1="210.4"
     y2="234.4"
     id="line135" />
  <rect
     fill="black"
     height="16"
     stroke="black"
     stroke-width="2.0"
     width="17.4"
     x="70.3"
     y="54.4"
     id="rect137" />
  <line
     stroke="black"
     stroke-linecap="square"
     stroke-width="2.0"
     x1="60.3"
     x2="105.7"
     y1="62.4"
     y2="62.4"
     id="line139" />
  <rect
     fill="black"
     height="16"
     stroke="black"
     stroke-width="2.0"
     width="17.4"
     x="70.3"
     y="94.4"
     id="rect141" />
  <line
     stroke="black"
     stroke-linecap="square"
     stroke-width="2.0"
     x1="60.3"
     x2="105.7"
     y1="102.4"
     y2="102.4"
     id="line143" />
  <rect
     fill="black"
     height="16"
     stroke="black"
     stroke-width="2.0"
     width="17.4"
     x="70.3"
     y="134.4"
     id="rect145" />
  <line
     stroke="black"
     stroke-linecap="square"
     stroke-width="2.0"
     x1="60.3"
     x2="105.7"
     y1="142.4"
     y2="142.4"
     id="line147" />
  <rect
     fill="black"
     height="16"
     stroke="black"
     stroke-width="2.0"
     width="17.4"
     x="70.3"
     y="174.4"
     id="rect149" />
  <line
     stroke="black"
     stroke-linecap="square"
     stroke-width="2.0"
     x1="60.3"
     x2="105.7"
     y1="182.4"
     y2="182.4"
     id="line151" />
  <rect
     fill="black"
     height="16"
     stroke="black"
     stroke-width="2.0"
     width="17.4"
     x="70.3"
     y="214.4"
     id="rect153" />
  <line
     stroke="black"
     stroke-linecap="square"
     stroke-width="2.0"
     x1="60.3"
     x2="105.7"
     y1="222.4"
     y2="222.4"
     id="line155" />
  <line
     stroke="#D8D8D8"
     stroke-linecap="square"
     stroke-opacity="0.7"
     stroke-width="2.5"
     x1="179.7"
     x2="679.7"
     y1="32.4"
     y2="32.4"
     id="line157" />
  <line
     stroke="#D8D8D8"
     stroke-linecap="square"
     stroke-opacity="0.7"
     stroke-width="2.5"
     x1="179.7"
     x2="679.7"
     y1="252.4"
     y2="252.4"
     id="line159" />
  <line
     marker-end="url(#id89)"
     marker-start="url(#id90)"
     stroke="black"
     stroke-linecap="square"
     stroke-width="2.5"
     x1="529.7"
     x2="529.7"
     y1="32.4"
     y2="252.4"
     id="line161" />
  <text
     fill="black"
     font-family="sans-serif"
     font-size="28"
     x="539.7"
     y="142.4"
     id="text163"
     style="fill:#00ff00;">220</text>
  <line
     stroke="black"
     stroke-linecap="square"
     stroke-opacity="1.0"
     stroke-width="2.5"
     x1="539.7"
     x2="519.7"
     y1="32.4"
     y2="32.4"
     id="line165" />
  <line
     stroke="black"
     stroke-linecap="square"
     stroke-opacity="1.0"
     stroke-width="2.5"
     x1="539.7"
     x2="519.7"
     y1="252.4"
     y2="252.4"
     id="line167" />
  <line
     stroke="#D8D8D8"
     stroke-linecap="square"
     stroke-opacity="0.7"
     stroke-width="2.5"
     x1="149.7"
     x2="649.7"
     y1="62.4"
     y2="62.4"
     id="line169" />
  <line
     stroke="#D8D8D8"
     stroke-linecap="square"
     stroke-opacity="0.7"
     stroke-width="2.5"
     x1="149.7"
     x2="649.7"
     y1="222.4"
     y2="222.4"
     id="line171" />
  <line
     marker-end="url(#id91)"
     marker-start="url(#id92)"
     stroke="black"
     stroke-linecap="square"
     stroke-width="2.5"
     x1="649.7"
     x2="649.7"
     y1="62.4"
     y2="222.4"
     id="line173" />
  <text
     fill="black"
     font-family="sans-serif"
     font-size="28"
     x="659.7"
     y="142.4"
     id="text175"
     style="fill:#00ff00;">4@40 c/c</text>
  <line
     stroke="black"
     stroke-linecap="square"
     stroke-opacity="1.0"
     stroke-width="2.5"
     x1="659.7"
     x2="639.7"
     y1="62.4"
     y2="62.4"
     id="line177" />
  <line
     stroke="black"
     stroke-linecap="square"
     stroke-opacity="1.0"
     stroke-width="2.5"
     x1="659.7"
     x2="639.7"
     y1="222.4"
     y2="222.4"
     id="line179" />
  <line
     marker-end="url(#id93)"
     marker-start="url(#id94)"
     stroke="black"
     stroke-linecap="square"
     stroke-width="2.5"
     x1="649.7"
     x2="649.7"
     y1="62.4"
     y2="32.4"
     id="line181" />
  <text
     fill="black"
     font-family="sans-serif"
     font-size="28"
     x="659.7"
     y="47.4"
     id="text183"
     style="fill:#00ff00;">30</text>
  <line
     stroke="black"
     stroke-linecap="square"
     stroke-opacity="1.0"
     stroke-width="2.5"
     x1="659.7"
     x2="639.7"
     y1="62.4"
     y2="62.4"
     id="line185" />
  <line
     stroke="black"
     stroke-linecap="square"
     stroke-opacity="1.0"
     stroke-width="2.5"
     x1="659.7"
     x2="639.7"
     y1="32.4"
     y2="32.4"
     id="line187" />
  <line
     marker-end="url(#id95)"
     marker-start="url(#id96)"
     stroke="black"
     stroke-linecap="square"
     stroke-width="2.5"
     x1="649.7"
     x2="649.7"
     y1="222.4"
     y2="252.4"
     id="line189" />
  <text
     fill="black"
     font-family="sans-serif"
     font-size="28"
     x="659.7"
     y="237.4"
     id="text191"
     style="fill:#00ff00;">30</text>
  <line
     stroke="black"
     stroke-linecap="square"
     stroke-opacity="1.0"
     stroke-width="2.5"
     x1="659.7"
     x2="639.7"
     y1="222.4"
     y2="222.4"
     id="line193" />
  <line
     stroke="black"
     stroke-linecap="square"
     stroke-opacity="1.0"
     stroke-width="2.5"
     x1="659.7"
     x2="639.7"
     y1="252.4"
     y2="252.4"
     id="line195" />
  <line
     stroke="#D8D8D8"
     stroke-linecap="square"
     stroke-opacity="0.7"
     stroke-width="2.5"
     x1="149.7"
     x2="149.7"
     y1="32.4"
     y2="-180.0"
     id="line197" />
  <line
     stroke="#D8D8D8"
     stroke-linecap="square"
     stroke-opacity="0.7"
     stroke-width="2.5"
     x1="179.7"
     x2="179.7"
     y1="32.4"
     y2="-180.0"
     id="line199" />
  <line
     marker-end="url(#id97)"
     marker-start="url(#id98)"
     stroke="black"
     stroke-linecap="square"
     stroke-width="2.5"
     x1="179.7"
     x2="149.7"
     y1="-180.0"
     y2="-180.0"
     id="line201"
     style="fill:#00ff00" />
  <text
     fill="black"
     font-family="sans-serif"
     font-size="28"
     x="164.7"
     y="-200.0"
     id="text203"
     style="fill:#00ff00;">30</text>
  <line
     stroke="black"
     stroke-linecap="square"
     stroke-opacity="1.0"
     stroke-width="2.5"
     x1="179.7"
     x2="179.7"
     y1="-190.0"
     y2="-170.0"
     id="line205" />
  <line
     stroke="black"
     stroke-linecap="square"
     stroke-opacity="1.0"
     stroke-width="2.5"
     x1="149.7"
     x2="149.7"
     y1="-190.0"
     y2="-170.0"
     id="line207" />
  <line
     stroke="#D8D8D8"
     stroke-linecap="square"
     stroke-opacity="0.7"
     stroke-width="2.5"
     x1="0"
     x2="-30"
     y1="0"
     y2="0"
     id="line209" />
  <line
     stroke="#D8D8D8"
     stroke-linecap="square"
     stroke-opacity="0.7"
     stroke-width="2.5"
     x1="99.7"
     x2="-30.0"
     y1="32.4"
     y2="32.4"
     id="line211" />
  <line
     marker-end="url(#id99)"
     marker-start="url(#id100)"
     stroke="black"
     stroke-linecap="square"
     stroke-width="2.5"
     x1="-30.0"
     x2="-30.0"
     y1="0.0"
     y2="32.4"
     id="line213" />
  <text
     fill="black"
     font-family="sans-serif"
     font-size="28"
     x="-80.0"
     y="16.2"
     id="text215"
     style="fill:#00ff00;">32</text>
  <line
     stroke="black"
     stroke-linecap="square"
     stroke-opacity="1.0"
     stroke-width="2.5"
     x1="-40.0"
     x2="-20.0"
     y1="0.0"
     y2="0.0"
     id="line217" />
  <line
     stroke="black"
     stroke-linecap="square"
     stroke-opacity="1.0"
     stroke-width="2.5"
     x1="-40.0"
     x2="-20.0"
     y1="32.4"
     y2="32.4"
     id="line219" />
  <line
     stroke="#D8D8D8"
     stroke-linecap="square"
     stroke-opacity="0.7"
     stroke-width="2.5"
     x1="79.7"
     x2="-24.15"
     y1="32.4"
     y2="32.4"
     id="line221" />
  <line
     stroke="#D8D8D8"
     stroke-linecap="square"
     stroke-opacity="0.7"
     stroke-width="2.5"
     x1="70.3"
     x2="-25.85"
     y1="62.4"
     y2="62.4"
     id="line223" />
  <line
     marker-end="url(#id101)"
     marker-start="url(#id102)"
     stroke="black"
     stroke-linecap="square"
     stroke-width="2.5"
     x1="-25.85"
     x2="-25.85"
     y1="32.4"
     y2="62.4"
     id="line225" />
  <text
     fill="black"
     font-family="sans-serif"
     font-size="28"
     x="-75.85"
     y="47.4"
     id="text227"
     style="fill:#00ff00;">30</text>
  <line
     stroke="black"
     stroke-linecap="square"
     stroke-opacity="1.0"
     stroke-width="2.5"
     x1="-35.85"
     x2="-15.85"
     y1="32.4"
     y2="32.4"
     id="line229" />
  <line
     stroke="black"
     stroke-linecap="square"
     stroke-opacity="1.0"
     stroke-width="2.5"
     x1="-35.85"
     x2="-15.85"
     y1="62.4"
     y2="62.4"
     id="line231" />
  <line
     stroke="#D8D8D8"
     stroke-linecap="square"
     stroke-opacity="0.7"
     stroke-width="2.5"
     x1="70.3"
     x2="-25.85"
     y1="222.4"
     y2="222.4"
     id="line233" />
  <line
     marker-end="url(#id103)"
     marker-start="url(#id104)"
     stroke="black"
     stroke-linecap="square"
     stroke-width="2.5"
     x1="-25.85"
     x2="-25.85"
     y1="62.4"
     y2="222.4"
     id="line235" />
  <text
     fill="black"
     font-family="sans-serif"
     font-size="28"
     x="-175.85"
     y="142.4"
     id="text237"
     style="fill:#00ff00;">4@40 c/c</text>
  <line
     stroke="black"
     stroke-linecap="square"
     stroke-opacity="1.0"
     stroke-width="2.5"
     x1="-35.85"
     x2="-15.85"
     y1="62.4"
     y2="62.4"
     id="line239" />
  <line
     stroke="black"
     stroke-linecap="square"
     stroke-opacity="1.0"
     stroke-width="2.5"
     x1="-35.85"
     x2="-15.85"
     y1="222.4"
     y2="222.4"
     id="line241" />
  <line
     stroke="#D8D8D8"
     stroke-linecap="square"
     stroke-opacity="0.7"
     stroke-width="2.5"
     x1="79.7"
     x2="-24.15"
     y1="252.4"
     y2="252.4"
     id="line243" />
  <line
     marker-end="url(#id105)"
     marker-start="url(#id106)"
     stroke="black"
     stroke-linecap="square"
     stroke-width="2.5"
     x1="-25.85"
     x2="-25.85"
     y1="252.4"
     y2="222.4"
     id="line245" />
  <text
     fill="black"
     font-family="sans-serif"
     font-size="28"
     x="-75.85"
     y="237.4"
     id="text247"
     style="fill:#00ff00;">30</text>
  <line
     stroke="black"
     stroke-linecap="square"
     stroke-opacity="1.0"
     stroke-width="2.5"
     x1="-35.85"
     x2="-15.85"
     y1="252.4"
     y2="252.4"
     id="line249" />
  <line
     stroke="black"
     stroke-linecap="square"
     stroke-opacity="1.0"
     stroke-width="2.5"
     x1="-35.85"
     x2="-15.85"
     y1="222.4"
     y2="222.4"
     id="line251" />
  <polyline
     fill="none"
     marker-start="url(#id107)"
     points="449.7,300.0 536.302540378,350.0 744.302540378,350.0"
     stroke="black"
     stroke-width="2.5"
     id="polyline253" />
  <text
     fill="black"
     font-family="sans-serif"
     font-size="28"
     x="557.102540378"
     y="332.0"
     id="text255"
     style="fill:#00ff00;">Beam ISMB 300</text>
  <text
     fill="black"
     font-family="sans-serif"
     font-size="28"
     x="557.102540378"
     y="368.0"
     id="text257" />
  <polyline
     fill="none"
     marker-start="url(#id108)"
     points="0,0 -100.0,-100.0 -308.0,-100.0"
     stroke="black"
     stroke-width="2.5"
     id="polyline259" />
  <text
     fill="black"
     font-family="sans-serif"
     font-size="28"
     x="-287.2"
     y="-118.0"
     id="text261"
     style="fill:#00ff00;">Beam ISMB 450</text>
  <text
     fill="black"
     font-family="sans-serif"
     font-size="28"
     x="-328.8"
     y="-82.0"
     id="text263" />
  <polyline
     fill="none"
     marker-start="url(#id109)"
     points="149.7,62.4 336.7,-124.6 704.7,-124.6"
     stroke="black"
     stroke-width="2.5"
     id="polyline265" />
  <text
     fill="black"
     font-family="sans-serif"
     font-size="28"
     x="373.5"
     y="-142.6"
     id="text267"
     style="fill:#00ff00;">5 nos 16Ø holes</text>
  <text
     fill="black"
     font-family="sans-serif"
     font-size="28"
     x="373.5"
     y="-91.6"
     id="text269"
     style="fill:#00ff00;">for M16bolts(grade 4.8)</text>
  <polyline
     fill="none"
     marker-start="url(#id110)"
     points="70.3,222.4 24.1119784648,302.4 -343.888021535,302.4"
     stroke="black"
     stroke-width="2.5"
     id="polyline271" />
  <text
     fill="black"
     font-family="sans-serif"
     font-size="28"
     x="-307.088021535"
     y="284.4"
     id="text273"
     style="fill:#00ff00;">10 nos 16Ø holes</text>
  <text
     fill="black"
     font-family="sans-serif"
     font-size="28"
     x="-380.688021535"
     y="320.4"
     id="text275"
     style="fill:#00ff00;">for M16bolts(grade 4.8)</text>
  <polyline
     fill="none"
     marker-start="url(#id111)"
     points="179.7,252.4 219.249300803,400.0 427.249300803,400.0"
     stroke="black"
     stroke-width="2.5"
     id="polyline277" />
  <text
     fill="black"
     font-family="sans-serif"
     font-size="28"
     x="240.049300803"
     y="382.0"
     id="text279"
     style="fill:#00ff00;">ISA.100X100X8</text>
  <text
     fill="black"
     font-family="sans-serif"
     font-size="28"
     x="240.049300803"
     y="418.0"
     id="text281" />
  <text
     fill="black"
     font-family="sans-serif"
     font-size="30"
     x="50"
     y="600"
     id="text283">Front view (Sec C-C)</text>
  <text
     fill="black"
     font-family="sans-serif"
     font-size="30"
     x="400"
     y="600"
     id="text285">(All distances are in &quot;mm&quot;)</text>
</svg>
